<svg xmlns="http://www.w3.org/2000/svg" viewBox="0 0 90.6 90.6" xmlns:v="https://vecta.io/nano"><path fill="#f2f2f2" stroke="#e2e2e2" stroke-width=".562" stroke-miterlimit="10" d="M.3.3h90v90H.3z"/><path fill-rule="evenodd" fill="#666" d="M45.4 62.5c-.8.6-1.7 1.4-2.5 2.1l2.5 12 2.4-12c-.9-.7-1.7-1.4-2.4-2.1zm-.2-3.3c-5.2 0-9.6-5.4-9.6-11.8-.9-2.4-.3-10.7 5.2-10.6 6.2-3.2 10.6.3 13.6 2.4 1.1 2.2 1.7 5.7.5 7.7.1 6.8-4.2 12.3-9.7 12.3zm0-1.3c-4.6 0-8.4-4.7-8.4-10.6 0-.9.2-1.7.2-2.4.6-1.6 2.1-2.4 3.2-1.4 3.8 3.2 8.4 3 12.6 2.4 1.1-.2.9 1.1.8 2.1-.2 5.4-3.8 9.9-8.4 9.9zm-19.7 25c0-4.6.2-9.2 0-13.6 0-3.8 1.7-4.6 4.6-5.5l7.3-2.7c.6-.6 1.3-1.4 1.7-2.1l6.3 2.5c2.1-.8 4.1-1.7 6.2-2.5.6.6 1.1 1.4 1.7 2.1l7.4 2.7c2.8.9 4.4 1.7 4.4 5.5v13.6H25.5zm20.2-4.4l7.4-16.6c.5.8 1.1 1.7 1.7 2.5-.9.9-1.9 1.9-2.7 2.8.6.8 1.4 1.6 2.2 2.4l-8.6 8.9zm-.8 0l-7.3-16.6c-.6.8-1.3 1.7-1.7 2.5.8.9 1.7 1.9 2.7 2.8l-2.4 2.4 8.7 8.9z"/><path d="M37 22.7h-6.3c-.7 0-1.3.6-1.3 1.3v6.3c0 .7.6 1.3 1.3 1.3h2.6v-3.1h-1v-1.6h1v-1.1a1.58 1.58 0 0 1 1.6-1.6h1.6v1.6h-1.6v1.1h1.6l-.3 1.6h-1.3v3.1H37c.7 0 1.3-.6 1.3-1.3V24c0-.7-.6-1.3-1.3-1.3zm12.3.4c-.3-.3-.7-.5-1.2-.5h-5.6c-.5 0-.9.2-1.2.5s-.5.7-.5 1.2v5.6c0 .5.2.9.5 1.2s.7.5 1.2.5h5.6c.5 0 .9-.2 1.2-.5s.5-.7.5-1.2v-5.6c-.1-.5-.2-.8-.5-1.2zm-1.7 3v.2c0 .3 0 .7-.1 1s-.2.6-.4.9-.4.6-.7.8l-1 .6c-.4.1-.8.2-1.2.2-.7 0-1.3-.2-1.9-.5h.3c.6 0 1.1-.2 1.5-.5-.3 0-.5-.1-.7-.2-.2-.2-.4-.4-.4-.6h.2.3c-.3-.1-.5-.2-.7-.4s-.3-.5-.3-.8h0c.2.1.4.1.6.2-.4-.2-.5-.6-.5-1 0-.2.1-.4.2-.6.3.4.7.7 1.1.9s.9.4 1.4.4v-.3c0-.3.1-.6.4-.9.2-.2.5-.4.9-.4s.7.1.9.4c.3-.1.5-.1.8-.3-.1.3-.3.5-.5.7.3 0 .5-.1.7-.2-.4 0-.6.2-.9.4zm12.2-3.4h-6.3c-.7 0-1.3.6-1.3 1.3v6.3c0 .7.6 1.3 1.3 1.3h6.3c.7 0 1.3-.6 1.3-1.3V24c0-.8-.6-1.3-1.3-1.3zm-4.4 7h-1v-3.6h1v3.6zm0-4.2h-1v-1h1v1zm3.6 4.2h-1v-2.1a.5.5 0 1 0-1 0v2.1h-1v-3.6h1v.2c.3-.1.5-.2.8-.2.7 0 1.3.6 1.3 1.4v2.2z" fill="#999"/><g fill="#444"><path d="M31.7 12.5H31c-.1 0-.1 0-.2-.1l-.1-.1-.4-1h-1.9l-.4 1-.1.1c-.1 0-.1.1-.2.1H27l1.8-4.7h.9l2 4.7zm-3.1-1.8h1.5l-.6-1.6c0-.1-.1-.2-.1-.2 0-.1-.1-.2-.1-.3 0 .1-.1.2-.1.3s-.1.2-.1.2l-.5 1.6zm6.1 1.8h-.4-.2l-.1-.1v-.3c-.1.1-.2.1-.2.2-.1.1-.2.1-.3.1s-.2.1-.3.1h-.3c-.1 0-.3 0-.4-.1s-.2-.1-.3-.2-.2-.2-.2-.3-.1-.2-.1-.4c0-.1 0-.3.1-.4l.3-.3c.1-.1.4-.2.6-.2.3-.1.6-.1 1-.1v-.2c0-.2 0-.4-.1-.5s-.2-.2-.4-.2h-.3c-.1 0-.2.1-.2.1-.1 0-.1.1-.2.1h-.2-.1l-.1-.1-.1-.3c.4-.4.8-.5 1.4-.5.2 0 .4 0 .5.1.2.1.3.2.4.3s.2.2.2.4a.9.9 0 0 1 .1.5v2.3zm-1.5-.5h.2c.1 0 .1 0 .2-.1.1 0 .1-.1.2-.1s.1-.1.2-.2V11h-.6c-.2 0-.3.1-.4.1s-.2.1-.2.2-.1.1-.1.2 0 .2.1.3c.1.2.2.2.4.2zm2.3.5V9.2h.5.2s.1.1.1.2v.4c.1-.2.3-.4.4-.5.2-.1.3-.2.5-.2s.3 0 .4.1l-.1.6v.1h-.1-.1-.2c-.2 0-.3 0-.4.1s-.2.2-.3.4v2.1h-.9zm4.1-3.4c.2 0 .5 0 .7.1s.4.2.5.3.3.3.3.5.1.4.1.7 0 .5-.1.7-.2.4-.3.5-.3.3-.5.3c-.2.1-.4.1-.7.1-.2 0-.5 0-.7-.1s-.4-.2-.5-.3-.3-.3-.3-.5-.1-.3-.1-.6 0-.5.1-.7.2-.4.3-.5.3-.3.5-.3c.2-.1.5-.2.7-.2zm0 2.9c.3 0 .5-.1.6-.3s.2-.5.2-.8c0-.4-.1-.6-.2-.8s-.3-.3-.6-.3-.5.1-.6.3-.2.5-.2.8c0 .4.1.6.2.8s.3.3.6.3zm2.3.5V9.2h.5c.1 0 .2 0 .2.1l.1.3.2-.2c.1-.1.2-.1.2-.1.1 0 .2-.1.3-.1h.3a.9.9 0 0 1 .5.1c.1.1.3.1.4.3.1.1.2.2.2.4s.1.3.1.5v2.1H44v-2.1c0-.2 0-.4-.1-.5s-.2-.2-.4-.2c-.1 0-.3 0-.4.1s-.2.1-.3.3v2.4h-.9zm6.9-1.6c0 .3 0 .5-.1.7s-.2.4-.3.5-.3.3-.5.3c-.2.1-.4.1-.7.1h-.3c-.1 0-.2 0-.4-.1v-.5s0-.1.1-.1h.1.1.2c.1 0 .2 0 .3-.1.1 0 .2-.1.2-.2.1-.1.1-.2.1-.3v-.5-3h.9v3.2zm1.6-1.7v2.1c0 .2 0 .4.1.5s.2.2.4.2c.1 0 .3 0 .4-.1s.2-.1.3-.3V9.2h.8v3.3H52c-.1 0-.2 0-.2-.1l-.1-.3-.2.2c-.1.1-.2.1-.2.1-.1 0-.2.1-.3.1h-.3c-.2 0-.3 0-.5-.1-.1-.1-.3-.1-.4-.3-.1-.1-.2-.2-.2-.4s-.1-.3-.1-.5v-2h.9zm5.3 3.3c-.1 0-.2 0-.2-.1l-.1-.3-.2.2c-.1.1-.2.1-.2.2s-.2.1-.3.1h-.3c-.2 0-.3 0-.5-.1s-.3-.2-.4-.3-.2-.3-.3-.5-.1-.5-.1-.7 0-.5.1-.7l.3-.6c.1-.2.3-.3.5-.4s.4-.1.6-.1.3 0 .5.1c.1.1.2.1.4.2V7.7h.8v4.8h-.6zm-1.1-.6c.2 0 .3 0 .4-.1l.3-.3V10c-.1-.1-.2-.2-.3-.2s-.2-.1-.3-.1-.2 0-.3.1-.2.1-.2.2c-.1.1-.1.2-.2.4 0 .1-.1.3-.1.5v.5c0 .1.1.2.1.3l.2.2h.4z"/><path d="M58.2 9.1h.4c.1 0 .2.1.3.1h1v.3.1s-.1 0-.1.1l-.3.1c0 .1 0 .1.1.2s0 .1 0 .2c0 .2 0 .3-.1.4l-.3.3a.76.76 0 0 1-.4.2.9.9 0 0 1-.5.1h-.4c-.1.1-.2.1-.2.2s0 .1.1.1.1.1.2.1h.3.4c.1 0 .3 0 .4.1.1 0 .2.1.3.1.1.1.2.1.2.2.1.1.1.2.1.4 0 .1 0 .3-.1.4s-.2.3-.3.4-.3.2-.5.3-.4.1-.7.1-.5 0-.7-.1c-.2 0-.3-.1-.5-.2l-.3-.3c-.1-.1-.1-.2-.1-.3 0-.2 0-.3.1-.4s.2-.2.4-.3c-.1 0-.1-.1-.2-.2 0-.1-.1-.2-.1-.3v-.2c0-.1 0-.1.1-.2 0-.1.1-.1.1-.1.1 0 .1-.1.2-.1a.78.78 0 0 1-.4-.4c-.1-.2-.1-.3-.1-.5s0-.3.1-.4l.3-.3a.76.76 0 0 1 .4-.2c.5.1.6 0 .8 0zm.9 3.6c0-.1 0-.1-.1-.2 0 0-.1-.1-.2-.1s-.1 0-.2-.1-.2 0-.3 0H58h-.3c-.1 0-.2.1-.2.2-.1.1-.1.1-.1.2v.2c0 .1.1.1.1.1.1 0 .1.1.2.1h.4.4c.1 0 .2-.1.3-.1s.1-.1.2-.1c.1-.1.1-.2.1-.2zm-.9-1.9h.3c.1 0 .1-.1.2-.1s.1-.1.1-.2v-.2c0-.2 0-.3-.1-.4s-.2-.1-.4-.1-.3 0-.4.1-.1.2-.1.4v.2c0 .1.1.1.1.2 0 0 .1.1.2.1-.1 0 0 0 .1 0zm3.6-1.7c.2 0 .4 0 .6.1s.3.2.5.3.2.3.3.5.1.4.1.6v.2.1h-.1-.1H61c0 .3.1.6.3.8s.4.2.6.2h.3c.1 0 .2-.1.2-.1.1 0 .1-.1.2-.1h.2.1l.1.1.2.3-.3.3c-.1.1-.2.1-.3.2-.1 0-.2.1-.4.1h-.4c-.2 0-.4 0-.6-.1s-.4-.2-.5-.3c-.1-.2-.3-.3-.3-.6-.1-.2-.1-.5-.1-.8 0-.2 0-.4.1-.6s.2-.4.3-.5.3-.3.5-.4c.1-.2.4-.3.6-.3zm0 .6c-.2 0-.4.1-.5.2s-.2.3-.3.6h1.5v-.3c0-.1-.1-.2-.1-.2l-.2-.2c-.1-.1-.2-.1-.4-.1z"/></g><path d="M43.4 18.3l.3.3c-.1.2-.3.3-.5.4s-.4.1-.7.1c-.2 0-.4 0-.6-.1s-.3-.2-.5-.3c-.1-.1-.2-.3-.3-.5s-.1-.4-.1-.6 0-.3.1-.4c0-.1.1-.3.1-.4.1-.1.1-.2.2-.3s.2-.2.3-.2c.1-.1.2-.1.4-.2.1 0 .3-.1.4-.1h.3c.1 0 .2 0 .3.1.1 0 .2.1.2.1l.2.2-.2.3h-.1-.1l-.1-.1c-.1 0-.1-.1-.2-.1h-.3c-.1 0-.3 0-.4.1-.1 0-.2.1-.3.2s-.1.2-.2.3c0 .1-.1.3-.1.4a.9.9 0 0 0 .1.5c.1.2.1.2.2.3s.2.2.3.2.2.1.4.1h.2.2c.1 0 .1 0 .1-.1l.1-.1c.2-.1.2-.1.3-.1-.1 0-.1 0 0 0zm1.3-1.9v.8h1v.5h-1v.8H46v.5h-2v-3.1h2v.5h-1.3zm4.8 1.1c0 .2 0 .4-.1.6s-.2.4-.3.5-.3.3-.5.3c-.2.1-.4.1-.7.1s-.5 0-.7-.1-.4-.2-.5-.3-.3-.3-.3-.5c-.1-.2-.1-.4-.1-.6s0-.4.1-.6.2-.4.3-.5.3-.3.5-.3c.2-.1.4-.1.7-.1s.5 0 .7.1.4.2.5.3.2.3.3.5.1.3.1.6zm-.6 0c0-.2 0-.3-.1-.4s-.1-.2-.2-.3-.2-.2-.3-.2-.2-.1-.4-.1-.3 0-.4.1c-.1 0-.2.1-.3.2s-.1.2-.2.3c0 .1-.1.3-.1.4 0 .2 0 .3.1.4 0 .1.1.2.2.3s.2.2.3.2.2.1.4.1.3 0 .4-.1.2-.1.3-.2.1-.2.2-.3c0-.1.1-.3.1-.4z" fill="#222"/></svg>