<svg xmlns="http://www.w3.org/2000/svg" viewBox="0 0 90.6 90.6" xmlns:v="https://vecta.io/nano"><path fill="#f2f2f2" stroke="#e2e2e2" stroke-width=".562" stroke-miterlimit="10" d="M.3.3h90v90H.3z"/><g fill="#666"><path fill-rule="evenodd" d="M45.4 48.9l-2.7 2.2L45.4 64 48 51.1l-2.6-2.2zm-.2-3.6c-5.6 0-10.4-5.8-10.4-12.8-1-2.6-.3-11.6 5.6-11.4 6.6-3.4 11.4.3 14.6 2.6 1.2 2.4 1.9 6.1.5 8.3.2 7.3-4.4 13.3-10.3 13.3zm0-1.4c-4.9 0-9-5.1-9-11.4 0-1 .2-1.9.2-2.6.7-1.7 2.2-2.6 3.4-1.5 4.1 3.4 9 3.2 13.6 2.6 1.2-.2 1 1.2.9 2.2-.3 5.8-4.2 10.7-9.1 10.7zM23.9 70.8c0-4.9.2-9.9 0-14.6 0-4.1 1.9-4.9 4.9-6l7.8-2.9c.7-.7 1.4-1.5 1.9-2.2l6.8 2.7c2.2-.9 4.4-1.9 6.6-2.7.7.7 1.2 1.5 1.9 2.2l8 2.9c3.1 1 4.8 1.9 4.8 6v14.6H23.9zM45.7 66l8-17.9c.5.9 1.2 1.9 1.9 2.7-1 1-2 2-2.9 3.1.7.9 1.5 1.7 2.4 2.6L45.7 66zm-.8 0l-7.8-17.9c-.7.9-1.4 1.9-1.9 2.7.9 1 1.9 2 2.9 3.1l-2.6 2.6 9.4 9.5z"/><path opacity=".7" d="M.3.3h90v90H.3z"/></g><g fill="#f2f2f2"><path d="M37.1 48.3h-6.3c-.7 0-1.3.6-1.3 1.3v6.3c0 .7.6 1.3 1.3 1.3h2.6V54h-1v-1.6h1v-1.1a1.58 1.58 0 0 1 1.6-1.6h1.6v1.6H35v1.1h1.6l-.3 1.6H35v3.1h2.1c.7 0 1.3-.6 1.3-1.3v-6.3c0-.6-.6-1.2-1.3-1.2zm12.3.5c-.3-.3-.7-.5-1.2-.5h-5.6c-.5 0-.9.2-1.2.5s-.5.7-.5 1.2v5.6c0 .5.2.9.5 1.2s.7.5 1.2.5h5.6c.5 0 .9-.2 1.2-.5s.5-.7.5-1.2V50c-.1-.5-.2-.9-.5-1.2zm-1.7 2.9v.2c0 .3 0 .7-.1 1s-.2.6-.4.9-.4.6-.7.8l-1 .6c-.4.1-.8.2-1.2.2-.7 0-1.3-.2-1.9-.5h.3c.6 0 1.1-.2 1.5-.5-.3 0-.5-.1-.7-.2-.2-.2-.4-.4-.4-.6h.2.3c-.3-.1-.5-.2-.7-.4s-.3-.5-.3-.8h0c.2.1.4.1.6.2-.4-.2-.5-.6-.5-1 0-.2.1-.4.2-.6.3.4.7.7 1.1.9s.9.4 1.4.4V52c0-.3.1-.6.4-.9.2-.2.5-.4.9-.4s.7.1.9.4c.3-.1.5-.1.8-.3-.1.3-.3.5-.5.7.3 0 .5-.1.7-.2-.4 0-.6.2-.9.4zm12.2-3.4h-6.3c-.7 0-1.3.6-1.3 1.3v6.3c0 .7.6 1.3 1.3 1.3h6.3c.7 0 1.3-.6 1.3-1.3v-6.3c0-.7-.5-1.3-1.3-1.3zm-4.4 7.1h-1v-3.6h1v3.6zm0-4.2h-1v-1h1v1zm3.6 4.2h-1v-2.1a.5.5 0 1 0-1 0v2.1h-1v-3.6h1v.2c.3-.1.5-.2.8-.2.7 0 1.3.6 1.3 1.4v2.2zM31.8 38.2h-.7c-.1 0-.1 0-.2-.1l-.1-.1-.4-1h-1.9l-.4 1-.1.1c-.1 0-.1.1-.2.1h-.7l1.8-4.7h.9l2 4.7zm-3.1-1.8h1.5l-.6-1.6c0-.1-.1-.2-.1-.2 0-.1-.1-.2-.1-.3 0 .1-.1.2-.1.3s-.1.2-.1.2l-.5 1.6zm6.1 1.8h-.4-.2l-.1-.1-.1-.2c0-.1 0 0-.1.1s-.2.1-.3.1-.2.1-.3.1H33c-.1 0-.3 0-.4-.1s-.2-.1-.3-.2-.2-.2-.2-.3-.1-.2-.1-.4c0-.1 0-.3.1-.4l.3-.3c.1-.1.4-.2.6-.2.3-.1.6-.1 1-.1V36c0-.2 0-.4-.1-.5s-.2-.2-.4-.2h-.3c-.1 0-.2.2-.2.3-.1 0-.1.1-.2.1h-.2-.1l-.1-.1-.1-.3c.4-.4.8-.5 1.4-.5.2 0 .4 0 .5.1.2.1.3.2.4.3s.2.2.2.4a.9.9 0 0 1 .1.5v2.1zm-1.5-.5h.2c.1 0 .1 0 .2-.1.1 0 .1-.1.2-.1s.1-.1.2-.2v-.6h-.6c-.2 0-.3.1-.4.1s-.2.1-.2.2-.1.1-.1.2 0 .2.1.3.2.2.4.2zm2.3.5v-3.3h.5.2s.1.1.1.2v.4c.1-.2.3-.4.4-.5.2-.1.3-.2.5-.2s.3 0 .4.1l-.1.6v.1h-.1-.1-.2c-.2 0-.3 0-.4.1a1.38 1.38 0 0 0-.3.4v2.1h-.9zm4.1-3.4c.2 0 .5 0 .7.1s.4.2.5.3.3.3.3.5.1.4.1.7 0 .5-.1.7-.2.4-.3.5-.3.3-.5.3c-.2.1-.4.1-.7.1-.2 0-.5 0-.7-.1s-.4-.2-.5-.3-.3-.3-.3-.5-.1-.5-.1-.7c0-.3 0-.5.1-.7s.2-.4.3-.5.3-.3.5-.3c.2-.1.5-.1.7-.1zm0 2.8c.3 0 .5-.1.6-.3s.2-.5.2-.8c0-.4-.1-.6-.2-.8s-.3-.3-.6-.3-.5.1-.6.3-.2.5-.2.8c0 .4.1.6.2.8s.3.3.6.3zm2.3.6v-3.3h.5c.1 0 .2 0 .2.1l.1.3.2-.2c.1-.1.2-.1.2-.1.1 0 .2-.1.3-.1h.3a.9.9 0 0 1 .5.1c.1.1.3.1.4.3.1.1.2.2.2.4s.1.3.1.5v2.1h-.8V36c0-.2 0-.4-.1-.5s-.2-.2-.4-.2c-.1 0-.3 0-.4.1s-.2.1-.3.3v2.4h-1zm6.9-1.7c0 .3 0 .5-.1.7s-.2.4-.3.5-.3.3-.5.3c-.2.1-.4.1-.7.1H47c-.1 0-.2 0-.4-.1v-.5s0-.1.1-.1h.1.1.2c.1 0 .2 0 .3-.1.1 0 .2-.1.2-.2.1-.1.1-.2.1-.3v-.5-3h.9v3.2zm1.6-1.7V37c0 .2 0 .4.1.5s.2.2.4.2c.1 0 .3 0 .4-.1s.2-.1.3-.3v-2.4h.8v3.3H52c-.1 0-.2 0-.2-.1l-.1-.3-.2.2c-.1.1-.2.1-.2.1-.1 0-.2.1-.3.1h-.3c-.2 0-.3 0-.5-.1-.1-.1-.3-.1-.4-.3-.1-.1-.2-.2-.2-.4s-.1-.3-.1-.5v-2.1h1zm5.3 3.4c-.1 0-.2 0-.2-.1l-.1-.3-.2.2c-.1.1-.2.1-.2.2s-.2.1-.3.1h-.3c-.2 0-.3 0-.5-.1s-.3-.2-.4-.3-.2-.3-.3-.5-.1-.5-.1-.7 0-.5.1-.7l.3-.6c.1-.2.3-.3.5-.4s.4-.1.6-.1a.9.9 0 0 1 .5.1c.1.1.2.1.4.2v-1.8h.8v4.8h-.6zm-1.1-.6c.2 0 .3 0 .4-.1l.3-.3v-1.5c-.1-.1-.2-.2-.3-.2s-.2-.1-.3-.1-.2 0-.3.1-.2.1-.2.2c-.1.1-.1.2-.2.4 0 .1-.1.3-.1.5v.5c0 .1.1.2.1.3l.2.2h.4z"/><path d="M58.3 34.8h.4c.1 0 .2.1.3.1h1v.3.1s-.1 0-.1.1l-.3.1c0 .1 0 .1.1.2s0 .1 0 .2c0 .2 0 .3-.1.4l-.3.3a.76.76 0 0 1-.4.2c-.2.1-.3.1-.5.1H58c-.1.1-.2.1-.2.2s0 .1.1.1.1.1.2.1h.3.4c.1 0 .3 0 .4.1.1 0 .2.1.3.1.1.1.2.1.2.2.1.1.1.2.1.4 0 .1 0 .3-.1.4s-.2.3-.3.4-.3.2-.5.3-.4.1-.7.1-.5 0-.7-.1c-.2 0-.3-.1-.5-.2l-.3-.3c-.1-.1-.1-.2-.1-.3 0-.2 0-.3.1-.4s.2-.2.4-.3c-.1 0-.1-.1-.2-.2 0-.1-.1-.2-.1-.3V37c0-.1 0-.1.1-.2 0-.1.1-.1.1-.1.1 0 .1-.1.2-.1a.78.78 0 0 1-.4-.4c-.1-.2-.1-.3-.1-.5s0-.3.1-.4l.3-.3a.76.76 0 0 1 .4-.2h.8zm.9 3.5c0-.1 0-.1-.1-.2 0 0-.1-.1-.2-.1s-.1 0-.2-.1-.2 0-.3 0h-.3-.3c-.1 0-.2.1-.2.2-.1.1-.1.1-.1.2v.2c0 .1.1.1.1.1.1 0 .1.1.2.1h.4.4c.1 0 .2-.1.3-.1s.1-.1.2-.1c.1-.1.1-.1.1-.2zm-.9-1.9h.3c.1 0 .1-.1.2-.1s.1-.1.1-.2v-.2c0-.2 0-.3-.1-.4s-.2-.1-.4-.1-.3 0-.4.1-.1.2-.1.4v.2c0 .1.1.1.1.2 0 0 .1.1.2.1-.1 0 0 0 .1 0zm3.6-1.6c.2 0 .4 0 .6.1s.3.2.5.3.2.3.3.5.1.4.1.6v.2.1h-.1-.1-2.1c0 .3.1.6.3.8s.4.2.6.2h.3c.1 0 .2-.1.2-.1.1 0 .1-.1.2-.1h.2.1l.1.1.2.3-.3.3c-.1.1-.2.1-.3.2-.1 0-.2.1-.4.1h-.4c-.2 0-.4 0-.6-.1s-.4-.2-.5-.3c-.1-.2-.3-.3-.3-.6-.1-.2-.1-.5-.1-.8 0-.2 0-.4.1-.6s.2-.4.3-.5.3-.3.5-.4c.1-.3.4-.3.6-.3zm0 .6c-.2 0-.4.1-.5.2s-.2.3-.3.6h1.5v-.3c0-.1-.1-.2-.1-.2l-.2-.2c-.1-.1-.2-.1-.4-.1z"/></g><path d="M43.5 43.9l.3.3c-.1.2-.3.3-.5.4s-.4.1-.7.1c-.2 0-.4 0-.6-.1s-.3-.2-.5-.3c-.1-.1-.2-.3-.3-.5s-.1-.4-.1-.6 0-.3.1-.4c0-.1.1-.3.1-.4.1-.1.1-.2.2-.3s.2-.2.3-.2c.1-.1.2-.1.4-.2.1 0 .3-.1.4-.1h.3c.1 0 .2 0 .3.1.1 0 .2.1.2.1l.2.2-.2.3h-.1-.1l-.1-.1c-.1 0-.1-.1-.2-.1h-.3c-.1 0-.3 0-.4.1-.1 0-.2.1-.3.2s-.1.2-.2.3c0 .1-.1.3-.1.4a.9.9 0 0 0 .1.5c.1.2.1.2.2.3s.2.2.3.2.2.1.4.1h.2.2c.1 0 .1 0 .1-.1l.1-.1c.2 0 .2-.1.3-.1-.1 0-.1 0 0 0zm1.3-1.8v.8h1v.5h-1v.8h1.3v.5h-2v-3.1h2v.5h-1.3zm4.8 1c0 .2 0 .4-.1.6s-.2.4-.3.5-.3.3-.5.3c-.2.1-.4.1-.7.1s-.5 0-.7-.1-.4-.2-.5-.3-.3-.3-.3-.5c-.1-.2-.1-.4-.1-.6s0-.4.1-.6.2-.4.3-.5.3-.3.5-.3c.2-.1.4-.1.7-.1s.5 0 .7.1.4.2.5.3.2.3.3.5.1.4.1.6zm-.6 0c0-.2 0-.3-.1-.4s-.1-.2-.2-.3-.2-.2-.3-.2-.2-.1-.4-.1-.3 0-.4.1c-.1 0-.2.1-.3.2s-.1.2-.2.3c0 .1-.1.3-.1.4 0 .2 0 .3.1.4 0 .1.1.2.2.3s.2.2.3.2.2.1.4.1.3 0 .4-.1.2-.1.3-.2.1-.2.2-.3c0-.1.1-.2.1-.4z" fill="#fff"/></svg>