<svg xmlns="http://www.w3.org/2000/svg" viewBox="0 0 121 91" xmlns:v="https://vecta.io/nano"><path fill="#f7f8f9" stroke="#d2d2d2" stroke-miterlimit="10" d="M.5.5h120v90H.5z"/><path d="M48 19h26v25H48zm30 0h26v25H78zM48 48h26v25H48zm30 0h26v25H78z" fill="#bdc5cb"/><path fill="#134e5e" d="M18 19h26v54.1H18z"/><g fill="#fff"><path fill-rule="evenodd" d="M31.2 37c-.3.2-.7.5-1 .8l1 4.6.9-4.6c-.3-.2-.6-.6-.9-.8m-.1-1.3c-2 0-3.7-2.1-3.7-4.6-.4-.9-.1-4.1 2-4.1 2.4-1.2 4.1.1 5.2.9.4.9.7 2.2.2 3 .1 2.7-1.6 4.8-3.7 4.8m0-.5c-1.8 0-3.2-1.8-3.2-4.1 0-.4.1-.7.1-.9.2-.6.8-.9 1.2-.5 1.5 1.2 3.2 1.2 4.9.9.4-.1.4.4.3.8-.1 2.1-1.5 3.8-3.3 3.8m-7.6 9.6v-5.2c0-1.5.7-1.8 1.8-2.1l2.8-1c.2-.2.5-.5.7-.8l2.4 1 2.4-1c.2.2.4.5.7.8l2.9 1c1.1.4 1.7.7 1.7 2.1v5.2H23.5zm7.8-1.7l2.9-6.4c.2.3.4.7.7 1l-1 1.1c.2.3.5.6.9.9-1.3 1.1-2.4 2.3-3.5 3.4m-.3 0l-2.8-6.4-.7 1c.3.4.7.7 1 1.1l-.9.9 3.4 3.4"/><path d="M27.5 61.5h-2.8a.65.65 0 0 0-.6.6v2.8a.65.65 0 0 0 .6.6h1.2v-1.4h-.5v-.7h.5v-.5a.68.68 0 0 1 .7-.7h.7v.7h-.7v.5h.7l-.1.7h-.6v1.4h.9a.65.65 0 0 0 .6-.6v-2.8c-.1-.3-.3-.6-.6-.6m5.4.2c-.1-.1-.3-.2-.5-.2h-2.5c-.2 0-.4.1-.5.2s-.2.3-.2.5v2.5c0 .2.1.4.2.5s.3.2.5.2h2.5c.2 0 .4-.1.5-.2s.2-.3.2-.5v-2.5c0-.2-.1-.3-.2-.5m-.7 1.3s0 .1 0 0c0 .2 0 .4-.1.5a.76.76 0 0 1-.2.4c-.1.1-.2.2-.3.4a.76.76 0 0 1-.4.2c-.2.1-.3.1-.5.1-.3 0-.6-.1-.8-.2h.1c.2 0 .5-.1.7-.2-.1 0-.2 0-.3-.1s-.2-.2-.2-.3h.1.1c-.1 0-.2-.1-.3-.2s-.1-.2-.1-.3h0c.1 0 .2.1.3.1-.2-.1-.2-.3-.2-.4s0-.2.1-.3c.1.2.3.3.5.4s.4.2.6.2v-.1a.76.76 0 0 1 .2-.4c.1-.1.2-.2.4-.2s.3.1.4.2c.1 0 .2-.1.3-.1 0 .1-.1.2-.2.3.1 0 .2 0 .3-.1-.3 0-.4.1-.5.1m5.3-1.5h-2.8a.65.65 0 0 0-.6.6v2.8a.65.65 0 0 0 .6.6h2.8a.65.65 0 0 0 .6-.6v-2.8c0-.3-.2-.6-.6-.6m-1.9 3.1h-.5V63h.5v1.6zm0-1.8h-.5v-.5h.5v.5zm1.6 1.8h-.5v-.9c0-.1-.1-.2-.2-.2s-.2.1-.2.2v.9h-.5V63h.5v.1c.1 0 .2-.1.3-.1a.65.65 0 0 1 .6.6v1zM25.7 48.9h-.3-.1v-.1l-.1-.4h-.8l-.1.4v.1h-.1-.3l.7-1.9h.4l.7 1.9zm-1.3-.7h.6l-.2-.6v-.1-.1.1.1l-.4.6z"/><path d="M26.9 48.9h-.1-.1v-.1-.1l-.1.1s-.1 0-.1.1h-.1-.1-.2s-.1 0-.1-.1l-.1-.1v-.2-.2l.1-.1c.1 0 .1-.1.2-.1h.4V48c0-.1 0-.2-.1-.2 0 0-.1-.1-.2-.1h-.1-.1-.1-.1-.1l-.1-.1c.2-.1.3-.2.6-.2h.2c.1 0 .1.1.2.1 0 0 .1.1.1.2v.2 1zm-.6-.2h.2.1l.1-.1v-.2h-.2-.2s-.1 0-.1.1v.1c0 .1 0 .1.1.1h0"/><path d="M27.2 48.9v-1.3h.2.1v.1.2c0-.1.1-.1.2-.2.1 0 .1-.1.2-.1h.2v.2H28h-.1c-.1 0-.1 0-.2.1 0 0-.1.1-.1.2v.8h-.4zm1.7-1.4h.3c.1 0 .2.1.2.1.1.1.1.1.1.2v.3.3c0 .1-.1.2-.1.2-.1.1-.1.1-.2.1h-.3-.3c-.1 0-.2-.1-.2-.1-.1-.1-.1-.1-.1-.2v-.3-.3c0-.1.1-.2.1-.2.1-.1.1-.1.2-.1.1.1.2 0 .3 0m0 1.2c.1 0 .2 0 .2-.1.1-.1.1-.2.1-.3s0-.3-.1-.3c-.1-.1-.1-.1-.2-.1s-.2 0-.3.1-.1.2-.1.3 0 .3.1.3.2.1.3.1m.9.2v-1.3h.2s.1 0 .1.1v.1l.1-.1s.1 0 .1-.1h.1.1.2c.1 0 .1.1.1.1s.1.1.1.2v.2.9h-.3v-.9c0-.1 0-.1-.1-.2 0 0-.1-.1-.2-.1h-.2l-.1.1v1h-.2zm2.8-.7v.3c0 .1-.1.2-.1.2-.1.1-.1.1-.2.1H32h-.1-.1v-.2h.1.1.1.1s.1 0 .1-.1c0 0 0-.1.1-.1v-.2V47h.4v1.2zm.6-.6v.9c0 .1 0 .1.1.2 0 0 .1.1.2.1h.2l.1-.1v-1h.3V49h-.2s-.1 0-.1-.1v-.1l-.1.1s-.1 0-.1.1h-.1-.1-.2c-.1 0-.1-.1-.1-.1s-.1-.1-.1-.2v-.2-.9h.2zm2.2 1.3c-.1 0-.1 0 0 0l-.1-.2-.1.1s-.1 0-.1.1H35h-.1-.2c-.1 0-.1-.1-.2-.1 0-.1-.1-.1-.1-.2v-.3-.3c0-.1.1-.2.1-.2.1-.1.1-.1.2-.1s.2-.1.2-.1h.2c.1 0 .1.1.1.1V47h.3v2h-.1zm-.5-.2h.2l.1-.1V48l-.1-.1H35h-.1s-.1 0-.1.1c0 0 0 .1-.1.1v.2.2c0 .1 0 .1.1.1l.1.1"/><path d="M36.4 47.5h.2c.1 0 .1 0 .1.1h.4v.1H37h-.1v.1.1.2c0 .1-.1.1-.1.1s-.1.1-.2.1h-.2-.1l-.1.1v.1h.1.1.2.2c.1 0 .1 0 .1.1l.1.1v.2.2c0 .1-.1.1-.1.2-.1 0-.1.1-.2.1h-.3-.3c-.1 0-.1 0-.2-.1l-.1-.1v-.1c0-.1 0-.1.1-.2 0 0 .1-.1.2-.1 0 0-.1 0-.1-.1v-.1-.1-.1l.1-.1.1-.1c-.1 0-.1-.1-.2-.1 0-.1-.1-.1-.1-.2v-.2c0-.1.1-.1.1-.1s.1-.1.2-.1h.2m.3 1.5c0-.1 0-.1 0 0 0-.1-.1-.1-.1-.1h-.1-.1-.1-.1s-.1 0-.1.1v.1.1l.1.1h.1.2.2.1c-.1-.2-.1-.2-.1-.3m-.3-.8h.1.1v-.1-.1c0-.1 0-.1-.1-.2 0 0-.1-.1-.2-.1s-.1 0-.2.1c0 0-.1.1-.1.2v.1.1h.4m1.4-.7h.2c.1 0 .1.1.2.1.1.1.1.1.1.2v.3.1h-.8c0 .1 0 .2.1.3s.2.1.3.1h.1.1.1.1l.1.1-.1.1-.1.1h-.1-.1-.3c-.1 0-.2-.1-.2-.1-.1-.1-.1-.1-.1-.2s-.1-.2-.1-.3V48c0-.1.1-.2.1-.2.1-.1.1-.1.2-.1.1-.1.1-.2.2-.2m.1.3c-.1 0-.2 0-.2.1-.1.1-.1.1-.1.2h.6V48s0-.1-.1-.1l-.1-.1h-.1m-7.6 3.4h0l.1.1c-.1.1-.1.1-.2.1s-.2.1-.3.1h-.3c-.1 0-.1-.1-.2-.1-.1-.1-.1-.1-.1-.2v-.3-.2c0-.1 0-.1.1-.2l.1-.1.1-.1s.1 0 .2-.1h.2.1.1s.1 0 .1.1c0 0 .1 0 .1.1l-.1.1h-.1-.1-.1-.1s-.1 0-.1.1l-.1.1v.2.2c0 .1 0 .1.1.1l.1.1h.1.1.1l.1-.1c0 .1 0 .1 0 0m.6-.7v.3h.4v.2h-.4v.3h.5v.2h-.8v-1.2h.8v.2z"/><path d="M32.8 50.9v.3c0 .1-.1.1-.1.2-.1.1-.1.1-.2.1h-.3-.3c-.1 0-.1-.1-.2-.1-.1-.1-.1-.1-.1-.2v-.3-.3c0-.1.1-.1.1-.2.1-.1.1-.1.2-.1h.3.3c.1 0 .1.1.2.1.1.1.1.1.1.2v.3m-.2 0v-.2c0-.1 0-.1-.1-.1l-.1-.1h-.2-.2s-.1 0-.1.1l-.1.1v.2.2c0 .1 0 .1.1.1l.1.1h.2.2s.1 0 .1-.1l.1-.1v-.2M23 54h16v1H23zm0 2h16v1H23zm0 2h11v1H23zm18.5-36.2l1-1c.1-.1.1-.3 0-.4l-.1-.1c-.1-.1-.3-.1-.4 0l-1 1-1-1c-.1-.1-.3-.1-.4 0l-.1.1c-.1.1-.1.3 0 .4l1 1-1 1c-.1.1-.1.3 0 .4l.1.1c.1.1.3.1.4 0l1-1 1 1c.1.1.3.1.4 0l.1-.1c.1-.1.1-.3 0-.4l-1-1z"/></g></svg>