<svg xmlns="http://www.w3.org/2000/svg" viewBox="0 0 121 91" xmlns:v="https://vecta.io/nano"><path fill="#f7f8f9" stroke="#d2d2d2" stroke-miterlimit="10" d="M.5.5h120v90H.5z"/><path d="M18 19h26v25H18zm60 0h26v25H78zM18 48h26v25H18zm60 0h26v25H78zM48 19h26v25H48zm0 29h26v25H48z" fill="#bdc5cb"/><path fill="#134e5e" d="M35.2 29.8h50.6v31.3H35.2z"/><g fill="#fff"><path fill-rule="evenodd" d="M50.4 46.8c-.3.2-.7.5-1 .8l1 4.6.9-4.6c-.3-.3-.6-.6-.9-.8m-.1-1.3c-2 0-3.7-2.1-3.7-4.6-.4-.9-.1-4.1 2-4.1 2.4-1.2 4.1.1 5.2.9.4.9.7 2.2.2 3 .1 2.7-1.5 4.8-3.7 4.8m0-.5c-1.8 0-3.2-1.8-3.2-4.1 0-.4.1-.7.1-.9.2-.6.8-.9 1.2-.5 1.5 1.2 3.2 1.2 4.9.9.4-.1.4.4.3.8-.1 2.1-1.5 3.8-3.3 3.8m-7.6 9.6v-5.2c0-1.5.7-1.8 1.8-2.1l2.8-1c.2-.2.5-.5.7-.8l2.4 1 2.4-1c.2.2.4.5.7.8l2.9 1c1.1.4 1.7.7 1.7 2.1v5.2H42.7zm7.8-1.7l2.9-6.4c.2.3.4.7.7 1l-1 1.1c.2.3.5.6.9.9l-3.5 3.4m-.3 0l-2.8-6.4-.7 1c.3.4.7.7 1 1.1l-.9.9 3.4 3.4"/><path d="M65.4 50.5H63a.47.47 0 0 0-.5.5v2.4a.47.47 0 0 0 .5.5h1v-1.2h-.4v-.6h.4v-.4a.65.65 0 0 1 .6-.6h.6v.6h-.6v.4h.6l-.1.6h-.5V54h.8a.47.47 0 0 0 .5-.5V51c0-.2-.3-.5-.5-.5m4.8.2c-.1-.1-.3-.2-.5-.2h-2.2c-.2 0-.3.1-.5.2-.1.1-.2.3-.2.5v2.2c0 .2.1.3.2.5.1.1.3.2.5.2h2.2c.2 0 .3-.1.5-.2.1-.1.2-.3.2-.5v-2.2c-.1-.2-.1-.4-.2-.5m-.7 1.2c0 .2 0 .3-.1.4a.76.76 0 0 1-.2.4l-.3.3c-.1.1-.2.2-.4.2-.1.1-.3.1-.5.1-.3 0-.5-.1-.7-.2h.1c.2 0 .4-.1.6-.2-.1 0-.2 0-.3-.1l-.2-.2h.1.1c-.1 0-.2-.1-.3-.2s-.1-.2-.1-.3h0c.1 0 .2.1.2.1-.1-.1-.2-.2-.2-.4 0-.1 0-.2.1-.2l.4.4c.2.1.4.1.6.1V52c0-.1 0-.2.1-.3s.2-.1.3-.1.3.1.3.2c.1 0 .2-.1.3-.1 0 .1-.1.2-.2.3.1 0 .2 0 .3-.1.2-.2.1-.1 0 0m4.8-1.4h-2.5a.47.47 0 0 0-.5.5v2.5a.47.47 0 0 0 .5.5h2.5a.47.47 0 0 0 .5-.5V51c0-.2-.2-.5-.5-.5m-1.8 2.8h-.4v-1.4h.4v1.4zm0-1.7h-.4v-.4h.4v.4zm1.5 1.7h-.4v-.8c0-.1-.1-.2-.2-.2s-.2.1-.2.2v.8h-.4v-1.4h.4v.1c.1 0 .2-.1.3-.1a.47.47 0 0 1 .5.5v.9zM63.9 38.7h-.3-.1v-.1l-.1-.4h-.8l-.1.4v.1h-.1-.4l.7-1.9h.4l.8 1.9zm-1.2-.7h.6l-.3-.7v-.1-.1.1.1l-.3.7zm2.4.7H65h-.1v-.1-.1l-.1.1s-.1 0-.1.1h-.1-.1-.2s-.1 0-.1-.1l-.1-.1v-.2-.2l.1-.1c.1 0 .1-.1.2-.1h.4v-.1c0-.1 0-.2-.1-.2 0 0-.1-.1-.2-.1h-.1-.1-.1-.1-.1l-.1-.1c.2-.1.3-.2.6-.2h.2c.1 0 .1.1.2.1 0 0 .1.1.1.2v.2 1zm-.6-.2h0 .2.1l.1-.1v-.2h-.2-.2s-.1 0-.1.1v.1c0 .1 0 .1.1.1-.1 0-.1 0 0 0"/><path d="M65.4 38.7v-1.3h.2.1v.1.2c0-.1.1-.1.2-.2.1 0 .1-.1.2-.1h.2v.2h-.1-.1c-.1 0-.1 0-.2.1 0 0-.1.1-.1.2v.8h-.4zm1.7-1.4h.3c.1 0 .2.1.2.1.1.1.1.1.1.2v.3.3c0 .1-.1.2-.1.2-.1.1-.1.1-.2.1h-.3-.3c-.1 0-.2-.1-.2-.1-.1-.1-.1-.1-.1-.2v-.3-.3c0-.1.1-.2.1-.2.1-.1.1-.1.2-.1h.3m0 1.2c.1 0 .2 0 .2-.1.1-.1.1-.2.1-.3s0-.3-.1-.3c-.1-.1-.1-.1-.2-.1s-.2 0-.3.1-.1.2-.1.3 0 .3.1.3.2.1.3.1m.9.2v-1.3h.2s.1 0 .1.1v.1l.1-.1s.1 0 .1-.1h.1.1.2c.1 0 .1.1.1.1s.1.1.1.2v.2.9h-.3v-.9c0-.1 0-.1-.1-.2 0 0-.1-.1-.2-.1h-.2l-.1.1v1H68zm2.8-.7v.3c0 .1-.1.2-.1.2-.1.1-.1.1-.2.1h-.3-.1-.1v-.2h.1.1.1.1s.1 0 .1-.1c0 0 0-.1.1-.1V38v-1.2h.4V38zm.7-.7v.9c0 .1 0 .1.1.2 0 0 .1.1.2.1h.2l.1-.1v-1h.3v1.3h-.2s-.1 0-.1-.1v-.1l-.1.1s-.1 0-.1.1h-.1-.1-.2c-.1 0-.1-.1-.1-.1s-.1-.1-.1-.2v-.2-.9h.2zm2.1 1.4s-.1 0 0 0l-.1-.2-.1.1s-.1 0-.1.1h-.1-.1-.2c-.1 0-.1-.1-.2-.1 0-.1-.1-.1-.1-.2v-.3-.3c0-.1.1-.2.1-.2.1-.1.1-.1.2-.1s.2-.1.2-.1h.2c.1 0 .1.1.1.1v-.7h.3v2h-.1zm-.4-.3h.2l.1-.1v-.6l-.1-.1h-.1-.1s-.1 0-.1.1c0 0 0 .1-.1.1v.2.2c0 .1 0 .1.1.1l.1.1c-.1 0-.1 0 0 0"/><path d="M74.6 37.3h.2c.1 0 .1 0 .1.1h.4v.1h-.1-.1v.1.1.2c0 .1-.1.1-.1.1s-.1.1-.2.1h-.2-.1l-.1.1v.1h.1.1.2.2c.1 0 .1 0 .1.1l.1.1v.2.2c0 .1-.1.1-.1.2-.1 0-.1.1-.2.1h-.3-.3c-.1 0-.1 0-.2-.1L74 39v-.1c0-.1 0-.1.1-.2 0 0 .1-.1.2-.1 0 0-.1 0-.1-.1v-.1-.1-.1l.1-.1.1-.1c-.1 0-.1-.1-.2-.1 0-.1-.1-.1-.1-.2v-.2c0-.1.1-.1.1-.1s.1-.1.2-.1h.2m.4 1.4c0-.1-.1-.1-.1-.1h-.1-.1-.1-.1s-.1 0-.1.1v.1.1l.1.1h.1.2.2.1c-.2-.1-.2-.2-.1-.3 0 .1 0 .1 0 0m-.4-.7h.1.1v-.1-.1c0-.1 0-.1-.1-.2 0 0-.1-.1-.2-.1s-.1 0-.2.1c0 0-.1.1-.1.2v.1.1h.4m1.5-.7h.2c.1 0 .1.1.2.1.1.1.1.1.1.2v.3.1h-.8c0 .1 0 .2.1.3s.2.1.3.1h.1.1.1.1l.1.1-.1.1-.1.1h-.1-.1-.3c-.1 0-.2-.1-.2-.1-.1-.1-.1-.1-.1-.2s-.1-.2-.1-.3v-.3c0-.1.1-.2.1-.2.1-.1.1-.1.2-.1 0-.2.1-.2.2-.2m0 .2c-.1 0-.2 0-.2.1-.1.1-.1.1-.1.2h.6v-.1s0-.1-.1-.1l-.1-.1c0 .1-.1 0-.1 0M63 41l.1.1c-.1.1-.1.1-.2.1s-.2.1-.3.1h-.3c-.1 0-.1-.1-.2-.1-.1-.1-.1-.1-.1-.2v-.3-.2c0-.1 0-.1.1-.2l.1-.1.1-.1s.1 0 .2-.1h.2.1.1s.1 0 .1.1c0 0 .1 0 .1.1l-.1.1h-.1-.1-.1-.1s-.1 0-.1.1l-.1.1v.2.2c0 .1 0 .1.1.1l.1.1h.1.1.1c-.1 0 0 0 .1-.1-.1.1-.1 0 0 0-.1 0 0 0 0 0m.5-.7v.3h.5v.2h-.5v.3h.6v.2h-.8V40h.8v.3z"/><path d="M65.5 40.7v.3c0 .1-.1.1-.1.2-.1.1-.1.1-.2.1h-.3-.3c-.1 0-.1-.1-.2-.1-.1-.1-.1-.1-.1-.2v-.3-.3c0-.1.1-.1.1-.2.1-.1.1-.1.2-.1h.3.3c.1 0 .1.1.2.1.1.1.1.1.1.2v.3m-.3 0v-.2c0-.1 0-.1-.1-.1l-.1-.1h-.2-.2s-.1 0-.1.1l-.1.1v.2.2c0 .1 0 .1.1.1l.1.1h.2.2s.1 0 .1-.1l.1-.1v-.2M62 44h16v1H62zm0 2h16v1H62zm0 2h11v1H62zm21.2-15.3l1-1c.1-.1.1-.3 0-.4l-.1-.1c-.1-.1-.3-.1-.4 0l-1 1-1-1c-.1-.1-.3-.1-.4 0l-.1.1c-.1.1-.1.3 0 .4l1 1-1 1c-.1.1-.1.3 0 .4l.1.1c.1.1.3.1.4 0l1-1 1 1c.1.1.3.1.4 0l.1-.1c.1-.1.1-.3 0-.4l-1-1z"/></g><path d="M30.3 46l2.6-2.6c.1-.1.1-.2.1-.3s0-.2-.1-.3l-.2-.2c-.1-.1-.2-.1-.3-.1s-.2 0-.3.1L29 45.7c-.1.1-.1.2-.1.3s0 .2.1.3l3.1 3.1c.1.1.2.1.3.1s.2 0 .3-.1l.2-.2c.1-.1.1-.4 0-.5L30.3 46zm60.5 0l-2.6 2.6c-.1.1-.1.2-.1.3s0 .2.1.3l.2.2c.1.1.2.1.3.1s.2 0 .3-.1l3.1-3.1c.1-.1.1-.2.1-.3s0-.2-.1-.3L89 42.6c-.1-.1-.2-.1-.3-.1s-.2 0-.3.1l-.2.2c-.1.1-.1.4 0 .5l2.6 2.7z" fill="#134e5e"/></svg>