<svg xmlns="http://www.w3.org/2000/svg" viewBox="0 0 151 91" xmlns:v="https://vecta.io/nano"><path fill="#f7f8f9" stroke="#d2d2d2" stroke-miterlimit="10" d="M.5.5h150v90H.5z"/><path fill="#dadee2" d="M24 46h26v25H24z"/><path d="M50 46h26v25H50zm52 0h26v25h-26z" fill="#bdc5cb"/><path fill="#dadee2" d="M50 21h26v25H50z"/><path d="M24 21h26v25H24zm52 0h26v25H76z" fill="#bdc5cb"/><g fill="#dadee2"><path d="M102 21h26v25h-26z"/><path d="M76 46h26v25H76z"/></g><g fill="#bdc5cb"><path d="M55 33.5L50 37v-7zm52 0l-5 3.5v-7zm-62 25l5-3.5v7zm52 0l5-3.5v7z"/><path d="M107 56.2l-5 3.5v-7z"/></g></svg>