<svg xmlns="http://www.w3.org/2000/svg" viewBox="0 0 90.6 90.6" xmlns:v="https://vecta.io/nano"><path fill="#f2f2f2" stroke="#e2e2e2" stroke-width=".562" stroke-miterlimit="10" d="M.3.3h90v90H.3z"/><path fill-rule="evenodd" fill="#666" d="M24 47.5l-1.7 1.4 1.7 8 1.6-8c-.6-.4-1.1-1-1.6-1.4zm-.1-2.2c-3.5 0-6.5-3.6-6.5-7.9-.6-1.6-.2-7.2 3.5-7.1 4.1-2.1 7.1.2 9.1 1.6.7 1.5 1.2 3.8.3 5.2.1 4.5-2.7 8.2-6.4 8.2zm0-.9c-3.1 0-5.6-3.2-5.6-7.1 0-.6.1-1.2.1-1.6.4-1.1 1.4-1.6 2.1-1 2.5 2.1 5.6 2 8.5 1.6.7-.1.6.7.5 1.4-.1 3.7-2.5 6.7-5.6 6.7zM10.7 61.1c0-3.1.1-6.1 0-9.1 0-2.5 1.2-3.1 3.1-3.7l4.9-1.8c.4-.4.8-1 1.2-1.4 1.4.5 2.9 1.2 4.2 1.7 1.4-.5 2.7-1.2 4.1-1.7.4.4.7 1 1.2 1.4l5 1.8c1.9.6 3 1.2 3 3.7v9.1H10.7zm13.5-2.9l5-11.1c.3.5.7 1.2 1.2 1.7-.6.6-1.3 1.3-1.8 1.9.4.5 1 1.1 1.5 1.6-2 1.9-3.9 3.9-5.9 5.9zm-.5 0l-4.9-11.1c-.4.5-.8 1.2-1.2 1.7.5.6 1.2 1.3 1.8 1.9l-1.6 1.6c2 1.9 4 3.9 5.9 5.9z"/><path d="M51.7 48.2h-5.9c-.7 0-1.2.6-1.2 1.2v5.9c0 .7.6 1.2 1.2 1.2h2.5v-3h-1V52h1v-1a1.54 1.54 0 0 1 1.5-1.5h1.5V51h-1.5v1h1.5l-.3 1.6h-1.2v3h2c.7 0 1.2-.6 1.2-1.2v-5.9c-.1-.8-.6-1.3-1.3-1.3zm11.6.4c-.3-.3-.7-.5-1.1-.5h-5.3c-.4 0-.8.2-1.1.5s-.5.7-.5 1.1V55c0 .4.2.8.5 1.1s.7.5 1.1.5h5.3c.4 0 .8-.2 1.1-.5s.5-.7.5-1.1v-5.3c0-.4-.2-.8-.5-1.1zm-1.5 2.8v.1c0 .3 0 .6-.1.9s-.2.6-.4.9-.4.5-.7.8c-.3.2-.6.4-.9.5-.4.1-.7.2-1.2.2-.6 0-1.2-.2-1.8-.5h.3c.5 0 1-.2 1.4-.5-.3 0-.5-.1-.7-.2-.2-.2-.3-.3-.4-.6h.2.3c-.3-.1-.5-.2-.7-.4a1.08 1.08 0 0 1-.3-.7h0c.2.1.4.1.6.1-.3-.2-.5-.5-.5-1 0-.2.1-.4.2-.6.3.4.6.6 1.1.9.4.2.9.3 1.3.4v-.3c0-.3.1-.6.3-.8s.5-.3.8-.3.6.1.8.4c.3 0 .5-.1.7-.3-.1.3-.3.5-.5.6.2 0 .5-.1.7-.2-.1.2-.3.4-.5.6zm11.5-3.3h-6c-.7 0-1.2.6-1.2 1.2v6c0 .7.6 1.2 1.2 1.2h6c.7 0 1.2-.6 1.2-1.2v-6c.1-.6-.5-1.2-1.2-1.2zm-4.2 6.7h-1v-3.5h1v3.5zm0-3.9h-1v-1h1v1zm3.5 3.9h-1v-2a.5.5 0 1 0-1 0v2h-1v-3.5h1v.2c.3-.1.4-.2.7-.2.7 0 1.2.6 1.2 1.3v2.2z" fill="#999"/><g fill="#444"><path d="M48.9 38.5h-.6c-.1 0-.1 0-.2-.1l-.1-.1-.3-.9h-1.8l-.3.9s0 .1-.1.1c0 0-.1.1-.2.1h-.6l1.7-4.5h.8l1.7 4.5zM46 36.9h1.4l-.5-1.5c0-.1-.1-.1-.1-.2s-.1-.2-.1-.3c0 .1-.1.2-.1.3s-.1.2-.1.2l-.5 1.5zm5.8 1.6h-.3-.2l-.1-.1-.1-.2c-.1.1-.2.1-.2.2-.1.1-.2.1-.2.1-.1 0-.2.1-.3.1h-.3c-.1 0-.3 0-.4-.1-.1 0-.2-.1-.3-.2s-.1-.2-.2-.3c0-.1-.1-.2-.1-.4 0-.1 0-.2.1-.4l.3-.3c.1-.1.3-.2.6-.2.2-.1.5-.1.9-.1v-.2c0-.2 0-.4-.1-.5s-.2-.2-.4-.2h-.3c-.1 0-.2.1-.2.1-.1 0-.1.1-.2.1h-.2-.1l-.1-.1-.1-.2c.4-.3.8-.5 1.3-.5a.9.9 0 0 1 .5.1c.1.1.3.1.4.3s.2.2.2.4c.1.1.1.3.1.5v2.1zm-1.5-.4h.2c.1 0 .1 0 .2-.1.1 0 .1-.1.2-.1s.1-.1.2-.1v-.5h-.6c-.1 0-.3.1-.4.1s-.2.1-.2.2-.1.1-.1.2 0 .2.1.3c.2-.1.3 0 .4 0zm2.2.4v-3.2h.5.2l.1.1v.4c.1-.2.2-.3.4-.5.2-.1.3-.2.5-.2s.3 0 .4.1l-.2.8v.1h-.1-.1-.2c-.2 0-.3 0-.4.1a1.38 1.38 0 0 0-.3.4v2h-.8zm3.9-3.2c.2 0 .4 0 .6.1s.4.2.5.3.2.3.3.5.1.4.1.7 0 .5-.1.7-.2.4-.3.5-.3.3-.5.3c-.2.1-.4.1-.6.1s-.5 0-.6-.1c-.2-.1-.4-.2-.5-.3s-.2-.3-.3-.5-.1-.4-.1-.7c0-.2 0-.5.1-.7s.2-.4.3-.5.3-.2.5-.3c.1 0 .4-.1.6-.1zm0 2.7c.3 0 .5-.1.6-.3s.2-.4.2-.8c0-.3-.1-.6-.2-.8s-.3-.3-.6-.3-.5.1-.6.3-.2.4-.2.8c0 .3.1.6.2.8s.3.3.6.3zm2.1.5v-3.2h.5c.1 0 .2 0 .2.1l.1.2.2-.2c.1-.1.1-.1.2-.1s.2-.1.3-.1h.3a.9.9 0 0 1 .5.1c.1.1.2.1.3.2s.2.2.2.4c0 .1.1.3.1.5v2h-.8v-2c0-.2 0-.3-.1-.4s-.2-.2-.4-.2c-.1 0-.3 0-.4.1s-.2.1-.3.2v2.3h-.9zm6.6-1.5c0 .3 0 .5-.1.7s-.2.4-.3.5-.3.3-.5.3c-.2.1-.4.1-.6.1h-.3c-.1 0-.2 0-.3-.1V38s0-.1.1-.1h.1.1.2c.1 0 .2 0 .3-.1.1 0 .2-.1.2-.2.1-.1.1-.2.1-.3v-.4V34h.8v3zm1.5-1.6v2c0 .2 0 .3.1.4s.2.2.4.2c.1 0 .3 0 .4-.1s.2-.1.3-.2v-2.3h.8v3.2h-.5c-.1 0-.2 0-.2-.1l-.1-.3-.2.2c-.1.1-.1.1-.2.1s-.2.1-.3.1h-.3c-.2 0-.3 0-.5-.1-.1-.1-.2-.1-.3-.2s-.2-.2-.2-.4c0-.1-.1-.3-.1-.5v-2h.9zm5.1 3.1c-.1 0-.2 0-.2-.1l-.1-.3-.2.2-.2.2c-.1 0-.2.1-.3.1h-.3c-.2 0-.3 0-.5-.1-.1-.1-.3-.2-.4-.3s-.2-.3-.2-.5c-.1-.2-.1-.4-.1-.7 0-.2 0-.5.1-.7s.2-.4.3-.5.3-.3.4-.3c.2-.1.4-.1.6-.1a.9.9 0 0 1 .5.1c.1.1.2.1.3.2V34h.8v4.6h-.5zm-1.1-.5c.2 0 .3 0 .4-.1l.3-.3v-1.4c-.1-.1-.2-.2-.3-.2s-.2-.1-.3-.1-.2 0-.3.1c-.1 0-.2.1-.2.2-.1.1-.1.2-.1.3s-.1.3-.1.5v.5c0 .1.1.2.1.3l.2.2h.3z"/><path d="M74 35.3h.4c.1 0 .2.1.3.1h.9v.3.1s-.1 0-.1.1l-.3.1v.2.2c0 .2 0 .3-.1.4s-.1.2-.3.3-.2.2-.4.2-.3.1-.5.1h-.3c-.1.1-.1.1-.1.2s0 .1.1.1.1.1.2.1h.3.4c.1 0 .3 0 .4.1.1 0 .2.1.3.1.1.1.2.1.2.2.1.1.1.2.1.4 0 .1 0 .3-.1.4s-.2.2-.3.4c-.1.1-.3.2-.5.2-.2.1-.4.1-.6.1s-.4 0-.6-.1c-.2 0-.3-.1-.4-.2l-.3-.3c-.1-.1-.1-.2-.1-.3s0-.3.1-.4.2-.2.4-.2c-.1 0-.1-.1-.2-.2 0-.1-.1-.2-.1-.3v-.1s0-.1.1-.1l.1-.1c.1 0 .1-.1.2-.1-.2-.1-.3-.2-.4-.3s-.1-.3-.1-.5 0-.3.1-.4.1-.2.3-.3c.1-.1.2-.2.4-.2.2-.2.4-.3.5-.3zm.9 3.4c0-.1 0-.1-.1-.2 0 0-.1-.1-.2-.1h-.2-.3-.3-.3c-.1 0-.2.1-.2.2-.1.1-.1.1-.1.2v.2l.1.1c.1 0 .1.1.2.1h.4.4c.1 0 .2-.1.3-.1s.1-.1.1-.1c.2-.2.2-.3.2-.3zm-.9-1.8h.2c.1 0 .1-.1.2-.1 0 0 .1-.1.1-.2v-.2c0-.2 0-.3-.1-.4s-.2-.1-.4-.1-.3 0-.4.1-.1.2-.1.4v.2c0 .1.1.1.1.2 0 0 .1.1.2.1h.2zm3.4-1.6c.2 0 .4 0 .5.1.2.1.3.2.4.3s.2.3.3.4c.1.2.1.4.1.6v.1.1h-.1-.1-2c0 .3.1.6.3.7.2.2.4.2.6.2h.3c.1 0 .2-.1.2-.1.1 0 .1-.1.2-.1h.1.1l.1.1.2.3c-.1.1-.2.2-.3.2-.1.1-.2.1-.3.2-.1 0-.2.1-.3.1h-.3c-.2 0-.4 0-.6-.1s-.4-.2-.5-.3-.2-.3-.3-.5-.1-.5-.1-.7 0-.4.1-.6.2-.4.3-.5.3-.3.5-.3c.2-.1.4-.2.6-.2zm.1.6c-.2 0-.4.1-.5.2s-.2.3-.2.5h1.4v-.3c0-.1-.1-.2-.1-.2l-.2-.2h-.4z"/></g><path d="M46.7 43.7h0l.3.3c-.1.2-.3.3-.4.3-.2.1-.4.1-.6.1s-.4 0-.6-.1-.3-.2-.5-.3c-.1-.1-.2-.3-.3-.5s-.1-.4-.1-.6v-.4c0-.1.1-.3.1-.4.1-.1.1-.2.2-.3s.2-.2.3-.2c.1-.1.2-.1.4-.1.1 0 .3-.1.4-.1h.3c.1 0 .2 0 .3.1.1 0 .2.1.2.1.1 0 .1.1.2.2l-.2.3h-.1-.1s-.1 0-.1-.1c0 0-.1-.1-.2-.1h-.3c-.1 0-.2 0-.3.1-.1 0-.2.1-.3.2s-.1.2-.2.3c0 .1-.1.3-.1.4 0 .2 0 .3.1.4 0 .1.1.2.2.3s.2.2.3.2.2.1.3.1h.2.2s.1 0 .1-.1l.1-.1c.2.1.2 0 .2 0zM48 42v.8h1v.5h-1v.7h1.3v.5h-1.9v-3h1.9v.5H48zm4.6 1c0 .2 0 .4-.1.6s-.2.3-.3.5-.3.2-.5.3-.4.1-.6.1-.4 0-.6-.1-.3-.2-.5-.3c-.1-.1-.2-.3-.3-.5s-.1-.4-.1-.6 0-.4.1-.6.2-.3.3-.5c.1-.1.3-.2.5-.3s.4-.1.6-.1.4 0 .6.1.3.2.5.3c.1.1.2.3.3.5s.1.4.1.6zm-.6 0c0-.2 0-.3-.1-.4 0-.1-.1-.2-.2-.3s-.2-.2-.3-.2-.2-.1-.4-.1-.3 0-.4.1c-.1 0-.2.1-.3.2s-.1.2-.2.3c0 .1-.1.3-.1.4 0 .2 0 .3.1.4 0 .1.1.2.2.3s.2.2.3.2.2.1.4.1.3 0 .4-.1.2-.1.3-.2.1-.2.2-.3c0-.1.1-.3.1-.4z" fill="#222"/></svg>