<svg xmlns="http://www.w3.org/2000/svg" width="1200" height="1200" xmlns:v="https://vecta.io/nano"><g transform="matrix(.69 0 0 .69 186 186)" fill="#63a37b"><svg viewBox="0 0 100 100" width="300" height="150"><path d="M43.6 64.5l-.1.4-6.7 2c-1.9.6-4.1 6.2-5.8 15 5.7 3.4 12.3 5.2 19 5.2.8 0 1.7 0 2.5-.1 5.8-.4 11.6-2.1 16.6-5.1-1.7-8.7-3.9-14.5-5.8-15l-6.7-2-.1-.4c-.1-.3-.3-.6-.7-.8l-.8-.5.5-.6c.6-.6 1-1.2 1.2-1.6.8-1.1 1.4-2.3 1.8-3.5l.6-1.5.1-.2.2-.1c.5-.4.7-.9.7-1.5v-2a1.92 1.92 0 0 0-.4-1.2l-.1-.2v-3a8.24 8.24 0 0 0-8.2-8.2h-2.9a8.24 8.24 0 0 0-8.2 8.2v3l-.1.2c-.2.3-.4.8-.4 1.2v2c0 .6.3 1.2.7 1.5l.2.1.1.2c.1.5.3 1 .5 1.4.5 1.2 1.1 2.4 1.9 3.5.4.6.8 1.1 1.2 1.6l.5.6-.7.5c-.2.4-.5.6-.6.9zm-16 15.2c.2-1.1.5-2.2.8-3.4 2.5-10.3 5.1-12.3 7.3-13l3.8-1.1c-.6-1-1.2-2.1-1.6-3.2-.1-.3-.3-.7-.4-1l-4.1-1.2-.1-.4c-.1-.3-.3-.6-.7-.8l-.7-.6.5-.6c.4-.5.8-1 1.2-1.6.8-1.1 1.4-2.3 1.8-3.4l.6-1.5.1-.2.2-.1c.5-.4.7-.9.7-1.5v-2a1.92 1.92 0 0 0-.4-1.2l-.1-.2v-3a8.24 8.24 0 0 0-8.2-8.2h-2.9a8.24 8.24 0 0 0-8.2 8.2v3l-.1.2c-.2.3-.4.8-.4 1.2v2c0 .6.3 1.2.7 1.5l.2.1.1.2c.1.5.3 1 .6 1.4.5 1.2 1.1 2.4 1.9 3.5.4.6.8 1.1 1.2 1.6l.5.6-.7.5c-.4.3-.6.5-.7.8l-.1.4-6.7 2h-.1c2.1 8.4 7.1 15.8 14 21zm46.9-48.3h-2.9a8.24 8.24 0 0 0-8.2 8.2v3l-.1.2c-.2.4-.3.8-.3 1.2v2c0 .6.3 1.2.7 1.5l.2.1.1.2c.2.5.3 1 .5 1.4.5 1.2 1.1 2.4 1.9 3.5l1.2 1.6.5.6-.7.5c-.4.3-.6.5-.7.8l-.1.4-4.1 1.2c-.1.4-.3.7-.4 1.1-.4 1-1 2.1-1.6 3.2l3.8 1.1c2.2.6 4.8 2.7 7.3 12.8.3 1.2.6 2.4.8 3.6 2.1-1.6 4.1-3.4 5.8-5.4 3.9-4.5 6.8-9.9 8.2-15.6h-.1l-6.7-2-.1-.4c-.1-.3-.3-.6-.7-.8l-.7-.4.6-.6c.4-.5.8-1 1.2-1.6.8-1.1 1.4-2.3 1.8-3.4l.6-1.5.1-.2.2-.1c.5-.4.7-.9.7-1.5v-2a1.92 1.92 0 0 0-.4-1.2l-.1-.2v-3c-.1-4.6-3.7-8.3-8.3-8.3zM25.1 17.5l-3.1-.1C29.8 10.7 39.7 7 50 7s20.2 3.7 28 10.4l-3.1.1 1.9 1.8 4.4-.2-.2-4.3-1.9-1.8.1 3.1C71.1 9 60.8 5.2 50 5.2S28.9 9 20.8 16l.1-3.1-1.9 1.9-.2 4.4 4.4.2 1.9-1.9zm65.3 12.6l-2.2 1.1c2.9 5.9 4.4 12.2 4.4 18.7 0 23.5-19.1 42.6-42.6 42.6S7.4 73.4 7.4 49.9c0-6.5 1.5-12.8 4.4-18.7l-2.2-1.1A44.13 44.13 0 0 0 5 49.8c0 24.8 20.2 45 45 45s45-20.2 45-45a44.13 44.13 0 0 0-4.6-19.7z"/></svg></g></svg>