<svg xmlns="http://www.w3.org/2000/svg" height="300" width="300" fill="#4dab80" viewBox="0 0 100 100"  xmlns:v="https://vecta.io/nano"><path d="M6.9 29.9c.9 1.1 1.4 4.4 1.6 5.3.5 3.2 1.1 7.8 1.2 11v.7c.1 1.4.4 2.7 1 4 3.3 7.1 9.8 16 9.8 16l.4.5c.3.4.8.5 1.2.3.5-.3.6-.9.4-1.3l-8.7-14.1c-.9-1.6-.4-3.8 1.3-4.8S19 47 20 48.6l9 11.6c.6.8 1.7 1.8 2.5 2.4 8.1 5.8 9.2 11.8 9.9 14.8 0 0 .1.7.1 1.7h0c0 .8 0 1.8-.2 2.8l-.5 9.7c0 .7-.6 1.3-1.3 1.3l-15.2-.1c-.7 0-1.3-.6-1.3-1.3l-.3-8L8.1 66c-2.1-2.3-3.6-4.8-4-7.9l-.1-.9-2.6-24.4c-.1-1.2.3-2.4 1.2-3.2 1.2-.9 3-1.2 4.3.3zm3.7 1.7c.3.9.4 1.7.6 2.6.5 2.8 1.1 7.8 1.2 10.4v.8c.3-.3.6-.5 1-.7.4-.3.9-.5 1.4-.6 0 0 0-.1.1-.1-.3-2.5-1.2-7.3-1.9-9.8-.5-1.3-1.2-2.2-2.4-2.6zm4.8 3.5c.4 1.8 1.4 5.2 1.7 7l.2 1.2v.3c.7 0 1.5.2 2.2.4-.2-1.6-1.3-4.9-1.7-6.4-.4-1.2-1.2-2.1-2.4-2.5zm77.7-5.2c-.9 1.1-1.4 4.4-1.6 5.3-.5 3.2-1.1 7.8-1.2 11v.7c-.1 1.4-.4 2.7-1 4-3.3 7.1-9.8 16-9.8 16l-.4.5c-.3.4-.8.5-1.2.3-.5-.3-.6-.9-.4-1.3l8.7-14.1c.9-1.6.4-3.8-1.3-4.8S81 47 80 48.6l-9 11.6c-.6.8-1.7 1.8-2.5 2.4-8.1 5.8-9.2 11.8-9.9 14.8 0 0-.1.7-.1 1.7h0c0 .8 0 1.8.2 2.8l.5 9.7c0 .7.6 1.3 1.3 1.3l15.2-.1c.7 0 1.3-.6 1.3-1.3l.3-8L91.9 66c2.1-2.3 3.6-4.8 4-7.9l.1-.9 2.5-24.5c.1-1.2-.3-2.4-1.2-3.2-1.1-.8-2.9-1.1-4.2.4zM85.3 44c.5.2.9.4 1.4.6.4.2.7.5 1 .7v-.8c.1-2.6.7-7.6 1.2-10.4.1-.8.3-1.7.6-2.6-1.3.4-2 1.3-2.3 2.6-.7 2.5-1.6 7.3-1.9 9.9 0-.1 0 0 0 0zm-4.7 0c.7-.3 1.4-.4 2.2-.4v-.3l.2-1.2c.2-1.8 1.3-5.1 1.7-7-1.2.4-1.9 1.3-2.3 2.5-.5 1.5-1.6 4.8-1.8 6.4zm-10-5.9c-.6 2.8-1.7 5.4-3.2 7.7l2.8 2.8a1.75 1.75 0 0 1 0 2.5l-3.4 3.4a1.75 1.75 0 0 1-2.5 0l-2.8-2.8c-2.3 1.5-4.9 2.6-7.7 3.2v4a1.79 1.79 0 0 1-1.8 1.8h-4.8a1.79 1.79 0 0 1-1.8-1.8v-4c-2.8-.6-5.4-1.7-7.7-3.2l-2.8 2.8a1.75 1.75 0 0 1-2.5 0L29 51.1a1.75 1.75 0 0 1 0-2.5l2.8-2.8c-1.5-2.3-2.6-4.9-3.2-7.7h-4a1.79 1.79 0 0 1-1.8-1.8v-4.8a1.79 1.79 0 0 1 1.8-1.8h4c.6-2.8 1.7-5.4 3.2-7.7L29 19.2a1.75 1.75 0 0 1 0-2.5l3.4-3.4a1.75 1.75 0 0 1 2.5 0l2.8 2.8c2.3-1.5 4.9-2.6 7.7-3.2v-4a1.79 1.79 0 0 1 1.8-1.8H52a1.79 1.79 0 0 1 1.8 1.8v4c2.8.6 5.4 1.7 7.7 3.2l2.8-2.8a1.75 1.75 0 0 1 2.5 0l3.4 3.4a1.75 1.75 0 0 1 0 2.5L67.4 22c1.5 2.3 2.6 4.9 3.2 7.7h4a1.79 1.79 0 0 1 1.8 1.8v4.8a1.79 1.79 0 0 1-1.8 1.8h-4zm-8.9-4.2a12.08 12.08 0 1 0-24.2 0 12.08 12.08 0 1 0 24.2 0zm-12.1-6.7c-3.7 0-6.6 3-6.6 6.6 0 3.7 3 6.6 6.6 6.6 3.7 0 6.6-3 6.6-6.6s-3-6.6-6.6-6.6z"/></svg>