<svg xmlns="http://www.w3.org/2000/svg" height="300" width="300" fill="#4dab80" viewBox="0 0 100 100"  xmlns:v="https://vecta.io/nano"><path d="M25 27.5v60a2.5 2.5 0 0 0 2.5 2.5h60a2.5 2.5 0 0 0 2.5-2.5v-60a2.5 2.5 0 0 0-2.5-2.5h-60a2.5 2.5 0 0 0-2.5 2.5zm5 2.5h55v55H30V30zm42.5-15h-55a2.5 2.5 0 0 0-2.5 2.5v55a2.5 2.5 0 1 0 5 0V20h52.5a2.5 2.5 0 1 0 0-5zm-65 50a2.5 2.5 0 0 0 2.5-2.5V10h52.5a2.5 2.5 0 1 0 0-5h-55A2.5 2.5 0 0 0 5 7.5v55A2.5 2.5 0 0 0 7.5 65zm66.768-14.268a2.5 2.5 0 0 0-3.535 3.535l.732.733H60V43.535l.732.732A2.49 2.49 0 0 0 62.5 45c.64 0 1.28-.244 1.768-.732a2.5 2.5 0 0 0 0-3.535l-5-5a2.5 2.5 0 0 0-3.535 0l-5 5a2.5 2.5 0 0 0 3.535 3.535l.732-.733V55H43.535l.732-.732a2.5 2.5 0 0 0-3.535-3.535l-5 5a2.5 2.5 0 0 0 0 3.535l5 5c.488.488 1.128.732 1.768.732s1.28-.244 1.768-.732a2.5 2.5 0 0 0 0-3.535L43.535 60H55v11.465l-.732-.732a2.5 2.5 0 0 0-3.535 3.535l5 5A2.49 2.49 0 0 0 57.5 80c.64 0 1.28-.244 1.768-.732l5-5a2.5 2.5 0 0 0-3.535-3.535l-.733.732V60h11.465l-.732.732a2.5 2.5 0 0 0 0 3.535c.487.489 1.127.733 1.767.733s1.28-.244 1.768-.732l5-5a2.5 2.5 0 0 0 0-3.535l-5-5.001z"/></svg>