<svg xmlns="http://www.w3.org/2000/svg" height="300" width="300" fill="#4dab80" viewBox="0 0 32 32"  xmlns:v="https://vecta.io/nano"><path d="M.986 28h30.017c.545 0 .991-.446.991-.991V4.991c.001-.545-.445-.991-.991-.991H.986c-.545 0-.991.446-.991.991v22.017c0 .546.446.992.991.992zM1.995 6h28v20h-28V6z"/><circle cx="4.995" cy="8.003" r="1"/><circle cx="8.016" cy="8.003" r="1"/><circle cx="11.037" cy="8.003" r="1"/><path d="M3.995 10h24v2h-24z"/><circle cx="11.657" cy="16.304" r="2.312"/><path d="M6.97 21.335v2.656h4.578l-2.234-4.844c-.001.001-2.344.032-2.344 2.188zm7.031-2.187l-2.234 4.844c-.016 0 4.578 0 4.578 0v-2.656c0-2.156-2.344-2.188-2.344-2.188zm-2.344 0h-1.609l1.609 3.562 1.609-3.562zm6.661 1.456h6.712v1h-6.712zm0-5.214h6.712v1h-6.712zm0 2.685h6.712v1h-6.712z"/></svg>