<svg xmlns="http://www.w3.org/2000/svg" height="300" width="300" fill="#4dab80" viewBox="0 0 100 100"  xmlns:v="https://vecta.io/nano"><path d="M94.7 34.5H82.6l-2-14.3c-.2-1.5-1.6-2.6-3.1-2.4l-11.9 1.7-4-13.8c-.4-1.5-2-2.3-3.4-1.9L4.5 19.1c-1.5.4-2.3 2-1.9 3.5l15.5 54.1c.2.7.7 1.3 1.3 1.7.4.2.9.4 1.4.4.3 0 .5 0 .8-.1l5.1-1.4 1 7.3c.1.7.5 1.4 1.1 1.8.5.4 1.1.6 1.7.6h.4l5.3-.7v7.5c0 1.5 1.2 2.8 2.8 2.8h55.8c1.5 0 2.8-1.2 2.8-2.8V37.3c-.1-1.6-1.3-2.8-2.9-2.8zM19.4 61L8.7 23.7 57 9.9l3 10.4-37.8 5.3c-.7.1-1.4.5-1.8 1.1s-.6 1.3-.5 2.1l4.3 30.9-4.8 1.3zm11.7 8.1l-5.4-38.4 49.8-7L77 34.5H38.9c-1.5 0-2.8 1.2-2.8 2.8v31.1l-5 .7zm60.8 9.7H41.7V40H92v38.8zm-42.7-5.6h35c.9 0 1.5-1.1.9-1.8l-8.7-12.2c-.4-.6-1.2-.7-1.7-.2l-3.1 3c-.5.5-1.3.4-1.7-.1l-7.5-10.1c-.5-.7-1.5-.6-1.9.1L48.2 71.5a1.16 1.16 0 0 0 1 1.7z"/><circle cx="78.2" cy="49.9" r="4.3"/></svg>