<svg xmlns="http://www.w3.org/2000/svg" height="300" width="300" fill="#4dab80" viewBox="0 0 100 100"  xmlns:v="https://vecta.io/nano"><path d="M84.52 13.88H17.8a8.23 8.23 0 1 0 0 16.45h66.72a8.23 8.23 0 0 0 0-16.45zm0 10.45H56.1a3 3 0 0 0 0-4.45h28.42a2.23 2.23 0 0 1 0 4.45zm0 44.67H17.8a8.23 8.23 0 0 0 0 16.45h66.72a8.23 8.23 0 0 0 0-16.45zm0 10.45H71.1a3 3 0 0 0 0-4.45h13.42a2.23 2.23 0 0 1 0 4.45zm0-38.01H17.8a8.23 8.23 0 0 0 0 16.45h66.72a8.23 8.23 0 0 0 0-16.45zm0 10.45H39.1a3 3 0 0 0 0-4.45h45.42a2.23 2.23 0 0 1 0 4.45z"/></svg>