<svg xmlns="http://www.w3.org/2000/svg" xmlns:xlink="http://www.w3.org/1999/xlink" viewBox="0 0 1273 1163.4" xmlns:v="https://vecta.io/nano"><style><![CDATA[.s{fill:#fff}.t{fill:#1d1d1b}.u{fill:#747475}.v{fill:#ffc0bb}.w{fill:#ffc6a2}.x{fill:#b1d9e3}.y{fill:#473b1e}.z{fill:#cea28b}.AA{fill:#b2b2b2}.AB{fill:#636363}.AC{fill:#f99893}.AD{fill:#7f3d26}.AE{fill:#303040}.AF{fill:#c99e7b}.AG{fill:#2a333c}.AH{fill:#555557}.AI{fill:#b4b4b5}.AJ{fill:#b58e6f}.AK{fill:#878787}.AL{fill:#5d5d5e}.AM{fill:#c0c0c2}.AN{fill:#002a24}]]></style><linearGradient id="A" gradientUnits="userSpaceOnUse" x1="1088.728" y1="59.335" x2="1101.173" y2="21.521"><stop offset="0" stop-color="#fb9a2b"/><stop offset="1" stop-color="#e65925"/></linearGradient><path fill="url(#A)" d="M1077.1 20.2l-.2 21.2 13.5-12.6L1132.8.1l-34.7 7.5s-17.3 6.5-18.2 7.5c-.8 1-2.8 5.1-2.8 5.1z"/><linearGradient id="B" gradientUnits="userSpaceOnUse" x1="1132.94" y1="-29.64" x2="1068.163" y2="31.308"><stop offset="0" stop-color="#fb9a2b"/><stop offset="1" stop-color="#e65925"/></linearGradient><path fill="url(#B)" d="M1060 9.5l72.7-9.5-55.7 20.2-17-10.7z"/><linearGradient id="C" gradientUnits="userSpaceOnUse" x1="1144.63" y1="-17.216" x2="1079.852" y2="43.732"><stop offset="0" stop-color="#fb9a2b"/><stop offset="1" stop-color="#e65925"/></linearGradient><path fill="url(#C)" d="M1103.1 38.3l-21-13L1132.8 0l-29.7 38.3z"/><linearGradient id="D" gradientUnits="userSpaceOnUse" x1="984.765" y1="84.333" x2="1053.129" y2="84.333"><stop offset="0" stop-color="#fb9a2b"/><stop offset="1" stop-color="#e65925"/></linearGradient><path fill="url(#D)" d="M986.1 120.3l1.7-.4c.8 3.9 1.9 7.4 3.3 10.4l-1.6.7c-1.4-3.1-2.5-6.7-3.4-10.7zm-1.3-12.7c0-1.7.1-3.4.3-5.1.2-1.6.5-3.1.8-4.7l1.7.4c-.3 1.5-.6 3-.8 4.5a40.28 40.28 0 0 0-.3 4.9v1.4l-1.7.1v-1.5zm4.8-20.6c1.5-3.3 3.4-6.6 5.6-9.8l1.4 1c-2.1 3.1-4 6.3-5.4 9.6l-1.6-.8zm53.9-10.1l-.3-.2.8-1.6c.1.1.2.1.3.1 0 0 .1 0 .2.1.9.1 3.4-.2 4.7-1.2 1.1-.8 1.9-2 2.4-3.5l1.6.6c-.6 1.8-1.6 3.3-3 4.3-1.8 1.4-4.7 1.7-5.9 1.5-.4.1-.6 0-.8-.1zm-41.4-8.5c2.5-2.7 5.2-5.3 8.1-7.8l1.1 1.3c-2.9 2.4-5.5 5-8 7.6l-1.2-1.1zm32.9-4c-.2-1.7-.2-3.3 0-5.1.1-.9.3-1.9.5-2.9l1.7.4c-.2.9-.4 1.8-.5 2.7-.2 1.6-.2 3.2 0 4.7.2 1 .4 2.1.7 3.2l-1.6.6c-.4-1.3-.6-2.4-.8-3.6zm7.2-9.8l-.2-.1.5-1.6.3.1c3.8 1.3 7 3.8 9 6.8l-1.5.9c-1.8-2.7-4.7-4.9-8.1-6.1h0zm-22.1.4c1.8-.8 5.2-2.2 7-2.6 1.4-.3 2.7-.4 4-.5l.2 1.7c-1.2.1-2.5.3-3.8.5-1.2.2-3.6 1.1-6.6 2.4l-.8-1.5zm20.1-9a38.31 38.31 0 0 1 7.6-8.5l1.1 1.4c-2.8 2.3-5.3 5.1-7.3 8.1l-1.4-1z"/><linearGradient id="E" gradientUnits="userSpaceOnUse" x1="1057.545" y1="31.625" x2="1063.494" y2="31.625"><stop offset="0" stop-color="#fb9a2b"/><stop offset="1" stop-color="#e65925"/></linearGradient><path fill="url(#E)" d="M1058.2 33.3c1.7-.7 3.5-1.3 5.3-1.7l-.4-1.7a28.11 28.11 0 0 0-5.6 1.8l.7 1.6z"/><linearGradient id="F" gradientUnits="userSpaceOnUse" x1="1001.865" y1="1139.346" x2="1186.065" y2="1139.346"><stop offset="0" stop-color="#53cd9f"/><stop offset="1" stop-color="#0d7a5c"/></linearGradient><ellipse fill="url(#F)" cx="1094" cy="1139.3" rx="92.1" ry="24.1"/><use xlink:href="#AI" href="#G" class="x"/><defs><path id="G" d="M1228.8 684.7c-1.5 11.9-12.5 20.3-24.6 18.8l-227.7-29.2c-12-1.5-20.6-12.4-19-24.4l28.9-225.3c1.5-11.9 12.5-20.3 24.6-18.8l227.7 29.2c12 1.5 20.6 12.4 19 24.4l-28.9 225.3z"/><path id="H" d="M1080.2 811c-.1.5-.5.9-1.1.8-.5-.1-.9-.5-.8-1.1.1-.5.5-.9 1.1-.8.5.1.8.6.8 1.1z"/><path id="I" d="M1123.8 723.5c-.2 1.3.6 2.6 1.9 2.8s2.6-.6 2.8-1.9-.6-2.6-1.9-2.8-2.6.6-2.8 1.9z"/><path id="J" d="M299.2 798.6c-.1.5-.6.8-1.1.7s-.8-.6-.7-1.1.6-.8 1.1-.7.8.6.7 1.1z"/><path id="K" d="M292.8 859.2c-.6 2.6-3.3 4.3-5.9 3.6-2.6-.6-4.3-3.3-3.6-5.9.6-2.6 3.3-4.3 5.9-3.6 2.6.6 4.2 3.3 3.6 5.9z"/><path id="L" d="M287.3 857.9c-.1.5-.6.8-1.1.7s-.8-.6-.7-1.1.6-.8 1.1-.7c.6.1.9.6.7 1.1z"/><path id="M" d="M133.9 471.3c.1 1.3-.8 2.4-2.1 2.5s-2.4-.8-2.6-2.1c-.1-1.3.8-2.4 2.1-2.5s2.5.9 2.6 2.1z"/><path id="N" d="M653.3 342.7l-48.9-9.1 9-48.7c1.6-8.4 7.3-15.4 15.3-18.6l65.2-25.8c5.8-2.3 12.3-2.3 18.2 0l64.4 25.1a24.83 24.83 0 0 1 15.4 18.9l8.6 49.4-49 8.6-6.2-35.6-42.3-16.5-43.3 17.2-6.4 35.1z"/><path id="O" d="M702.6 267.4c-11.4 0-20.7-9.3-20.7-20.7v-55.5c0-11.4 9.3-20.7 20.7-20.7s20.7 9.3 20.7 20.7v55.5c0 11.5-9.3 20.7-20.7 20.7z"/><path id="P" d="M733.5 186.7c0 26.8-13.8 53-30.9 53s-30.9-26.2-30.9-53 13.8-43.9 30.9-43.9 30.9 17.1 30.9 43.9z"/><path id="Q" d="M712.3 574.3c-1.3 1.2-2.9 1.9-4.6 2.4s-3.4.7-5.1.7-3.5-.3-5.1-.8c-1.7-.5-3.2-1.3-4.6-2.4 1.8-.1 3.4 0 5 0l4.7.1h9.7z"/></defs><clipPath id="R"><use xlink:href="#G"/></clipPath><use xlink:href="#AI" clip-path="url(#R)" href="#G" class="x"/><defs><path id="S" d="M1228.8 684.7c-1.5 11.9-12.5 20.3-24.6 18.8l-227.7-29.2c-12-1.5-20.6-12.4-19-24.4l28.9-225.3c1.5-11.9 12.5-20.3 24.6-18.8l227.7 29.2c12 1.5 20.6 12.4 19 24.4l-28.9 225.3z"/></defs><clipPath id="T"><use xlink:href="#S"/></clipPath><g clip-path="url(#T)"><path fill="#272d33" d="M887.6 1299.6c1.8 1.2 7.4 4.6 13.2 5 3.4.3 32.5-1.6 43.4-4.7 1.1-.2 5.9-4.6 10.3-8.1l2.5-1.9.1-.1c.7-.5 1.3-1 1.9-1.3.5-.4 1.1-.7 1.5-.9.2-.1.3-.2.4-.2l24.7-8.9c.3-3 .4-6.4-.2-7.4.3-1.3.4-5.3.5-9.4.1-4.4 0-9-.2-10.7-.2-1.6-6.5-4.9-10.6-5.9-5.4-1.3-18.8 7.8-31.1 3.5-1.4 1.2-4.5 4.1-8.2 7.7-.6.6-1.2 1.2-1.9 1.8l-13.2 13-3.7 3.6c-2.3 2.2-24 11.6-27.2 15.7-1.3 1.7-1.8 6.5-2.2 9.2h0z"/><path d="M984.7 1283.4c.2-.5.5-1.9.7-3.6l-24.4 8.9c1.4 1.2 3.3 2.5 3.3 2.5s19.7-6.3 20.4-7.8z" class="t"/><path d="M887.6 1299.6c0 .4-.1.8-.1 1.1-.3 2.2 3.7 4.8 10.9 6.1 7.1 1.3 41.1-2 46.4-4 4.6-1.7 8-8.5 13.6-12.5.2-.1.4-.3.6-.4.1-.1.2-.1.2-.2h.1c.2-.1.5-.3.7-.4.1-.1.2-.1.3-.2.2-.1.5-.3.8-.4l24.4-8.9c.1-.4.1-.9.2-1.3l-24.7 8.9c-.5.2-1.2.6-1.9 1.1-4.9 3.1-13.3 11.2-14.8 11.4-10.9 3.1-40 5-43.4 4.7-5.9-.4-11.5-3.8-13.3-5h0z"/><linearGradient id="U" gradientUnits="userSpaceOnUse" x1="975.085" y1="1287.715" x2="942.158" y2="1250.756"><stop offset="0" stop-color="#272d33"/><stop offset=".123" stop-color="#2b3239"/><stop offset=".386" stop-color="#313840"/><stop offset=".78" stop-color="#39424a"/><stop offset=".825" stop-color="#384048"/><stop offset=".841" stop-color="#323a41"/><stop offset=".853" stop-color="#292f36"/><stop offset=".854" stop-color="#272d33"/></linearGradient><path fill="url(#U)" d="M923.9 1268.2c.7.9 2.4 2.8 4.5 4.6 2.4 2.1 5.3 4.2 7.9 4.4 19.7-1.7 23.5 10.9 24.3 10.5.2-.1.3-.2.4-.2l24.7-8.9c.3-3 .4-6.4-.2-7.4.3-1.3.4-5.3.5-9.4l-44.1-4.6-5.3-.6s-1 .6-2.5 1.6l-10.2 10z"/><linearGradient id="V" gradientUnits="userSpaceOnUse" x1="936.725" y1="1265.281" x2="931.915" y2="1259.883"><stop offset=".154" stop-color="#313840"/><stop offset=".192" stop-color="#323942"/><stop offset=".508" stop-color="#37404a"/><stop offset="1" stop-color="#39424d"/></linearGradient><path fill="url(#V)" d="M923.9 1268.2c.7.9 2.4 2.8 4.5 4.6 4.4-4 17.2-15.1 17.2-15.1l-3.7-.5-5.3-.6s-1 .6-2.5 1.6l-10.2 10z"/><g class="s"><path d="M931.6 1264.9c-.1.5.3.9.8 1s.9-.3 1-.8-.3-.9-.8-1-.9.3-1 .8zm4.9-3.7c-.1.5.3.9.7 1 .5.1.9-.3 1-.7.1-.5-.3-.9-.7-1-.5-.1-.9.2-1 .7zm-9.3 7.2c-.1.5.3.9.7 1 .5.1.9-.3 1-.7.1-.5-.3-.9-.7-1-.6-.1-1 .2-1 .7zm16.4-2.1c-.1.5.3.9.7 1 .5.1.9-.3 1-.7.1-.5-.3-.9-.7-1-.6-.1-1 .2-1 .7zm-4.9 3.7c-.1.5.3.9.8 1s.9-.3 1-.8-.3-.9-.8-1-.9.3-1 .8zm-4.5 3.5c-.1.5.3.9.7 1 .5.1.9-.3 1-.7.1-.5-.3-.9-.7-1-.5-.1-.9.2-1 .7z"/></g><path d="M944.2 1266.8c.2.1.5.1.6-.1h0c.2-.2.1-.5-.1-.6l-7.2-5.1c-.2-.1-.5-.1-.6.1h0c-.1.2-.1.5.1.6l7.2 5.1zm-4.9 3.7c.2.1.5.1.7-.1h0c.2-.2.1-.5-.1-.7l-7.2-5.1c-.2-.1-.5-.1-.7.1h0c-.2.2-.1.5.1.7l7.2 5.1zm-4.5 3.5c.2.1.5.1.6-.1h0c.2-.2.1-.5-.1-.7l-7.2-5.1c-.2-.1-.5-.1-.6.1h0c-.2.2-.1.5.1.7l7.2 5.1z" class="t"/><path fill="#272d33" d="M1131.7 1331.5c-2 .7-8.3 2.6-14 1.5-3.4-.6-31-9.7-40.8-15.5-1-.5-4.6-5.9-8-10.5l-1.9-2.5-.1-.1c-.5-.7-1-1.3-1.5-1.8-.4-.5-.9-.9-1.2-1.2-.2-.1-.3-.2-.4-.3l-21.6-14.8c.5-3 1.2-6.3 2-7.1.1-1.3.9-5.2 1.9-9.3 1-4.3 2.2-8.7 2.9-10.3.6-1.5 7.6-3.1 11.7-3 5.5.1 16.3 12.3 29.2 11.2 1 1.5 3.3 5.1 6 9.5.4.7.9 1.5 1.3 2.2l12.2 20.4c1.6 2.7 20.3 17.3 22.4 22 .9 2.1.2 6.9-.1 9.6h0z"/><path d="M1041.8 1291.4c-.1-.5 0-2 .2-3.6l21.3 14.7-3.8 1.6s-17.4-11.1-17.7-12.7z" class="t"/><path d="M1131.7 1331.5c-.1.4-.1.8-.1 1.1-.3 2.2-4.8 3.7-12.1 3.2-7.2-.6-39.3-12.3-43.9-15.5-4-2.8-5.6-10.2-10-15.5-.2-.2-.3-.4-.5-.5-.1-.1-.1-.2-.2-.2l-1.5-1.5-21.3-14.7c.1-.4.1-.9.2-1.3l21.6 14.8c.5.3 1 .9 1.6 1.5 3.9 4.3 10.1 14.2 11.4 14.8 9.8 5.7 37.4 14.9 40.8 15.5 5.7.9 12-1 14-1.7h0z"/><linearGradient id="W" gradientUnits="userSpaceOnUse" x1="1049.831" y1="1298.099" x2="1091.04" y2="1270.619"><stop offset=".154" stop-color="#313840"/><stop offset=".192" stop-color="#323942"/><stop offset=".508" stop-color="#37404a"/><stop offset="1" stop-color="#39424d"/></linearGradient><path fill="url(#W)" d="M1104.6 1291.9c-.9.7-3 2.1-5.5 3.3-2.9 1.4-6.2 2.7-8.7 2.3-18.6-6.6-25.5 4.6-26.1 4.1-.2-.1-.3-.2-.4-.3l-21.6-14.8c.5-3 1.2-6.3 2-7.1.1-1.3.9-5.2 1.9-9.3l49.1 7.5c.7.7 1.3 1.4 2 2.1l7.3 12.2z"/><linearGradient id="X" gradientUnits="userSpaceOnUse" x1="1092.578" y1="1286.014" x2="1098.591" y2="1282.004"><stop offset=".154" stop-color="#313840"/><stop offset=".192" stop-color="#323942"/><stop offset=".508" stop-color="#37404a"/><stop offset="1" stop-color="#39424d"/></linearGradient><path fill="url(#X)" d="M1104.6 1291.9c-.9.7-3 2.1-5.5 3.3-3.2-5-12.8-19-12.8-19l3.7.5 5.3.8c.7.7 1.3 1.4 2 2.1l7.3 12.3z"/><path d="M1097.9 1286.7c-.1.5-.5.8-1 .8-.5-.1-.8-.5-.8-1 .1-.5.5-.8 1-.8.5.1.8.6.8 1zm-3.8-4.7c-.1.5-.5.8-1 .7s-.8-.5-.7-1 .5-.8 1-.7c.4.1.7.5.7 1zm7.2 9.3c-.1.5-.5.8-1 .7s-.8-.5-.7-1 .5-.8 1-.7c.4.1.8.5.7 1zm-15.3-6.2c-.1.5-.5.8-1 .7s-.8-.5-.7-1 .5-.8 1-.7c.4.1.7.6.7 1zm3.7 4.8c-.1.5-.5.8-1 .8-.5-.1-.8-.5-.8-1 .1-.5.5-.8 1-.8.6.1.9.5.8 1zm3.5 4.5c-.1.5-.5.8-1 .7s-.8-.5-.7-1 .5-.8 1-.7c.4.1.8.6.7 1z" class="s"/><g class="t"><path d="M1085.2 1285.5c-.2.1-.5 0-.6-.3h0c-.1-.2 0-.5.3-.6l8.2-3.2c.2-.1.5 0 .6.3h0c.1.2 0 .5-.3.6l-8.2 3.2zm3.9 4.8c-.2.1-.5 0-.6-.3h0c-.1-.3 0-.5.2-.6l8.2-3.2c.2-.1.5 0 .6.3h0c.1.3 0 .5-.2.6l-8.2 3.2zm3.4 4.5c-.2.1-.5 0-.6-.3h0c-.1-.2 0-.5.3-.6l8.2-3.2c.2-.1.5 0 .6.3h0c.1.2 0 .5-.3.6l-8.2 3.2z"/></g><path fill="#f3c3a9" d="M925.9 919.7c1 2 4.2 6.9 7.2 11.4 1.9 2.9 4.7 5.9 6.5 8.4 2.4 3.2 4.4 3.3 5.5 3.1 2-.7 4.3-1-.6-12.4-2.9-4.3-4.1-8.9-4.9-11.3-.7-1.4 0-9.8 3.4-14.7.4-.5.8-1 1.2-1.3.6-.4 1.3-.5 2.2.4.3.3.6.7.9 1.3 1 1.4 2.9 4.2 2.7 5.6-1.3 4.9-3.5 6-3.9 8.7.2 2-.5 5.9.8 7.5 1.5 1.9 3.2 1.9 4-1.2 1.7-6.2 4.3-8.7 6.1-11.4 1.7-3.5 1.4-10.5.6-11.9-1.3-3.1-6.5-13.9-5.8-15.4.3-2.2 1.2-5.5 2-12.1 1-2.2 3-8.2 6-12.4.5-2.2 4.2-12.2 6.3-16.8 0-.1.1-.2.1-.2l-22.2-4.1c-1.4 4.8-2.7 8.9-3.7 11.6-1.3 2.8-5.9 11.9-6.5 19.9-1 7.7-6.9 14.3-7.7 21.9-.3 1.2-.8 2.9-1.2 4.9-1 5.5-4.3 11.5 1 20.5zm265.6 34.1c-1.5 1.7-5.8 5.7-9.8 9.2-2.6 2.3-6 4.5-8.4 6.5-3.1 2.5-5.1 2-6.1 1.6-1.8-1.2-3.9-2.1 3.7-11.8 3.8-3.4 6.2-7.6 7.6-9.7 1.1-1.2 2.4-9.4.4-15.1-.3-.6-.5-1.1-.8-1.6-.5-.6-1.1-.9-2.2-.2-.4.2-.8.6-1.2 1-1.3 1-3.8 3.4-4 4.7.1 5.1 1.9 6.6 1.5 9.4-.7 1.8-1 5.8-2.7 7.1-1.9 1.5-3.6 1-3.6-2.2 0-6.5-1.9-9.5-3-12.6-.8-3.8 1.3-10.5 2.4-11.6 2-2.7 9.8-11.8 9.5-13.5.3-2.2.2-5.6 1.1-12.2-.4-2.3-.8-8.7-2.7-13.5.1-2.3-1-12.9-1.8-17.9v-.3l22.5 1.6.6 12.2c.6 3 2.7 13 1.2 20.9-1 7.7 3.1 15.6 1.9 23.1 0 1.2 0 3-.1 5-.2 5.9 1.4 12.5-6 19.9z"/><g fill="#e0b399"><path d="M1045.3 579.2l45.2 108.9 16.5-129.2-2.6-.3c-5.6-.7-12.3 1.8-17.1-2.1.6 6.3-1.8 8.2-5 13-3.2 4.9-33.9 9-37 9.7h0z"/><path d="M1161.6 594.1l-71.2 94 16.5-129.2 2.5.4c5.6.7 13 3.6 18.5 1.1-2.2 6-1.8 9.6.1 15 2.1 5.6 30.7 17.2 33.6 18.7z"/></g><linearGradient id="Y" gradientUnits="userSpaceOnUse" x1="1073.34" y1="506.445" x2="1151.091" y2="516.408"><stop offset="0" stop-color="#f0bfa3"/><stop offset=".02" stop-color="#f0bfa3"/><stop offset=".504" stop-color="#f5c6a9"/><stop offset=".996" stop-color="#f0bfa3"/></linearGradient><path fill="url(#Y)" d="M1152.3 507.3c.7-8.3.3-22.9-2.7-29.3-4.8-10.2-8.3-18.7-30.2-21.5h0c-10.9-1.4-17.8-.3-22.8 2.3s-8.2 6.6-11.8 10.9c-4.5 5.5-8.7 19.5-10 27.7-.3 1.7-.5 3.7-.7 5.8-.7 7.6-.7 16.2-.7 18.2.1 1.9.2 4.1.6 6.4 1 6.8 3.4 15.1 8 22.8 2.5 4.1 5 7.4 8.6 10s8.3 4.5 14.8 5.7h0c6.6.5 11.5-.1 15.7-1.7 1.4-.5 2.6-1.2 3.8-1.9 2.5-1.5 4.8-3.4 7.1-5.7 6.4-6.3 10.8-13.8 13.5-20.2v-.1c0-.1.1-.2.1-.3.6-1.3 1.1-2.6 1.5-3.9.2-.6.4-1.1.5-1.7.5-1.9 2.7-10.2 3.9-17.7l.8-5.8z"/><path d="M1103.7 510.4c-.4.3-4.2 1.8-9.7.9-5.4-.8-8.4-4.5-8.4-4.5.6-.3 2-1.2 4.1-1.7 1.2-.3 2.7-.4 4.5-.2.2 0 .5.1.7.1h.1c.3.1.6.1.9.2l1 .3.9.3c.1 0 .2.1.4.1 3.4 1.4 5.3 3.6 5.5 4.3v.2z" class="s"/><radialGradient id="Z" cx="1013.889" cy="494.186" r="3.559" gradientTransform="matrix(0.9919 0.1271 0.1271 -0.9919 25.9721 869.6384)" gradientUnits="userSpaceOnUse"><stop offset="0" stop-color="#ca9e67"/><stop offset=".129" stop-color="#c29763"/><stop offset=".327" stop-color="#ad8557"/><stop offset=".569" stop-color="#8a6743"/><stop offset=".844" stop-color="#5a3d28"/><stop offset="1" stop-color="#3b2317"/></radialGradient><path fill="url(#Z)" d="M1098.1 508.7c-.2 1.9-2.1 3.3-4 3-2-.3-3.4-2-3.1-3.9.2-1.9 2.1-3.3 4-3 1.9.2 3.4 2 3.1 3.9z"/><path fill="#52300c" d="M1103.7 510.4c-.2-.8-2.2-2.8-5.5-4.2-.1-.1-.2-.1-.3-.2l-.9-.3-1-.3c-.3-.1-.6-.1-.9-.2h-.1c-.2 0-.5-.1-.7-.1l-.5-.1c-1.6-.2-2.9 0-4 .4-2.1.6-3.4 1.2-4.1 1.5.9-2 4.8-3.9 9.5-3.5 4.2.4 8.2 3.3 8.5 7h0z"/><path d="M1085.6 506.9c.3.4 2.2 2.6 5.6 3.5.1 0 .2.1.4.1.3.1.6.2.9.2.3.1.6.1 1 .2.3.1.6.1.9.2h.1c.2 0 .5.1.7.1l.5.1c1.6.2 2.9.2 4 .1 2-.1 3.4-.8 4-.9-.8.9-4.5 2.2-9.3 1.6-5.2-.8-8.2-3.3-8.8-5.2h0z" class="AF"/><path d="M1096.4 508.5c-.1 1-1.1 1.8-2.2 1.6-1.1-.1-1.8-1.1-1.7-2.1s1.1-1.8 2.2-1.6c1.1.1 1.9 1 1.7 2.1z" class="t"/><path d="M1096.6 507.3c0 .4-.4.7-.8.6s-.7-.4-.6-.8c0-.4.4-.7.8-.6s.6.4.6.8zm25.8 5.4c.3.4 3.6 2.8 9.1 3.3 5.5.6 9.3-2.2 9.3-2.2-.5-.4-1.6-1.6-3.5-2.6-1.1-.6-2.5-1.1-4.3-1.4-.2 0-.5-.1-.7-.1h-.1c-.3 0-.6 0-1-.1h-1c-.3 0-.7 0-1 .1-.1 0-.3 0-.4.1-3.6.5-6 2.1-6.4 2.7v.2z" class="s"/><radialGradient id="a" cx="1051.489" cy="494.313" r="3.558" gradientTransform="matrix(0.9919 0.1271 0.1271 -0.9919 25.9721 869.6384)" gradientUnits="userSpaceOnUse"><stop offset="0" stop-color="#ca9e67"/><stop offset=".129" stop-color="#c29763"/><stop offset=".327" stop-color="#ad8557"/><stop offset=".569" stop-color="#8a6743"/><stop offset=".844" stop-color="#5a3d28"/><stop offset="1" stop-color="#3b2317"/></radialGradient><path fill="url(#a)" d="M1128.2 512.4c-.2 1.9 1.2 3.7 3.1 3.9 2 .3 3.8-1.1 4-3s-1.2-3.7-3.1-3.9c-1.9-.3-3.7 1.1-4 3z"/><path fill="#52300c" d="M1122.4 512.7c.4-.7 2.8-2.2 6.4-2.7.1 0 .2 0 .4-.1.3-.1.6-.1 1-.1h2.1c.2 0 .5 0 .7.1l.5.1c1.6.2 2.8.7 3.8 1.4 1.3.7 2.5 1.6 3.6 2.5-.4-2.2-3.6-5.2-8.3-5.8-4.2-.6-9 1.1-10.2 4.6z"/><path d="M1140.8 513.8c-.4.3-2.8 1.9-6.3 2h-1.3c-.3 0-.6 0-1-.1-.3 0-.6 0-1-.1h-.1c-.2 0-.5 0-.7-.1l-.5-.1c-1.6-.2-2.8-.5-3.8-.9-1.9-.7-3.1-1.6-3.6-1.9.5 1.1 3.8 3.2 8.6 3.9 5.1.7 8.6-1 9.7-2.7h0z" class="AF"/><path d="M1133.8 513c-.1 1-1.1 1.8-2.2 1.6-1.1-.1-1.8-1.1-1.7-2.1s1.1-1.8 2.2-1.6c1 .2 1.8 1.1 1.7 2.1z" class="t"/><path d="M1131.7 511.8c0 .4-.4.7-.8.6s-.7-.4-.6-.8c0-.4.4-.7.8-.6.3.1.6.4.6.8z" class="s"/><path d="M1111.2 534.6c-1.2-.2-1.9-.7-2.5-1.1-.4-.3-.7-.5-1-.5-.5 0-.9.1-1.3.2-.5.1-1.1.3-1.8.1s-1.3-.5-1.5-1c-.4-1 1-4 1.1-3.7.1.4-.6 2.8-.2 3.5.2.3.4.4.9.5.3.1.7 0 1.2-.1s1-.3 1.7-.2c.7 0 1.2.4 1.7.8s1 .8 1.9.9h.1c.9.1 1.2-.2 1.7-.4.4-.3 1-.6 1.9-.4 1 .2 1.4.6 1.7.9.2.2.3.3.5.3h0c.6-.1 1.5-3.6 1.6-3.5.5.6-.3 4-1.6 4.1-.6 0-1-.4-1.2-.6-.3-.2-.5-.5-1.2-.6-.5-.1-.7 0-1.1.3-.5.3-1.1.7-2.4.6-.1-.1-.1-.1-.2-.1h0z" class="AF"/><path fill="#f0bfa3" d="M1153.3 530.6c-1.1 1.6-6.1 7.6-7.9 6.2h0v-.1c0-.1.1-.2.1-.3.6-1.3 1.1-2.5 1.5-3.9.2-.6.4-1.1.5-1.7.5-1.9 2.7-10.2 3.9-17.7.9-.6 2.5-1.7 3.5-1.8 2.2 0 3.4 2.5 3.1 6 0 .3-.8 7.4-4.7 13.3zm-79.5-2.9c-2.1.6-5.3-6.2-6-8.1-2.3-6.7-1.3-13.8-1.2-14 .6-3.5 2.4-5.6 4.5-5.1 1 .4 2.1 1.7 2.8 2.5-.7 7.6-.7 16.2-.7 18.2.1 2 .3 4.2.6 6.5h0z"/><linearGradient id="b" gradientUnits="userSpaceOnUse" x1="1107.57" y1="552.584" x2="1108.408" y2="546.052"><stop offset="0" stop-color="#ff9e7e"/><stop offset=".39" stop-color="#fab49e"/><stop offset=".605" stop-color="#fbaf97"/><stop offset=".908" stop-color="#fea385"/><stop offset="1" stop-color="#ff9e7e"/></linearGradient><path fill="url(#b)" d="M1095 544.2h-.2l2.9 3.2c1.4 2.1 2.6 4.2 9.9 5.1 7.3 1 9-.7 10.9-2.4 1-.9 3.6-2.4 3.6-2.4h-.1c-1.6.5-7.6 1.3-13.8.6-5.9-.7-11.6-3.3-13.2-4.1h0z"/><linearGradient id="c" gradientUnits="userSpaceOnUse" x1="1108.057" y1="548.348" x2="1108.556" y2="544.452"><stop offset="0" stop-color="#ff9e7e"/><stop offset=".34" stop-color="#ffbaa2"/><stop offset=".39" stop-color="#ffbea8"/><stop offset=".666" stop-color="#ffb198"/><stop offset="1" stop-color="#ff9e7e"/></linearGradient><path fill="url(#c)" d="M1118.2 547c-1.6-.6-3-1.5-4-1.8-.8-.2-5.6-.8-5.6-.8l-5.6-.6c-1 .1-2.6.6-4.3.7-.8.1-2.2 0-3.8-.3 1.6.8 7.4 3.3 13.2 4 6.3.8 12.2-.1 13.8-.6-1.6-.1-2.9-.4-3.7-.6h0z"/><path fill="#250000" d="M1088.4 497.4c.8-.1 7.6-.6 13.1 3.4 1 .7 3.4.8 5.7.9.8-2-2-3.6-3-4.2-1.8-1-9.5-3.1-15.4-2.7-4.8.3-7.2 4.5-6.5 4.9 1 .5 1.9-1.7 6.1-2.3h0zm51.3 6.6c-.8-.3-7.2-2.5-13.5 0-1.2.5-3.5-.1-5.8-.6-.3-2.1 2.9-3 4-3.3 2-.5 10-.6 15.6 1.3 4.6 1.5 5.8 6.2 5.1 6.4-1.2.2-1.5-2.2-5.4-3.8h0z"/><path fill="#3b2317" d="M1126.1 551.2c.7-7.2-7-11.3-13.5-12.7-.7-.1-2.5-.1-3.1-.2-.8-.1-2-.5-2.9-.5-6.6-.1-15 2-16.1 8.9-.9 5.9-3.1 12.9 1 17.3 3.6 4.1 7 4.5 13.9 5.4h.4c6.9.9 10.3 1.3 14.8-1.8 5.2-3.2 4.9-10.6 5.5-16.4h0zm-5 6.5c-.6 1-2.1 1.9-3.4 2.2-.7.1-4.8-.1-5.2-1.7-.6-1.9 1.8-3.9-4.7-4.7s-4.7 1.7-5.8 3.4c-.9 1.4-4.8.6-5.5.3-1.2-.6-2.4-1.9-2.7-3-1-3.2.9-7 .9-7 2-4.6 7.7-4.6 14.4-3.8 6.7.9 12.2 2.4 13 7.3-.1-.1.8 4.1-1 7h0zm-52.1-64.2c.1 1.3-.2 6.6 1.1 12.6.7 3.2 2.5 9.6 3.5 10 .9.1.9-10.4 1.4-11.4 1.3-4.6 2.3-11.5 3.4-10.8 2.7 1.8 9.4-7.2 15.1-24.7.9 10.2 10.9 19 15 18.8-1.8-1.7-1.4-6.7-.1-8.6 1.5 7 22.2 18.1 27.4 16.9-1-1.7.4-3.8 1.4-5.9.1 2.7 6.3 7.9 7.9 8.3.9-2.7 1.5-4.7 1.7-6.9 4 3.2 2.5 10.3 2.7 13.4-.2 2.7.2 7.4 0 11.8.2 2-2.9 8.6-1.6 8.6 1.4-.3 7.3-7.1 9.9-13.6.5-1.5 3.3-10.7 4.4-14.5 4.3-14.3 5.6-54-20-56.1-6.6-4.5-19.3-7.8-21.2-8-29.6-2.9-41 12-48 27.1-3 6.3-4.3 25.6-4 33h0z"/><path d="M1135.5 1033.3c.7-4.6 13.4-117.4 13.4-123.4-4.1-.4-19.6-2.2-40.1-4.7l-33.7 376.9c12.2 1.3 24 1.1 31.4-.5 1-13.9 26.1-227 29-248.3h0zm-175.7-22.5c.5-4.6 16.7-117 18.2-122.8 4.1.7 19.5 2.8 40 5.6l-62.4 373.2c-12.1-1.8-23.5-5-30.2-8.4 2.4-13.8 31.9-226.2 34.4-247.6z" class="AG"/><linearGradient id="d" gradientUnits="userSpaceOnUse" x1="979.595" y1="1079.319" x2="1098.969" y2="1094.615"><stop offset=".016" stop-color="#242b33"/><stop offset=".146" stop-color="#29313a"/><stop offset=".429" stop-color="#2a333c"/><stop offset="1" stop-color="#242b33"/></linearGradient><path fill="url(#d)" d="M1108.8 905.2l-45.4-5.5-45.4-6.1-62.4 373.2c12.5 1.8 25.8 2.1 35.7-.4 4.2-36.8 68.4-350.7 69.2-354.7h.3c.3 0 .6.1.9.1.3.1.6.1.9.1h.3l-22.4 360.6c9 5 22 8 34.5 9.4l33.8-376.7z"/><g class="s"><path d="M983.1 854.6l84 10.8 2-15.5 33.4-261.3c-.2 0-.4 0-.6-.1-.4 0-.7-.1-1-.1l-.1-.1c-.1-.1-.3-.4-.6-.7-3-3.4-13.9-16-14-23.6-.6 1.2-3.5 5.1-6.5 7.2-1 .2-2 .5-3.1.7-.3.1-.6.2-.9.2-.5.1-1 .3-1.5.4l-8 1.9c-7.2 1.7-19.9 3.8-30.9 5.6-6 1-11.6 2.9-15.5 3.6-.5 3.2-3.3 24.2-6.6 47.8h0c-.6 6.3-1.5 12.3-2.4 18.1l-7.3 55.9c-.1.1-.2.4-.3.9-.7 17.2-3.2 46.8-10 82.8l-.9 6.8c-.1 1-4.2 26.3-6.9 43.4l-2.3 15.3zm9.1-258l.6-1 11.4-7.5h.1c4.5-2 9.3-3.7 12.4-4.5 1.7-.3 2.8-.2 3-.1 0 0-.1 0-.1.1h0c-.2.2-16.3 119.2-16.4 122 0 0 0 .1-.1.1-.2.8-.4 1.8-.5 2.7l-4 16.4c-10.2-1.9-30-6.1-40.2-8.3 14.3-59.8 28-108.2 33.8-119.9h0zm177.3 128.7h0c.1.5.3.5 1.4 1.6.2 1.1.1 7.9-.2 18.3 0 .5 0 1.1-.1 1.7 11.2.8 31 1.6 40.5 2 1.3-56 .8-102.8-1.3-120.2-.2-1.7-.4-3.1-.7-4.2 0-.2-.1-.5-.2-.7-2.4-6.7-18.1-16.2-23.3-18.5-.9-.4-1.5-.6-1.6-.5.2-.2-13.8 117.8-14.5 120.5h0z"/><path d="M1102.6 588.5v.2l-35.5 276.7 84.1 10.8c.1-.6.7-7.1 1.5-15.5l4.2-43.8 12.3-89.6v-.3c.7-2.8 15-121.9 14.9-122.2h0l-.1-.1c-3.6-1.6-8.6-5-14.3-7.5-10.2-4.5-21.9-9.7-28.5-13.2-2.8-1.5-5.2-2.7-7-3.6-.3-.1-.6-.3-.8-.4-1.6-.8-2.5-1.3-2.5-1.3l-.1-.1c-2.5-3-3.8-7.2-4.3-9.4 0 0-3.5 9.8-19.4 19.2-.3.2-.6.4-1 .6-.1.1-.2.1-.4.2h0c-.2 0-.4-.1-.6-.1 0 0-.3 0-.6-.1-.3-.3-1.2-.4-1.9-.5h0z"/></g><path d="M1064.4 850.2l29.5-230 9 1.2-29.5 230-9-1.2z" class="AA"/><g fill="#1e355d"><path d="M1096 594.9l2.8 5.7 6.2.8 4.2-5-3.9-6.9-.3-.6-2.9-.4-6.1 6.4z"/><path d="M1057.7 832.9l28.9-186.1s4.4-30.7 7-36.8c1.2-3.2 3-6.5 5.3-9.5l2.9.4 3.4.4c1.5 3.5 2.4 7.1 2.7 10.5 1 6.5-2.5 37.3-2.5 37.3l-21.5 187.1-13.7 4.5-12.5-7.8z"/></g><path d="M1105 588.8l.3.6c.4.9 1.4 2.6 3.9 6.9l2.4 4 6.5 10.8.8 1.3.7-1.3 8.5-15.9.2-.3c2.9-5.2 5.5-10.2 6.1-14.7-.3-.1-.6-.3-.8-.4-1.6-.8-2.5-1.3-2.5-1.3l-.1-.1c-2.5-3-3.8-7.2-4.3-9.4 0 0-3.5 9.8-19.4 19.2-.3.2-.6.4-1 .6-.1.1-.2.1-.3.2 0-.1-.6-.1-1-.2h0z" class="AA"/><path d="M1106 589l12.9 21.8 8.5-15.9c2.9-5.4 5.7-10.4 6.2-14.8-.3-.2-.6-.5-.9-.7h0l-1.6-.8-.1-.1c-.9-1.1-1.7-2.3-2.3-3.6-1.1-2.2-1.7-4.4-2-5.9 0 0-3.5 9.8-19.4 19.2-.3.2-.6.4-1 .6-.1 0-.2.1-.3.2h0z" class="s"/><path d="M1078.1 590.1l.8 3.6c.7 3.4 3.4 13.4 3.5 13.8l.4 1.5 19.3-20.6h-.1c-.6-.1-1-.1-1.1-.2l-.1-.1c-.1-.1-.3-.4-.6-.7-3-3.4-13.9-16-14-23.6-.6 1.2-3.5 5.1-6.5 7.2-1 .2-2 .5-3.1.7-.3.1-.6.2-.9.2-.6 4.2.7 10.1 2.4 18.2h0z" class="AA"/><path d="M1079.8 593.5c.7 3.5 3.5 13.8 3.5 13.8l17.7-19c-.1-.1-.5-.5-.8-.9-3-3.4-13.9-16-14-23.6-.5.9-2 3.1-4 5-.8.8-1.7 1.6-2.5 2.2l-2.4.6c-.2.1-.4.1-.6.2-1 4.5.9 11.5 3.1 21.7h0z" class="s"/><path d="M1201.9 919.9c-4.5.1-25.1-1.6-37.1-3.5l5.6-188.3c0-.5-.1-.8-.1-.9.3-1.3 3.6-28.1 7.1-56.4l2.2-18.2 5.8-48.7-.1-.1c.8-.7 21.8 12.4 23.4 20.3 5.2 25.3 4.8 180-6.8 295.8zM1079 952v.2c-13.5-2-105.2-13.1-112.3-14.3l15.3-83.3 4.3-23.7.3-1.8 6-33.3 10.7-90c0-.1 0-.1.1-.1.1-2.8 16.3-122.9 16.5-123.2h0s.1 0 .1-.1h0c11-1.8 36.9-6.5 48.3-9.1 2.4-.6 3.9-.8 4.9-1-3.1 38.9 2 82.9 7.6 114.1 2.7 14.9 5.5 26.8 7.6 33.6h0c-.6 1.3-1.1 2.6-1.7 3.9-.2.6-.5 1.1-.7 1.6-.3.6-.5 1.2-.8 1.8-.3.7-.6 1.3-.9 2l-4.8 10.6c-.2.4-.3.8-.5 1.1-.4.9-25.9 200.1-26.2 207.5l26.2 3.5z" class="AG"/><path d="M1088.4 720.1h0c-.2.4-.4.8-.5 1.2-.2.4-.3.8-.5 1.2l-.6 1.4c-.2.6-.5 1.1-.7 1.6l-1.2 2.6c-27.3-45.2-54.1-117.7-54.1-117.7l19-7.8s-11.7-8.9-13.7-11c10.1-4 26.4-14.2 26.9-14.5 2.1-1.2 3.8-2.6 5.2-4 2.4-.6 4-.7 4.9-1-4.5 57.8 8.7 127 15.3 148h0z" class="u"/><linearGradient id="e" gradientUnits="userSpaceOnUse" x1="1076.088" y1="762.569" x2="1171.124" y2="774.746"><stop offset="0" stop-color="#242b33"/><stop offset=".315" stop-color="#29313a"/><stop offset="1" stop-color="#2a333c"/></linearGradient><path fill="url(#e)" d="M1147.3 960.9c-4.8-.4-43.7-5.7-68.3-8.9l-26.2-3.3c.4-7.3 25.8-206.6 26.2-207.5.2-.4.3-.8.5-1.1l4.8-10.6c1.3-2.9 2.6-6 4-9.3h0c.1-.2.2-.5.3-.7 2.7-6.5 6.4-15.9 10.5-26.9h0c14.8-39.8 34.9-98.5 36.4-111.8 1.2.7 2.6 1.4 4.4 2.4 12.6 6.7 39.9 16.9 45.4 20.6 0 .1.1.2.1.3-.2 2.5-2.8 24-5.8 48.5h0c-1 6.3-1.7 12.4-2.2 18.2l-7.1 56.4c0 .1.1.4.1.9-4.2 19.3-10.2 54.8-12.2 99l-1.9 23.9c0 .6-.1 1.2-.1 1.9l-1.9 24-7 84z"/><path d="M1167.2 627.9s-39.5 53.6-76.6 99l-3.7 4.6-7.2 8.6 8.8-19.9c12.4-29.2 45.2-122.4 47.1-139.4 1.2.7 2.6 1.4 4.4 2.4 1 1.8 2.6 2.6 4.5 4.5.8.8 12.9 15.7 21.6 22-3 .5-15.2 5.9-15.2 5.9l16.3 12.3z" class="u"/><path d="M1156.1 852.8l-39.3-3.4c0-.3.1-.5.1-.5l.2-1.4 39.2 3.5c-.1.5-.1 1.1-.2 1.8h0z" class="AB"/><path d="M1154.2 876.8c-10.6-.3-26.8-1-38-2.7-2.3-.4-2.5-1.9-2.1-3.6.3-1.5 2.3-17.9 2.7-21.1l39.3 3.4-1.9 24z" class="u"/><path d="M1026.2 835.8l-.2 1.4s0 .2-.1.5l-39.6-6.7.3-1.8 39.6 6.6z" class="AB"/><path d="M1020.3 861.8c-11.5-1.1-28-4.7-38.3-7.1l4.3-23.7 39.6 6.7-2.7 21.1c0 1.8-.6 3.1-2.9 3z" class="u"/><path d="M1020 582.5s-.1 0 0 0h0c-.3.3-16.5 120.4-16.6 123.3 0 0 0 .1-.1.1h0c-2.8 6.1-42.4 184.4-42.4 184.4-12.2-1.1-32.5-4.7-36.8-5.9 18-115 56.6-264.8 68.1-288.1 3.6-7.3 27.1-14.6 27.8-13.8h0z" class="AG"/><path d="M1091.4 750.4c-.4 2.7-2.9 4.7-5.7 4.3s-4.8-2.9-4.4-5.6 2.9-4.7 5.7-4.3c2.8.3 4.8 2.9 4.4 5.6z" class="AH"/><g class="AI"><path d="M1085.7 749.7c-.1.5-.5.9-1.1.8-.5-.1-.9-.5-.8-1.1.1-.5.5-.9 1.1-.8.5.1.8.5.8 1.1zm3.2.4c-.1.5-.5.9-1.1.8-.5-.1-.9-.5-.8-1.1.1-.5.5-.9 1.1-.8.5.1.9.6.8 1.1z"/></g><path d="M1085.9 811.7c-.4 2.7-2.9 4.7-5.7 4.3s-4.8-2.9-4.4-5.6 2.9-4.7 5.7-4.3 4.8 2.9 4.4 5.6z" class="AH"/><g class="AI"><use xlink:href="#H"/><path d="M1083.5 811.4c-.1.5-.5.9-1.1.8-.5-.1-.9-.5-.8-1.1.1-.5.5-.9 1.1-.8.5.1.8.6.8 1.1z"/></g><path d="M1077.5 877.7c-.4 2.7-2.9 4.7-5.7 4.3s-4.8-2.9-4.4-5.6 2.9-4.7 5.7-4.3c2.8.3 4.7 2.8 4.4 5.6z" class="AH"/><path d="M1071.7 876.9c-.1.5-.5.9-1.1.8-.5-.1-.9-.5-.8-1.1.1-.5.5-.9 1.1-.8.5.1.9.6.8 1.1zm3.3.4c-.1.5-.5.9-1.1.8s-.9-.5-.8-1.1c.1-.5.5-.9 1.1-.8.5.1.9.6.8 1.1z" class="AI"/></g><path d="M1179.8 770c.3 2.7 3.1 5.1 6.9 5.7s7.2-.9 8.3-3.4l-15.2-2.3z" class="s"/><g class="v"><path d="M1099.3 787.4l5.1-38.5 15.9 2.1-5.1 38.5-15.9-2.1z"/><path d="M1083.9 712.4c1.8-.6 3.7-.2 5.3.9 1.5-15.7 16-27.2 32-24.5 16.2 1.6 27.2 16.4 24.5 32 1.9-.6 3.8-.5 5.3.5 3 2 3.4 6.6.9 10.3s-6.9 5.1-9.9 3.1c-.4-.3-.8-.6-1.1-1-3.5 12.7-15.6 20.9-28.3 19.1-12.7-1.5-22.2-12.6-22.3-25.8-.4.3-.8.5-1.3.7-3.4 1.1-7.3-1.4-8.7-5.6s.2-8.6 3.6-9.7z"/></g><g fill="#333"><use xlink:href="#I"/><use xlink:href="#I" x="-20.5" y="-2.5"/></g><path d="M1121.8 718.3c1.2-.3 2.4-.4 3.6-.5s2.3 0 3.3.3c1.1.3 2.1.6 3.1 1.2l.4.2c.1.1.2.2.4.2l.7.5c.5.3.9.7 1.5 1.1-.2-.6-.5-1.2-.9-1.7s-.8-1-1.3-1.4c-1-.9-2.2-1.5-3.5-1.8a9 9 0 0 0-4 0c-1.2.4-2.4 1-3.3 1.9h0zm-9.5-1.3c-.6-1.1-1.6-2-2.8-2.7-1.1-.7-2.5-1.1-3.8-1.1s-2.7.2-3.9.8c-.6.2-1.1.7-1.6 1-.5.4-.9.9-1.3 1.4.6-.2 1.2-.5 1.7-.6l.8-.3c.1 0 .3-.1.4-.1l.4-.1c1.1-.3 2.2-.4 3.3-.4a9.6 9.6 0 0 1 3.3.6l3.5 1.5zm-21.6-34.7c5.8-9.3 26.7-14.3 39.1-10.8 0 0-.4 3.2-1.7 4.9 1.5-1.5 7.2-5.8 19.5-1.1 0 0-2.3 3.9-3.4 5.4 0 0 4.4.6 8.3-.7 0 0 3.1 7.3-.9 13.5l4.5-1.1s-3.4 14.8-6.3 23.7h0c-.5 2.8-1 4.5-1 4.5-.2 0-2.7-.7-6.5 2.3-.2-.1-.4-.3-.7-.5-2.6-1.8-1.5-14.7-5.3-20.4-7.3-4.3-24.4-7.2-30.8-6-7.4 1.4-9.9 18.6-13.4 19.9-.3.1-.5.2-.8.3-2.2-4.1-5.5-3.8-5.7-3.9.1-.2-.7-20.7 5.1-30h0z" class="y"/><path d="M1117.1 715.6c-1 1.2-1.9 2.5-2.7 3.8s-1.6 2.7-2.2 4.1c-.3.7-.6 1.5-.7 2.3 0 .2-.1.4-.1.7v.4c0 .1 0 .3.1.4 0 .1.1.1.1.2l.1.1c.1.1.1.2.2.2.2.1.3.3.5.4.6.5 1.3.9 2 1.3.7.3 1.4.7 2.2.9-1.3-.8-2.6-1.7-3.7-2.7l-.7-.7v-.1c-.1-.2 0-.6 0-.9l.7-2.1 2-4.2c.8-1.3 1.5-2.7 2.2-4.1h0z" class="AC"/><path d="M1107.4 734.8c.3 2.4 2.8 4.6 6.1 5.1s6.4-.9 7.3-3.2l-13.4-1.9z" class="s"/><path d="M1130.8 761.1l-39.1-5.2 8.3 18.8s17.4 3.1 19.1 2.5c1.7-.5 11.7-16.1 11.7-16.1z" class="v"/><path fill="#847d3d" d="M1140.4 882.2s17.3 154.2 14.5 207.9l-30.5 3.6-31.8-178.4-4 .2-20.5 179.4h-27.7s-4.6-179.1 10.4-229.6c14.9-50.4 89.6 16.9 89.6 16.9h0z"/><path d="M1129.7 1101.6l.6 22.3 14.8 10.7s5.6-10.7 5.5-12 0-26.9 0-26.9l-20.9 5.9zm-66.8 0l-.6 22.3-14.8 10.7s-4.9-10.7-4.7-12c.1-1.3-.8-26.9-.8-26.9l20.9 5.9z" class="v"/><path d="M1155.8 1088.1l-32.1 3.8c-.9.1-1.5.9-1.3 1.8l2.2 11.3c.2.8.9 1.3 1.7 1.2l30.1-4.2c.8-.1 1.3-.8 1.3-1.5l-.1-11c-.2-.8-1-1.4-1.8-1.4h0z" class="y"/><path d="M1174.9 791.7l-9.9-29.1 8.2-1.8c17.5-.5 34-8.7 36.6-11.5 5.7-5.9-14.3-45.3-14.3-45.3l15.4-3.1s35.5 47.6 20.4 63.8c-15.1 16.3-52.2 26.6-52.2 26.6l-4.2.4zM1041.1 774l17.2-25.5-7.5-3.9c-16.7-5.1-30.5-17.2-32.4-20.6-3.9-7.2 25.6-40 25.6-40l-14.1-7s-46.7 36.7-36.3 56.3 43.5 39.3 43.5 39.3l4 1.4z" class="v"/><path d="M1037.7 1089l32.1 3.8c.9.1 1.5.9 1.3 1.8l-2.2 11.3c-.2.8-.9 1.3-1.7 1.2l-30.1-4.2c-.8-.1-1.3-.8-1.3-1.5l.1-11c0-.8.8-1.5 1.8-1.4h0z" class="y"/><path fill="#71b280" d="M1034.1 773.7l16.5-31.1c10.1 4.6 26 8.7 34.1 10.7 3.4.8 6.6 2.2 9.5 4 .1.1.2.1.3.2 9.9 6.1 21.9 7.7 33.1 4.4.1 0 .2-.1.4-.1 3.3-1 6.8-1.5 10.2-1.4 8.3.2 24.7.4 35.7-1.4l7.8 34.3c-16.8 3.6-32 2.9-32 2.9l-5 98.8c-34.1 3.1-68.4-1.4-100.6-13.2l-.8-.3 20.9-96.7c.1 0-14.8-3.2-30.1-11.1h0z"/><linearGradient id="f" gradientUnits="userSpaceOnUse" x1="1127.265" y1="1140.746" x2="1173.871" y2="1140.746"><stop offset="0" stop-color="#00503e"/><stop offset="1" stop-color="#023222"/></linearGradient><path fill="url(#f)" d="M1171.6 1143h-42c-1.3 0-2.3-1.1-2.3-2.3h0c0-1.3 1.1-2.3 2.3-2.3h42c1.3 0 2.3 1.1 2.3 2.3h0c.1 1.3-1 2.3-2.3 2.3z"/><path d="M1129.5 1124l-1.6 13.1c-.2 1.6.7 3.1 1.9 3.1h41.1c1.1 0 2.1-.7 2.7-1.9.6-1.3.7-3.2-1.1-5.8-3.6-5.1-15.1-6.4-21.2-10.6-.4-.2-.8-.4-1.2-.4h-18.5c-1.1 0-2 1.1-2.1 2.5h0z" class="y"/><path d="M1147.9 1129.1h0c-.3-.2-.4-.7-.2-1.1.8-1.8 3.3-6.1 8.5-5.2.3.1.5.4.4.9h0c0 .4-.3.7-.6.6-4.6-.8-6.7 3-7.4 4.5-.2.3-.5.5-.7.3h0zm4.2 1.7h0c-.3-.2-.4-.7-.2-1.1.8-1.8 3.3-6.1 8.5-5.2.3.1.5.4.4.9h0c0 .4-.3.7-.6.6-4.6-.8-6.7 3-7.4 4.5-.1.3-.4.4-.7.3h0zm4 1.6h0c-.3-.2-.4-.7-.2-1.1.8-1.8 3.3-6.1 8.5-5.2.3.1.5.4.4.9h0c0 .4-.3.7-.6.6-4.6-.8-6.7 3-7.4 4.5-.2.3-.5.4-.7.3h0z" class="s"/><linearGradient id="g" gradientUnits="userSpaceOnUse" x1="1019.677" y1="1140.746" x2="1066.283" y2="1140.746"><stop offset="0" stop-color="#00503e"/><stop offset="1" stop-color="#023222"/></linearGradient><path fill="url(#g)" d="M1022.1 1143h42c1.3 0 2.3-1.1 2.3-2.3h0c0-1.3-1.1-2.3-2.3-2.3h-42c-1.3 0-2.3 1.1-2.3 2.3h0c-.1 1.3 1 2.3 2.3 2.3z"/><path d="M1064.2 1124l1.6 13.1c.2 1.6-.7 3.1-1.9 3.1h-41.1c-1.1 0-2.1-.7-2.7-1.9-.6-1.3-.7-3.2 1.1-5.8 3.6-5.1 15.1-6.4 21.2-10.6.3-.2.8-.4 1.2-.4h18.5c1 0 1.9 1.1 2.1 2.5h0z" class="y"/><path d="M1045.8 1129.1h0c.3-.2.4-.7.2-1.1-.8-1.8-3.3-6.1-8.5-5.2-.3.1-.5.4-.4.9h0c0 .4.3.7.6.6 4.6-.8 6.7 3 7.4 4.5.2.3.5.5.7.3h0zm-4.2 1.7h0c.3-.2.4-.7.2-1.1-.8-1.8-3.3-6.1-8.5-5.2-.3.1-.5.4-.4.9h0c0 .4.3.7.6.6 4.6-.8 6.7 3 7.4 4.5.1.3.4.4.7.3h0zm-4 1.6h0c.3-.2.4-.7.2-1.1-.8-1.8-3.3-6.1-8.5-5.2-.3.1-.5.4-.4.9h0c0 .4.3.7.6.6 4.6-.8 6.7 3 7.4 4.5.2.3.4.4.7.3h0z" class="s"/><path d="M1194.3 698.7s-4.4-1.8-4.6-5.4c-.1-3.7-2.6-2-2.8-.4s-2.8 8.9 8.7 11.1c11.5 2.3 15.4-3.1 15.4-3.1l-16.7-2.2zm-147.6-19.5s4.7-.5 5.8-4.1c1.1-3.5 3-1.2 2.8.4s.4 9.3-11.3 8.5-14.1-7-14.1-7l16.8 2.2z" class="v"/><path fill="#225e64" d="M147.3 515.7s19.4 23.1 65.1 27.1c45.7 4.1 11.5 28.2 11.5 28.2s-55.1 7.9-74.3-5c-19.3-12.9-2.3-50.3-2.3-50.3z"/><path d="M445.5 751.5c-2.7 11.5-14.4 18.5-25.9 15.7l-219.2-52.4c-11.6-2.8-18.8-14.3-16-25.8l51.9-216.8c2.7-11.5 14.4-18.5 25.9-15.7l219.2 52.4c11.6 2.8 18.8 14.3 16 25.8l-51.9 216.8z" class="x"/><defs><path id="h" d="M445.5 751.5c-2.7 11.5-14.4 18.5-25.9 15.7l-219.2-52.4c-11.6-2.8-18.8-14.3-16-25.8l51.9-216.8c2.7-11.5 14.4-18.5 25.9-15.7l219.2 52.4c11.6 2.8 18.8 14.3 16 25.8l-51.9 216.8z"/></defs><clipPath id="i"><use xlink:href="#h"/></clipPath><g clip-path="url(#i)"><linearGradient id="j" gradientUnits="userSpaceOnUse" x1="112.984" y1="1320.701" x2="96.597" y2="1279.206"><stop offset="0" stop-color="#2f2f2f"/><stop offset=".082" stop-color="#424242"/><stop offset=".233" stop-color="#606060"/><stop offset=".363" stop-color="#727272"/><stop offset=".457" stop-color="#787878"/><stop offset=".568" stop-color="#727272"/><stop offset=".721" stop-color="#606060"/><stop offset=".899" stop-color="#434343"/><stop offset="1" stop-color="#2f2f2f"/></linearGradient><path fill="url(#j)" d="M54.3 1316.5c1.6 1.3 6.6 5.2 12.1 6.2 3.2.6 31.3 1.7 42.1-.2 1.5-.1 10.4-7.1 15.4-9.7.8-.4 1.4-.7 2-.8l24.6-6.2c.6-2.9 1.1-6.2.6-7.2.4-1.3 1-5.1 1.5-9.1.6-4.3 1-8.8 1-10.5-.1-1.6-5.7-5.5-9.5-6.8-5-1.8-18.9 5.7-30.2.3-1.5 1-4.8 3.6-8.7 6.7l-20 16.1c-2.4 1.9-21.5 9.6-25.6 13.3-2.2 2-4.7 5.3-5.3 7.9h0z"/><path d="M149.1 1310.5c.3-.5.7-1.8 1.1-3.4l-24.3 6.2c1.2 1.3 2.9 2.8 2.9 2.8s19.5-4.2 20.3-5.6z" class="t"/><path fill="#2e2e2b" d="M54.3 1316.5c-.1.4-.2.8-.2 1.1-.5 2.1 3.1 5.1 9.8 7.1 6.7 1.9 39.7 2.2 44.9.8 4.6-1.2 8.6-7.5 14.4-10.8l.6-.3c.1-.1.2-.1.3-.1h.1c.2-.1.5-.2.7-.4.1 0 .2-.1.3-.1.3-.1.5-.2.8-.3l24.3-6.2c.1-.4.2-.8.3-1.3l-24.6 6.2c-.5.1-1.2.4-2 .8-5 2.6-14 9.6-15.4 9.7-10.8 1.9-38.9.8-42.1.2-5.6-1.1-10.6-5-12.2-6.4h0z"/><linearGradient id="k" gradientUnits="userSpaceOnUse" x1="102.342" y1="1293.806" x2="93.929" y2="1285.836"><stop offset="0" stop-color="#424242"/><stop offset=".417" stop-color="#484848"/><stop offset=".516" stop-color="#4a4a4a"/><stop offset=".839" stop-color="#484848"/><stop offset=".955" stop-color="#414141"/><stop offset="1" stop-color="#3c3c3c"/></linearGradient><path fill="url(#k)" d="M85.2 1295.2s9.7 1.1 13.5-2.5c5.2-4.2 12.6-8.2 12.6-8.2l-6-5.4-20.1 16.1z"/><linearGradient id="l" gradientUnits="userSpaceOnUse" x1="131.084" y1="1311.529" x2="122.982" y2="1284.264"><stop offset="0" stop-color="#3e3e3e"/><stop offset=".26" stop-color="#4b4b4b"/><stop offset=".516" stop-color="#535353"/><stop offset=".753" stop-color="#4b4b4b"/><stop offset="1" stop-color="#3e3e3e"/></linearGradient><path fill="url(#l)" d="M104.9 1303.3c14.6 3.8 13.9 8.4 16.7 10.9l4.3-2.2 24.6-6.2c.6-2.9 1.1-6.2.6-7.2.4-1.3 1-5.1 1.5-9.1l-35.5-3.4s-10.8 5.2-14.3 8.1c-3.4 2.8-5.7 7.9 2.1 9.1h0z"/><g fill="#dadada"><path d="M100.2 1289.3c-.1.5.2.9.6 1 .5.1.9-.2 1-.6.1-.5-.2-.9-.6-1-.5 0-.9.2-1 .6zm5-3c-.1.5.2.9.6 1a.89.89 0 0 0 1-.6c.1-.5-.2-.9-.6-1-.4-.2-.8.1-1 .6zm-9.7 6c-.1.5.2.9.6 1a.89.89 0 0 0 1-.6c.1-.5-.2-.9-.6-1-.5 0-.9.2-1 .6zm16-.4c-.1.5.2.9.6 1a.89.89 0 0 0 1-.6c.1-.5-.2-.9-.6-1-.5-.1-.9.2-1 .6zm-5.1 3.1c-.1.5.2.9.6 1 .5.1.9-.2 1-.6.1-.5-.2-.9-.6-1-.5 0-.9.2-1 .6zm-4.7 3c-.1.5.2.9.6 1a.89.89 0 0 0 1-.6c.1-.5-.2-.9-.6-1-.5 0-.9.2-1 .6z"/></g><path fill="#1f1f1f" d="M111.9 1292.6c.2.2.5.1.7-.1h0c.2-.2.2-.6.1-.7l-6.3-5.7c-.2-.2-.5-.1-.7.1h0c-.2.2-.2.6-.1.7l6.3 5.7zm-5 3c.2.2.5.1.7-.2h0c.2-.2.2-.6.1-.7l-6.3-5.7c-.2-.2-.5-.1-.7.1h0c-.2.2-.2.6-.1.7l6.3 5.8zm-4.8 3c.2.2.5.1.7-.1h0c.2-.2.3-.6.1-.7l-6.3-5.7c-.2-.2-.5-.1-.7.1h0c-.2.2-.2.6-.1.7l6.3 5.7z"/><linearGradient id="m" gradientUnits="userSpaceOnUse" x1="223.511" y1="1349.633" x2="259.872" y2="1321.682"><stop offset="0" stop-color="#2f2f2f"/><stop offset=".082" stop-color="#424242"/><stop offset=".233" stop-color="#606060"/><stop offset=".363" stop-color="#727272"/><stop offset=".457" stop-color="#787878"/><stop offset=".568" stop-color="#727272"/><stop offset=".721" stop-color="#606060"/><stop offset=".899" stop-color="#434343"/><stop offset="1" stop-color="#2f2f2f"/></linearGradient><path fill="url(#m)" d="M281.1 1372.1c-2 .5-8.2 1.7-13.6 0-3.2-.9-28.7-12.6-37.5-19.2-1.2-.8-6.1-11-9.4-15.6-.5-.7-1-1.3-1.4-1.6l-19.2-16.6c.8-2.9 1.9-6 2.7-6.7.2-1.3 1.4-5 2.8-8.8 1.5-4.1 3.1-8.3 3.9-9.8.8-1.4 7.6-2.3 11.5-1.8 5.3.7 14.3 13.7 26.8 13.9.8 1.6 2.6 5.4 4.7 9.9l10.6 23.4c1.3 2.8 14.8 18.3 16.8 23.5 1.3 2.7 1.9 6.8 1.3 9.4h0z"/><path d="M199.3 1323.8c0-.5.2-1.9.6-3.5l18.9 16.6-3.9 1.2s-15.5-12.7-15.6-14.3h0z" class="t"/><path fill="#2e2e2b" d="M281.1 1372.1l-.3 1.1c-.5 2.1-5 3.2-11.9 1.9s-36.3-16-40.4-19.6c-3.6-3.1-4.3-10.5-7.9-16.2-.1-.2-.3-.4-.4-.5 0-.1-.1-.2-.2-.2v-.1c-.2-.2-.3-.4-.5-.6-.1-.1-.1-.2-.2-.2-.2-.2-.4-.4-.5-.6l-18.9-16.6c.1-.4.2-.8.3-1.3l19.2 16.6c.4.4.9.9 1.4 1.6 3.3 4.6 8.1 14.8 9.4 15.6 8.8 6.6 34.3 18.3 37.5 19.2 5.2 1.6 11.4.3 13.4-.1h0z"/><linearGradient id="n" gradientUnits="userSpaceOnUse" x1="248.28" y1="1330.136" x2="259.392" y2="1326.833"><stop offset="0" stop-color="#424242"/><stop offset=".417" stop-color="#484848"/><stop offset=".516" stop-color="#4a4a4a"/><stop offset=".839" stop-color="#484848"/><stop offset=".955" stop-color="#414141"/><stop offset="1" stop-color="#3c3c3c"/></linearGradient><path fill="url(#n)" d="M263.2 1339.1s-9.1-3.4-10.9-8.4c-2.8-6.1-7.5-13-7.5-13l7.8-2.1 10.6 23.5z"/><linearGradient id="o" gradientUnits="userSpaceOnUse" x1="214.696" y1="1332.995" x2="234.258" y2="1312.344"><stop offset="0" stop-color="#3e3e3e"/><stop offset=".26" stop-color="#4b4b4b"/><stop offset=".516" stop-color="#535353"/><stop offset=".753" stop-color="#4b4b4b"/><stop offset="1" stop-color="#3e3e3e"/></linearGradient><path fill="url(#o)" d="M242 1337.4c-14.8-3.2-16.2 1.2-19.8 2.1-.5-.7-2.5-3.5-2.9-3.9l-19.2-16.6c.8-2.9 1.9-6 2.7-6.7.2-1.3 1.4-5 2.8-8.8l33.2 13.1s7.3 9.5 9.1 13.7c1.8 4 1.5 9.6-5.9 7.1h0z"/><g fill="#dadada"><path d="M252.5 1327.1c-.1.5-.6.7-1 .6-.5-.1-.7-.6-.6-1 .1-.5.6-.7 1-.6.4 0 .7.5.6 1zm-3.1-5.1c-.1.5-.6.7-1 .6a.89.89 0 0 1-.6-1c.1-.5.6-.7 1-.6a1.1 1.1 0 0 1 .6 1zm5.9 9.8c-.1.5-.6.7-1 .6a.89.89 0 0 1-.6-1c.1-.5.6-.7 1-.6a1.1 1.1 0 0 1 .6 1zm-14-7.5c-.1.5-.6.7-1 .6a.89.89 0 0 1-.6-1c.1-.5.6-.7 1-.6s.7.5.6 1zm3.1 5c-.1.5-.6.7-1 .6a.89.89 0 0 1-.6-1c.1-.5.6-.7 1-.6a1.1 1.1 0 0 1 .6 1zm2.8 4.8c-.1.5-.6.7-1 .6a.89.89 0 0 1-.6-1c.1-.5.6-.7 1-.6a1.1 1.1 0 0 1 .6 1z"/></g><g fill="#1f1f1f"><path d="M240.6 1324.6c-.2.1-.5-.1-.6-.5h0c-.1-.3 0-.6.3-.7l8.2-2.3c.2-.1.5.1.6.5h0c.1.3 0 .6-.3.7l-8.2 2.3zm3.1 5.1c-.2.1-.5-.1-.6-.5h0c-.1-.3 0-.6.3-.7l8.2-2.3c.2-.1.5.1.6.5h0c.1.3 0 .6-.3.7l-8.2 2.3zm2.8 4.8c-.2.1-.5-.1-.6-.5h0c-.1-.3 0-.6.3-.7l8.2-2.3c.2-.1.5.1.6.5h0c.1.3 0 .6-.3.7l-8.2 2.3z"/></g><path fill="#e0b399" d="M388.9 655.6l-76.6 85.3-2-7.1L280 627.5c3.1-.4 33.3-1 36.6-5.6 3.2-4.7 2.2-7.8 2.3-14.1 4.1 4.2 14.7 4.4 20 5.7 8.7 2.1 20.1 2.6 24.2 1-2.7 5.2-5.2 9-5.9 12.4-.6 2.8 0 5.3 3 7.9.2.4.4.7.6 1.1l.1.1s.9.6 2.3 1.6c.2.2.5.3.8.5l6.4 4.3c2.7 1.8 6.4 4.1 10.5 6.6 3.9 3 6.8 5.7 8 6.6zm-11.8 352.6c-1.6 1.5-6.2 4.9-10.4 8-2.8 2-6.2 3.8-8.7 5.5-3.2 2.2-5.1 1.5-6 .9-1.6-1.3-3.5-2.4 4.8-11.2 4.1-2.9 6.7-6.8 8.3-8.7 1.2-1.1 3.3-9 2.1-14.7-.2-.6-.4-1.2-.6-1.6-.4-.6-1-1-2.1-.4-.4.2-.8.5-1.3.9-1.4.9-4 2.9-4.4 4.2-.5 5 1.1 6.7.5 9.4-.9 1.7-1.6 5.6-3.3 6.6-2 1.3-3.6.6-3.2-2.5.7-6.3-.8-9.5-1.5-12.6-.3-3.8 2.4-10.1 3.6-11.1 2.3-2.4 10.7-10.6 10.6-12.2.5-2.2.8-5.5 2.4-11.8-.2-2.3.1-8.6-1.1-13.5.3-2.2.4-12.7.2-17.6v-.3l21.4 3.9c-.4 4.9-.6 9.1-.7 12 .2 3 1.2 13-1.1 20.5-1.8 7.5 1.3 15.5-.7 22.7-.1 1.2-.3 2.9-.6 4.9-1.1 5.6-.3 12.2-8.2 18.7h0zm-247.9-59.3c.8 2.1 3.3 7.2 5.6 11.9 1.6 3.1 3.8 6.2 5.3 8.9 1.9 3.4 3.8 3.6 5 3.5 2-.5 4.2-.5.8-12.1-2.3-4.5-2.9-9.1-3.5-11.5-.6-1.5 1.1-9.5 4.8-14 .4-.4.9-.9 1.3-1.2.7-.4 1.3-.4 2.1.6.3.3.5.8.7 1.4.8 1.4 2.3 4.4 2 5.7-1.8 4.7-4 5.5-4.6 8.2 0 1.9-1.1 5.7 0 7.4 1.2 2 2.9 2.2 4-.8 2.3-5.9 5-8.1 7.1-10.6 2-3.3 2.4-10.1 1.8-11.5-.9-3.2-4.7-14.2-3.9-15.7.5-2.2 1.7-5.2 3.3-11.6 1.2-2 3.8-7.7 7.1-11.5.7-2.1 5.4-11.5 7.8-15.8 0-.1.1-.1.1-.2l-20.8-6.2-4.8 11c-1.6 2.6-6.9 11-8.3 18.8-1.8 7.5-8.2 13.3-9.7 20.6-.4 1.1-1.1 2.7-1.7 4.7-1.9 5.1-5.6 10.7-1.5 20h0z"/><path fill="#f2c4a7" d="M400.2 547h0c2.8-14.4-1.8-28.5-11.3-38.4-9-7.1-19.5-9.5-22.1-10.2-.2 0-.3-.1-.5-.1-.9-.2-1.7-.3-2.6-.5-9.8-1.8-16.5-1.3-21.4-.1-11.5 4.2-21 13.2-25.6 25.1-.1.3-.2.7-.3 1-.1.4-.2.7-.3 1.1s-.2.7-.3 1.1c-.2.5-.3 1-.5 1.5v.1c-.1.4-.2.9-.4 1.3-.6 2.3-1.1 4.3-1.4 5.9 0 .2-.1.4-.1.6l-.3 1.5v.3c0 .2-.1.4-.1.6v.3c0 .2-.1.4-.1.5v.1l-1.1 9.6v.8c0 .2 0 .4-.1.5v.2c0 .1 0 .1-.1.2-1.6 8.1-2.7 17.4-2.8 19.5v.6c-.1 1.9-.2 4.1-.1 6.4.3 7.5 1.8 16.7 5.9 25.5 4.3 9.5 9.6 15.6 23.3 19.6h0c14 2.7 21.4-.4 29.6-6.9 7.5-6 13-13.4 16.6-19.9 0 0 0-.1.1-.1 0-.1.1-.1.1-.2 0 0 0-.1.1-.1h0v-.1c0-.1.1-.1.1-.2.8-1.3 1.4-2.6 2.1-4 .3-.6.5-1.2.8-1.7.7-1.7 3.3-8.6 5.4-15.6v-.1c.1-.2.1-.4.2-.6.2-.8.4-1.5.7-2.3.1-.4.4-1.3.5-1.5l.1-.3c2.4-6.4 4.1-12 5.4-16.8-.1-1.5.2-2.9.5-4.2h0z"/><path d="M342.4 561.2c-.5.2-4.7 1.4-10.4-.1s-8.5-5.8-8.5-5.8c.7-.2 2.3-1 4.6-1.3 1.4-.2 3-.2 4.8.3.2.1.5.1.7.2h.1c.3.1.7.2 1 .3.4.1.7.3 1 .4s.6.3.9.4c.1.1.2.1.4.2 3.4 1.9 5.2 4.4 5.3 5.2.1.1.1.2.1.2h0z" class="s"/><radialGradient id="p" cx="412.017" cy="196.856" r="3.811" gradientTransform="matrix(0.9726 0.2326 0.2345 -0.9807 -114.0128 654.9971)" gradientUnits="userSpaceOnUse"><stop offset="0" stop-color="#a9a9a9"/><stop offset=".405" stop-color="#a7a7a7"/><stop offset=".551" stop-color="#a0a0a0"/><stop offset=".655" stop-color="#959595"/><stop offset=".739" stop-color="#848484"/><stop offset=".811" stop-color="#6e6e6e"/><stop offset=".874" stop-color="#525252"/><stop offset=".932" stop-color="#323232"/><stop offset=".983" stop-color="#0e0e0e"/><stop offset="1"/></radialGradient><path fill="url(#p)" d="M336.6 558.7c-.5 2-2.6 3.3-4.6 2.8-2.1-.5-3.4-2.6-2.9-4.6s2.6-3.3 4.6-2.8c2.1.5 3.4 2.6 2.9 4.6z"/><path d="M342.4 561.2c-.2-.8-4-5.5-8.8-6.7s-9.4.6-10.1.9c1.2-2.1 5.5-3.7 10.5-2.7 4.6.9 8.5 4.5 8.4 8.5z" class="AJ"/><path fill="#e3b794" d="M323.6 555.3c.3.5 2 3 5.6 4.4.1 0 .2.1.4.1l3 .9h.1c.2.1.5.1.7.2l.5.1c1.6.4 3 .5 4.2.5 2.2.1 3.7-.5 4.4-.5-1 .9-5.1 1.8-10 .6-5.6-1.1-8.5-4.2-8.9-6.3h0z"/><path d="M334.9 558.3c-.3 1.1-1.4 1.8-2.5 1.5s-1.8-1.4-1.6-2.5c.3-1.1 1.4-1.8 2.5-1.5 1.2.3 1.8 1.4 1.6 2.5z" class="t"/><path d="M335.2 557c-.1.4-.5.7-.9.6s-.7-.5-.6-.9.5-.7.9-.6.7.5.6.9zm27.8 9c.3.4 3.6 3.4 9.3 4.6 5.8 1.3 10.1-1.3 10.1-1.3-.5-.5-1.6-1.9-3.5-3.2-1.1-.8-2.6-1.5-4.4-1.9-.2-.1-.5-.1-.7-.2h-.1c-.4-.1-.7-.1-1-.2-.4-.1-.7-.1-1.1-.1h-1.4c-3.9.1-6.6 1.6-7.1 2.2-.1 0-.1 0-.1.1h0z" class="s"/><radialGradient id="q" cx="453.334" cy="196.993" r="3.809" gradientTransform="matrix(0.9726 0.2326 0.2345 -0.9807 -114.0128 654.9971)" gradientUnits="userSpaceOnUse"><stop offset="0" stop-color="#a9a9a9"/><stop offset=".405" stop-color="#a7a7a7"/><stop offset=".551" stop-color="#a0a0a0"/><stop offset=".655" stop-color="#959595"/><stop offset=".739" stop-color="#848484"/><stop offset=".811" stop-color="#6e6e6e"/><stop offset=".874" stop-color="#525252"/><stop offset=".932" stop-color="#323232"/><stop offset=".983" stop-color="#0e0e0e"/><stop offset="1"/></radialGradient><path fill="url(#q)" d="M369.3 566.4c-.5 2 .8 4.1 2.9 4.6s4.2-.8 4.6-2.8c.5-2-.8-4.1-2.9-4.6-2-.5-4.1.7-4.6 2.8z"/><path d="M363 566c.5-.7 7.1-3.2 10.7-2.1 3.1 1 4.2 1.5 5.2 2.3 1.9 1.4 3 2.5 3.5 3-.2-2.4-3.2-6-8.2-7.1-4.2-1-9.4.2-11.2 3.9h0z" class="AJ"/><path fill="#e3b794" d="M382.5 569.3c-.4.3-3.2 1.8-7 1.4h-.4c-.3 0-.7-.1-1-.1s-.7-.1-1.1-.2c-.3-.1-.7-.1-1-.2h-.1c-.2 0-.5-.1-.7-.2l-.5-.1c-1.6-.4-2.9-.9-4-1.4-2-.9-3.1-2.1-3.7-2.4.4 1.3 3.7 3.9 8.7 5.1 5.5 1.2 9.5-.2 10.8-1.9h0z"/><path d="M375.1 567.7c-.3 1.1-1.4 1.8-2.5 1.5s-1.8-1.4-1.6-2.5c.3-1.1 1.4-1.8 2.5-1.5s1.9 1.4 1.6 2.5z" class="t"/><path d="M373 566.1c-.1.4-.5.7-.9.6s-.7-.5-.6-.9.5-.7.9-.6c.5.1.7.5.6.9z" class="s"/><path d="M347.7 588.1c-1.3-.3-2-.9-2.5-1.5-.4-.4-.7-.6-1-.7-.5-.1-.9 0-1.4.1-.6.1-1.2.2-2 0-.8-.3-1.4-.7-1.5-1.2-.3-1.1 1.5-4.2 1.6-3.9 0 .5-1 2.9-.6 3.8.1.3.4.5.9.7.4.1.7.1 1.3 0 .5-.1 1.1-.2 1.9 0 .7.1 1.2.6 1.7 1 .5.5 1 .9 1.9 1.2h.1c.9.2 1.3 0 1.9-.3.5-.2 1.2-.5 2.1-.3 1.1.4 1.5.8 1.8 1.1.2.2.3.3.5.4h0c.7-.1 2-3.7 2.1-3.5.5.7-.8 4.3-2.2 4.2-.7 0-1-.5-1.2-.8-.3-.3-.5-.5-1.2-.8-.5-.1-.7 0-1.2.2-.5.3-1.3.6-2.7.3h-.3z" class="AJ"/><path fill="#f2c4a7" d="M393.2 588.7c-1.4 1.6-7.4 7.6-9.2 5.8h0s0-.1.1-.1c0-.1.1-.2.1-.3l2.1-4c.3-.6.5-1.2.8-1.8.8-1.9 4.1-10.7 6.3-18.6 1-.6 2.8-1.5 3.9-1.5 2.3.2 3.3 3 2.6 6.9-.2.1-1.9 7.6-6.7 13.6h0zm-84.8-12.2c-2.3.4-4.9-7.3-5.5-9.4-1.6-7.5.3-15 .3-15.2 1.1-3.7 3.2-5.8 5.4-5 1 .5 2.1 2 2.7 3-1.6 8.1-2.7 17.4-2.8 19.5s-.2 4.5-.1 7.1h0z"/><path fill="#7d5b3c" d="M327.7 547.8c.8-.1 9.9-.3 15.3 3.4 1.8 1.2 2.4 2.2 3.2 1.5 1.7-1.3-1.1-2.7-2-3.3-1.6-1.1-8.7-5.7-17.7-2.6-1.8.6-2.9 1.7-2.6 2 .3.2 3-.9 3.8-1h0zm53.8 12.7c-.6-.5-9.2-4.7-15.7-4-2.2.2-3.1.8-3.6-.2-.9-1.9 2.3-1.9 3.3-2 2-.2 11-1.2 17.4 5.8 1.3 1.4 1.7 2.9 1.4 3-.2.1-2.2-2.1-2.8-2.6h0z"/><g fill="#ffac91"><path d="M328.5 596.9h-.2l2.7 3.4c1.3 2.2 2.3 4.3 9.9 6.1 7.6 1.9 9.4.5 11.6-.9 1.1-.7 4-1.8 4-1.8h-.1c-1.7.2-8 .3-14.5-1.2-6-1.5-11.8-4.7-13.4-5.6z"/><path d="M352.5 602.4c-1.6-.7-3-1.8-4-2.2-.8-.3-5.8-1.2-5.8-1.2s-4.6-1.6-5.7-1.6l-4.5.1c-.9 0-2.3-.3-3.9-.7 1.6.9 7.4 4.1 13.4 5.5 6.5 1.5 12.8 1.4 14.5 1.2-1.8-.3-3.2-.7-4-1.1z"/></g><path fill="#694c32" d="M401.9 527.4c-2.1-7.9-4.1-19.2-19.4-23.1-2.7-5.1-8.6-6.5-15.6-8.2-26-6.2-36.2 5.3-43.5 12.6-9.3 9.2-14.4 51.1-14.4 51.1l1.6.4c8.9-37.4 17.9-33.8 23.5-33.8 7 0 18.6 7.3 24 8.8 5.9 1.7 20.6-.3 25.4 3 8.1 5.6 12.3 12.1 5.7 40.8l1.6.4c.1 0 14.8-37.8 11.1-52h0zm-42.4 79.2c.3-5.6-.3-8.3-1.5-9.4-1.8-1.6-5.7-4.6-13.1-6.3h0c-7.4-1.8-12.2-.9-14.5-.3-1.6.5-3.4 2.6-5.6 7.7 5-4.4 6.2-3.4 18.5-.5 12.2 3 13.7 2.6 16.2 8.8z"/><g class="s"><path d="M299.2 780.5l-31.7 132.6-79.9-19.1 1-3.3 1-3.5 5.7-19.1c.2-.6.3-1.2.5-1.8l9.3-31.9 19.9-86.8c-.5.9 3.9-26.7 10.6-54 1.5-5.6 3-11.5 4.3-17.6l11.6-46.6c.5 0 1.3-.1 2.5-.2 9.2-.7 37.5-3.2 43.9-4l7.5-1c.2 0 .3 0 .5-.1.1 0 .3 0 .4-.1.4-.1.8-.1 1.2-.2.3 0 .6-.1.9-.1 1.1-.2 2.1-.3 3.1-.4 3.1-1.7 6.4-5.3 7.1-6.4-.7 7.6 8.5 21.2 11.2 24.8.3.4.4.6.6.8l.1.1c.3.1.6.2 1 .3.2 0 .4.1.6.1l-32.9 137.5z"/><path d="M348.7 932.4L267.5 913l3.6-15.1 61-255.2 2.1.5c.4.1.6.2.6.2.1 0 .4.1.6.2h0c.1 0 .2-.1.4-.2.4-.1.7-.3 1-.5 13.7-6.3 19.1-13.8 20.6-16.2.3-.5.4-.8.4-.8.2 2 .8 5.6 2.5 8.7.2.4.4.7.6 1.1l.1.1s.8.6 2.3 1.6c.2.2.5.3.8.5s.7.5 1.1.7c1 .7 2.1 1.4 3.4 2.3.2.1.4.3.6.4.1.1.3.2.4.3.2.1.4.2.6.4.3.1.5.3.7.5 2.7 1.8 6.2 4 10.2 6.4 5.1 3.1 10.8 6.4 16 9.4 5.3 3.1 9.9 7 13.2 8.9l-10.6 46c-1.6 6-2.9 11.9-4.1 17.6l-12.9 54.4v.9c-5.2 15.7-12.9 42.8-19.2 77l-2.7 11.4-8.9 42.9-3.2 15z"/></g><path d="M334.4 643.3l.2.7c.3.9 1.1 2.8 3.1 7.2l1.9 4.2 5.2 11.4.6 1.4.8-1.3 10.3-15.1c3.4-4.9 6.5-9.5 7.6-13.9-.3-.2-.5-.3-.8-.5-1.5-1-2.3-1.6-2.3-1.6l-.1-.1c-2.1-3.3-3-7.5-3.2-9.8 0 0-4.5 9.3-21.1 17-.4.1-.7.3-1 .5-.1.1-.2.1-.3.1.1 0-.5-.1-.9-.2h0z" class="AA"/><path d="M335.3 643.6l10.3 22.9 10.1-14.8c3.5-5 6.7-9.9 7.7-14.2l-2.4-1.6v-.2a14.65 14.65 0 0 1-1.8-3.8c-.8-2.3-1.2-4.6-1.3-6 0 0-4.5 9.3-21.1 17-.4.1-.7.3-1 .5-.2 0-.3.1-.5.2h0z" class="s"/><path d="M308 641.8l.4 3.7c.4 3.5 1.9 13.6 1.9 14l.2 1.5 14.4-12.6 6.6-5.8h-.1c-.6-.1-1-.3-1-.3l-.1-.1c-.1-.1-.3-.4-.6-.8-2.6-3.6-11.9-17.3-11.2-24.8-.8 1.2-4 4.7-7.1 6.4-1 .1-2 .3-3.1.4-.3 0-.6.1-.9.1-.9 4.2-.3 10.1.6 18.3h0z" class="AA"/><path d="M309.2 645.3c.4 3.5 1.9 14 1.9 14l19.4-16.9c-.1-.2-.4-.5-.6-.9-2.6-3.6-11.9-17.3-11.2-24.8-.5.8-2.3 2.8-4.4 4.6-.9.7-1.8 1.4-2.7 1.9l-2.5.3c-.2 0-.4.1-.6.1-1.4 4.3-.4 11.4.7 21.7h0z" class="s"/><path fill="#3e5180" d="M325 648.4l2.2 5.9 6 1.4 4.6-4.5-3.1-7.2-.2-.7-2.8-.7-6.7 5.8zm-63.3 231.5l48.4-181.1s7.6-29.9 10.8-35.6c1.5-3 3.6-6.1 6.2-8.8l2.8.7 3.3.8c1.1 3.6 1.6 7.3 1.5 10.7.3 6.6-6.5 36.7-6.5 36.7L286.9 886l-13.9 3-11.3-9.1z"/><linearGradient id="r" gradientUnits="userSpaceOnUse" x1="262.506" y1="1133.51" x2="305.111" y2="1143.699"><stop offset="0" stop-color="#878787"/><stop offset=".42" stop-color="#8a8a8a"/><stop offset=".791" stop-color="#959595"/><stop offset="1" stop-color="#9f9f9f"/></linearGradient><path fill="url(#r)" d="M317.5 1080.8c1.2-4.4 25.5-113.3 26.1-119.2-3.9-.8-18.5-4.1-37.9-8.6l-72.9 364.6c11.5 2.5 22.9 3.5 30.1 2.7 2.6-13.4 49.5-218.9 54.6-239.5h0z"/><linearGradient id="s" gradientUnits="userSpaceOnUse" x1="133.995" y1="1102.849" x2="176.669" y2="1113.055"><stop offset="0" stop-color="#9f9f9f"/><stop offset=".21" stop-color="#959595"/><stop offset=".58" stop-color="#8a8a8a"/><stop offset="1" stop-color="#878787"/></linearGradient><path fill="url(#s)" d="M151.5 1041.1c.9-4.5 28.6-112.6 30.6-118.1 3.8 1.1 18.4 4.7 37.7 9.5l-100 358.2c-11.4-3-22-7.2-28.1-11.2 3.9-13.2 55-217.7 59.8-238.4h0z"/><linearGradient id="t" gradientUnits="userSpaceOnUse" x1="163.085" y1="1110.122" x2="276.057" y2="1137.14"><stop offset=".012" stop-color="#878787"/><stop offset=".276" stop-color="#929292"/><stop offset=".492" stop-color="#9f9f9f"/><stop offset="1" stop-color="#878787"/></linearGradient><path fill="url(#t)" d="M305.7 953.1l-43-10-42.8-10.5-100 358.2c11.8 3 24.5 4.7 34.3 3.2 8-35.5 103.3-335.5 104.5-339.4.1 0 .2.1.3.1.3.1.5.1.9.2.3.1.6.2.9.2.1 0 .2.1.3.1l-60.3 349.9c8.1 5.7 20.2 10 32.1 12.6l72.8-364.6z"/><path d="M392.4 976.6c-4.3-.4-23.9-4.1-35.2-7.2L382.8 786v-.9c.4-1.2 6.5-27.1 12.9-54.4l4.1-17.6 10.8-46.9-.1-.1c.8-.6 19.5 14.3 20.3 22.2 2.1 25.3-14.9 176.3-38.4 288.3h0zm-121.3 18.9c0 .1 0 .2-.1.2-12.7-3.3-99.5-23.4-106.1-25.3l22.7-76.4c.3-1.1.7-2.2 1-3.3.4-1.2.7-2.4 1-3.5l5.7-19.1c.2-.6.3-1.2.5-1.8l9.3-31.9 20-86.9c.3-2.7 27.4-112.5 29-118.4 0-.2.1-.2.1-.2h.1c9.9-.5 45.1-4 51.3-4.8.5-.1.8-.1.9-.1-7.1 37.6-7.1 81.5-5.1 112.5.6 9.9 1.5 18.5 2.4 25.1.4 3.4.9 6.2 1.3 8.5h0c-.7 1.2-1.3 2.4-2 3.6l-.9 1.5c-.3.6-.6 1.1-.9 1.7s-.7 1.2-1 1.8-.7 1.2-1 1.8l-4.7 8.1c-.2.4-.4.7-.6 1.1-.3.5-16.1 66.6-29.5 122.7l-18 77.3c4 .8 13.4 3.1 24.6 5.8h0z" class="AK"/><path d="M305 770l-.6 1.2-.6 1.1c-.2.5-.5.9-.8 1.4l-.9 1.5c-.2.4-.5.8-.7 1.2s-.5.8-.7 1.2c-21.3-46.9-39.2-120.4-39.2-120.4l19.1-5.7s-10.3-9.9-12-12.1c10.1-2.8 26.8-11.2 27.3-11.4 2.1-1 3.9-2.1 5.4-3.3 2.3-.3 4-.6 4.9-.8-10.4 55.6-5.2 124.9-1.2 146.1h0z" class="u"/><path d="M335.6 1011.1c-4.6-.9-41.2-10-64.5-15.6l-24.7-5.9c1.2-7.1 47-199.2 47.5-200 .2-.3.4-.7.6-1.1l4.7-8.1c.3-.6.7-1.2 1-1.7l4.8-8.7c.1-.2.2-.4.4-.7 3.3-6.1 7.8-14.9 12.9-25.2h0c18.4-37.2 43.9-92.3 46.9-105.5v-.2c.8.7 2 1.5 3.3 2.4.2.1.4.3.6.4.1.1.3.2.4.3.2.1.4.3.6.4.3.1.5.3.7.5 12 7.9 35 19.7 39.5 23.6v.3c0 .2-.1.4-.2.8l-10.6 46c-1.6 6-2.9 11.9-4.1 17.6l-12.9 54.4v.9c-5.2 15.7-12.9 42.8-19.2 77-1.1 5.9-2.1 12.1-3.1 18.5l-4.4 23.1-.3 1.8-4.4 23.3-15.5 81.4z" class="AK"/><path d="M390.5 687.9s-43.6 48.4-84.1 88.9l-4.1 4.1-7.8 7.7 10.6-18.6c15-27.3 56.6-115.1 60.2-131.5 1 .8 2.3 1.7 3.9 2.8.8 1.9 1.9 4 3.5 6 .7.9 10.9 15.5 18.5 22.6-2.9.2-15.3 4.2-15.3 4.2l14.6 13.8z" class="u"/><path d="M355.7 906.4l-37.3-7.3c.1-.3.1-.5.1-.5l.3-1.4 37.2 7.3-.3 1.9z" class="AB"/><path d="M351.3 929.6c-10.1-1.3-18.2-2.6-28.8-5.1-5.5-1.3-8.4-7.9-7.4-11.6.4-1.5 2.5-10.8 3.3-13.8l37.3 7.3-4.4 23.2zm-122.2-37.2c-.8 3.8-6.5 8.3-12.1 7-10.8-2.6-18.7-5.2-28.5-8.6.3-1.2.7-2.4 1.1-3.6l5.7-19.1 37.3 10.5-3.5 13.8z" class="u"/><path d="M233 876.7l-.3 1.4s0 .2-.1.5L195.3 868c.2-.6.3-1.2.5-1.8l37.2 10.5z" class="AB"/><path d="M254.2 628.7h-.1s0 .1-.1.2l-29 118.4s0 .1-.1.1h0c-.5.9-2.3 5.6-4.9 13l-55.5 162.8c-11.5-2.3-30.7-7.9-34.7-9.5 29.6-110.5 82.8-252.9 96.3-274.5 4.2-6.6 27.6-11.3 28.1-10.5z" class="AK"/><path d="M304.6 799.9c-.6 2.6-3.3 4.3-5.9 3.6-2.6-.6-4.3-3.3-3.6-5.9.6-2.6 3.3-4.3 5.9-3.6s4.3 3.2 3.6 5.9z" class="AL"/><g class="AM"><use xlink:href="#J"/><path d="M302.3 799.3c-.1.5-.6.8-1.1.7s-.8-.6-.7-1.1.6-.8 1.1-.7.8.6.7 1.1z"/></g><use xlink:href="#K" class="AL"/><g class="AM"><use xlink:href="#L"/><path d="M290.4 858.7c-.1.5-.6.8-1.1.7s-.8-.6-.7-1.1.6-.8 1.1-.7c.6.1.9.6.7 1.1z"/></g><path d="M277.6 922.7c-.6 2.6-3.3 4.3-5.9 3.6-2.6-.6-4.3-3.3-3.6-5.9.6-2.6 3.3-4.3 5.9-3.6 2.6.6 4.2 3.3 3.6 5.9z" class="AL"/><path d="M272.2 921.4c-.1.5-.6.8-1.1.7s-.8-.6-.7-1.1.6-.8 1.1-.7.8.6.7 1.1zm3.1.8c-.1.5-.6.8-1.1.7s-.8-.6-.7-1.1.6-.8 1.1-.7.8.6.7 1.1z" class="AM"/><path d="M350 744.4l1.6-6.7 35 8.4-1.6 6.7-35-8.4z" class="u"/></g><linearGradient id="u" gradientUnits="userSpaceOnUse" x1="10.865" y1="948.346" x2="195.065" y2="948.346"><stop offset="0" stop-color="#53cd9f"/><stop offset="1" stop-color="#0d7a5c"/></linearGradient><ellipse fill="url(#u)" cx="103" cy="948.3" rx="92.1" ry="24.1"/><path d="M134.3 935.9v-13l14.8-4.1 3.3 1.5.5 15.6-4.6 13.6-14-13.6z" class="v"/><path d="M166.5 670.6L156 926.5h-24.5L110 733.1l28.2-86.7 28.3 24.2z" class="y"/><path d="M39.7 935.9v-13l14.8-4.1 3.3 1.5.6 15.6-4.7 13.6-14-13.6z" class="v"/><path fill="#847d3d" d="M156 671.2L60.2 926.6l-23.5-1.9s29.2-234.1 46.7-256.4 55.8-17.5 55.8-17.5l16.8 20.4z"/><path fill="#d1eaf2" d="M174.7 952.7H132c-.7 0-1.3-.6-1.3-1.3v-2c0-.7.6-1.3 1.3-1.3h42.7c.7 0 1.3.6 1.3 1.3v2c0 .7-.6 1.3-1.3 1.3z"/><linearGradient id="v" gradientUnits="userSpaceOnUse" x1="131.237" y1="940.992" x2="175.956" y2="940.992"><stop offset="0" stop-color="#fb9a2b"/><stop offset="1" stop-color="#e65925"/></linearGradient><path fill="url(#v)" d="M132.8 934.3l-1.5 12.7c-.2 1.6.7 3 1.8 3H173c1 0 2.1-.6 2.6-1.9.6-1.2.7-3.1-1.1-5.6-3.5-4.9-14.7-6.2-20.5-10.2-.3-.2-.7-.4-1.2-.4h-17.9c-1-.1-1.9.9-2.1 2.4z"/><path fill="#d1eaf2" d="M80.7 952.7H38c-.7 0-1.3-.6-1.3-1.3v-2c0-.7.6-1.3 1.3-1.3h42.7c.7 0 1.3.6 1.3 1.3v2c0 .7-.6 1.3-1.3 1.3z"/><linearGradient id="w" gradientUnits="userSpaceOnUse" x1="37.237" y1="940.992" x2="81.956" y2="940.992"><stop offset="0" stop-color="#fb9a2b"/><stop offset="1" stop-color="#e65925"/></linearGradient><path fill="url(#w)" d="M38.8 934.3L37.3 947c-.2 1.6.7 3 1.8 3H79c1 0 2.1-.6 2.6-1.9.6-1.2.7-3.1-1.1-5.6-3.5-4.9-14.7-6.2-20.5-10.2-.3-.2-.7-.4-1.2-.4H40.9c-1-.1-1.9.9-2.1 2.4z"/><path d="M231.2 602.6c-.4.4-.3 1.1.3 1.2 4.3 1.2 17.9 4.9 17.8 6.1-.1 1.4-12.3-1.7-13-.6s11.3 3.8 11 5.2c-.3 1.5-11.1-1.3-11.5-.8-.3.6 9.8 4.4 10.1 5.4s-10.9-1.8-11.5-1.2 6.5 5.1 6.2 5.7c-.3.7-.4 1.1-19.4-4.4l-7.4-2.5-4.9-5.3 3.7-7.9s23.8-9 24.6-8.4c.9.7.7 1.6-6 7.5h0zm-85.9-86.7s-11.8 7-21.1 0h0l2.2-17.1 18.3-3.8.6 20.9z" class="v"/><path d="M145.1 506.2l-.3-11.2-18.6 5.8-.5 4.2c4.1 1.5 11.9 3.3 19.4 1.2z" class="AC"/><path fill="#225e64" d="M216.5 594c-9.4 2.2-31.4 1.1-48.2-.2-.1-13.8-.7-26.7-1.9-35.7-4.3-32.1-19.2-42.5-19.2-42.5-14.8 1.8-25.1-6.1-25.1-6.1-19.9.2-31.4 11-31.4 11-30.5 26.3-7.4 80.2-7.4 80.2l-8.4 71.2c18.9 6.5 96.2 2.6 96.2 2.6s-3.8-22.7-3.2-45.7c24.5-1.4 48.5-5.3 48.5-5.3 1-5.3.1-29.5.1-29.5h0z"/><path d="M114.4 546.1c0 10.7 4.6 20.9 12 28.2 3.7 3.7 8 6.8 12.6 9.2s9.5 4.4 14.5 5.8c.6.2 1.2.4 1.9.6l1.9.5 3.8.9 3.9.7 1.9.4 2 .3c2.6.4 5.2.8 7.9 1l3.9.4c1.3.1 2.6.1 4 .2 10.6.5 21.2.3 31.8-.2-10.5 1.4-21.2 2.1-31.9 1.9-10.6-.3-21.4-1.4-31.7-4.5-5.2-1.5-10.2-3.5-14.9-6.1s-9.1-5.9-12.8-9.8c-1.9-2-3.5-4.1-5-6.4-1.4-2.3-2.6-4.7-3.6-7.2-.9-2.5-1.6-5.1-2-7.8-.3-2.8-.5-5.5-.2-8.1h0zm102.1 77.4c-11.6 2.6-23.3 4.3-35.2 5.4-11.8 1-23.7 1.4-35.6.6s-23.8-2.6-35-6.8c-5.6-2.1-11-4.8-15.8-8.4-4.7-3.6-8.8-8.2-11.5-13.5a40.78 40.78 0 0 0 12.1 12.7c4.8 3.3 10.2 5.8 15.7 7.7 5.6 1.9 11.3 3.2 17.1 4.2s11.7 1.6 17.5 2c11.8.8 23.6.6 35.4-.1a527.82 527.82 0 0 0 17.7-1.5l17.6-2.3zm-114-151.3s-5.1-26.4 9.8-35.7 30.2-7.6 40.5-1.4c10.3 6.3 15.7 27 10.6 38.5l-34.3-12.4-26.6 11z" class="AN"/><path d="M157.5 471.7c-1.1 3.2.2 6.5 2.9 7.3s5.7-1.1 6.7-4.3c1.1-3.2-.2-6.5-2.9-7.3-2.7-.9-5.7 1.1-6.7 4.3z" class="AC"/><path d="M158 490c.7-1.4 1.3-2.9 1.7-4.4 1.2-4.1 1.6-8.5 1.7-12.2 0-.8.1-1.6.2-2.4.3-3.2 0-6.6-1-10-3.4-11-14.1-18.7-25.9-18.6-16 .1-28.1 13.2-26.8 28.2-1.8-.8-3.7-.8-5.3 0-3.1 1.6-3.9 6-1.8 9.7s6.3 5.4 9.4 3.8a4.44 4.44 0 0 0 1.1-.8c2.4 12.7 14 21.7 26.9 20.5 6.3-.6 11.9-3.5 15.8-7.9.3-.3.5-.6.8-.9 1.4-1.5 2.4-3.2 3.2-5h0z" class="v"/><g fill="#333"><use xlink:href="#M"/><use xlink:href="#M" x="18.5" y="-.9"/></g><path d="M136.3 466.5c-1.2-.4-2.3-.6-3.5-.8-1.1-.1-2.2-.2-3.3 0s-2.1.4-3.1.9l-.4.2c-.1.1-.2.1-.4.2l-.8.4-1.6.9 1-1.5c.4-.4.8-.9 1.4-1.3 1-.8 2.3-1.2 3.6-1.4s2.7 0 3.9.4c1.3.5 2.4 1.1 3.2 2h0zm7.7-.7c.7-1 1.8-1.7 2.9-2.3 1.2-.5 2.5-.8 3.8-.7s2.6.4 3.7 1.1c.6.3 1 .7 1.5 1.1.4.4.8.9 1.2 1.4-.6-.2-1.1-.5-1.6-.8l-.8-.3c-.1-.1-.3-.1-.4-.2l-.4-.1c-1.1-.4-2.1-.6-3.2-.6-1.1-.1-2.2 0-3.3.3l-3.4 1.1z" class="AN"/><path d="M140.3 465.8c-.4 1.6-.4 3.3-.3 4.9l.4 2.5c.2.9.6 1.8 1.2 2.5l.3.3.3.2c.1.1.3.2.3.3.2.2.3.5.4.7.2.5 0 1.2-.3 1.8-.8 1.2-2.2 2-3.8 2.5 1.7.1 3.6-.3 4.8-1.8.6-.7 1-1.7.8-2.8-.1-.3-.1-.5-.3-.7-.1-.2-.3-.4-.4-.7l-.9-.9c-.4-.5-.7-1.2-1-1.9s-.4-1.5-.6-2.2l-.9-4.7z" class="AC"/><path d="M147.6 484.6c-.8 2.8-4.2 4.9-8.3 4.8s-7.5-2.3-8.2-5.1l16.5.3z" class="s"/><path d="M108.5 471.4c-1.5-1.4-2.8-1.4-2.8-1.4l1.1-8.4 2.8-5 11.2-13.7c.4-.3 8.4-4.5 8.9-4.7s11.5 1.9 11.5 1.9 19.5-3.2 15.9 6.8c-3.7 10-18 14.8-18.7 14.3 2.4-2.2 2.9-8.6 2.9-8.6-10.5 10.5-29.8 17.7-32.8 18.8h0z" class="AN"/><path d="M506.7 133.3v225.2c0 12.7-10.3 23-23 23H258.4c-12.7 0-23-10.3-23-23V133.3c0-12.7 10.3-23 23-23h225.2c12.7 0 23.1 10.3 23.1 23z" class="x"/><path d="M350.9 157.9c-11.4 6.8-20.5 18.5-23.2 30-3.4 14.6-1.8 30-5.6 44.6-2.9 11-8.8 20.3-14.9 28.8-4.2 5.9-8.8 11.9-11 19.5-3 10.1-1.1 20.8.3 30.8 1.4 9.8.9 19.8 2.2 29.5 2.5 17.8 9.9 34.6 24.2 37 13.5 2.2 26.9-9.1 40.6-8.5 5.8.2 11.4 2.7 17.3 3.3 2.5.3 5.2.1 7.3-2 1.5-1.5 2.4-3.9 3.3-6.2 5.9-15.4 12.5-31.3 23.1-41.1 3.5-3.3 7.5-5.9 10.1-10.5 2-3.6 2.8-8 3.6-12.3 1.9-11.1 3.4-22.2 4.4-33.5 1.6-18.2 1.5-37.1-4.2-54.6-4.3-13.2-13.1-24.1-22.2-34.3-7.6-8.6-13.8-20.4-25.3-24.5-10.1-3.8-20.8-1.5-30 4z" class="AD"/><path d="M453.2 381.6h-24.6l-11.5-59.1-1.1-.5-35.4-14.4-7.5-3-3.1-1.3-2.3 1-44.9 18.2-3.3 19.8-5.4 31.8-1.3 7.5h-24.2l1.2-18.3 3.6-53.9c.1-2.3.8-4.4 1.9-6.2 1.6-2.8 4.1-4.9 7-6.1l.7-.3 61.2-24.7c3.9-1.6 8.1-1.4 11.7 0l53.4 21.8 7.4 3 .7.3c5.1 2.1 8.3 6.8 8.9 11.9l2.8 28.4 4.1 44.1zM401 215.2c0 25.6-13.3 50.8-29.6 50.8-16.4 0-29.6-25.1-29.6-50.8 0-25.6 13.3-42 29.6-42 16.4-.1 29.6 16.4 29.6 42z" class="w"/><g class="u"><path d="M435.2 381.6H306.3l.1-16.3.1-25.7.2-38.5h127.2l.6 38.7z"/><path d="M321.2 342.6l-34.5-7.1 5.9-28.9a17.51 17.51 0 0 1 10.8-12.8l62.5-24.7c4.1-1.6 8.7-1.6 12.9 0l61.7 24.1c5.8 2.3 10 7.4 11 13.5l4.9 29.5-34.7 5.8-3.3-19.6-45.9-17.9-47.2 18.7-4.1 19.4z"/></g><path d="M371.4 304.7a18.1 18.1 0 0 1-18.1-18.1v-67a18.1 18.1 0 1 1 36.2 0v67a18.1 18.1 0 0 1-18.1 18.1z" class="w"/><path d="M355.9 257.3c2.5 1.8 5 3.2 7.6 4.2s5.2 1.5 7.8 1.5a21.2 21.2 0 0 0 7.8-1.5c2.6-1 5.1-2.4 7.6-4.2-1.2 2.9-3.4 5.3-6.1 7.1s-6 2.7-9.3 2.8c-3.3 0-6.6-1-9.3-2.8-2.6-1.8-4.8-4.2-6.1-7.1zm-7-39.7c.3-.9 1.2-1.5 1.9-2 .8-.5 1.6-.8 2.5-1.1 1.7-.5 3.5-.7 5.2-.8s3.6.1 5.4.8c.9.4 1.7.8 2.4 1.5s1.2 1.6 1.2 2.5c-.6-.7-1.3-1.1-2-1.3s-1.5-.4-2.2-.5c-.8-.1-1.5-.1-2.3-.1l-2.4.1-4.9.1-2.4.1c-.8.3-1.6.3-2.4.7zm20.7 22.7c1-.2 2-.3 3-.4.5-.1 1-.1 1.5-.2.4 0 .6-.2.8-.5s.3-.5.2-.8l-.3-4.5c-.3-4-.4-7.9-.4-11.9 0-1 0-2 .1-3.1.1-.8.4-1.5.8-2a6.73 6.73 0 0 1 1.4-1.5c1.1-.8 2.2-1.1 3.3-1.3s2.2-.2 3.2-.2c1 .1 2 .1 3 .3 1 .1 2 .3 3 .6s2 .6 2.9 1 1.9.9 2.5 1.7c-.9-.5-1.8-.7-2.8-.9s-1.9-.2-2.9-.3c-1 0-1.9-.1-2.9 0-1 0-1.9.1-2.9.1-1.8.1-3.7.5-4.8 1.3-.3.2-.5.4-.6.7-.1.2-.3.6-.3.7-.1.8-.1 1.9-.1 2.8l-.3 11.8c0 1-.1 2-.2 3l-.1 1.5c0 .7-.4 1.4-.9 1.9-.5.4-1.2.7-1.9.6-.5 0-1-.1-1.5-.2-.9.1-1.9 0-2.8-.2z" class="z"/><path d="M381.6 246.5c-1.2 1.7-2.8 2.6-4.5 3.3s-3.5 1-5.3 1-3.6-.3-5.3-1-3.2-1.7-4.5-3.2l.1-.3 4.8 1.1c1.6.3 3.3.4 4.9.4a40.28 40.28 0 0 0 4.9-.3l4.8-1.1.1.1z" class="s"/><g fill="#404b69"><path d="M359.2 226.1h-3.3c-5.5 0-10-4.5-10-10 0-2.6 2.1-4.8 4.8-4.8h12.8a5.34 5.34 0 0 1 5.3 5.3c-.1 5.2-4.4 9.5-9.6 9.5zm-8.6-13.8c-2.1 0-3.7 1.7-3.7 3.7a8.96 8.96 0 0 0 9 9h3.3c4.7 0 8.5-3.8 8.5-8.5 0-2.3-1.9-4.3-4.3-4.3h-12.8zm37.9 13.8h-3.3c-5.2 0-9.5-4.3-9.5-9.5a5.34 5.34 0 0 1 5.3-5.3h12.8c2.6 0 4.8 2.1 4.8 4.8-.1 5.5-4.6 10-10.1 10zm-7.5-13.8c-2.3 0-4.3 1.9-4.3 4.3 0 4.7 3.8 8.5 8.5 8.5h3.3a8.96 8.96 0 0 0 9-9c0-2.1-1.7-3.7-3.7-3.7H381z"/><path d="M376.7 217.4h-1c0-2-1.6-3.7-3.5-3.7s-3.5 1.6-3.5 3.7h-1c0-2.6 2-4.7 4.5-4.7s4.5 2.2 4.5 4.7zm-30.4-1.5c-.1 0-.2 0-.3-.1l-4.5-2.8c-.2-.2-.3-.5-.2-.7.2-.2.5-.3.7-.2l4.5 2.8c.2.2.3.5.2.7 0 .2-.2.3-.4.3zm56-3.6h-17a.5.5 0 1 1 0-1h17a.5.5 0 1 1 0 1z"/></g><path d="M340.1 181v25.3s5.4-11.6 20.3-12.6 44.3 29.6 45.6 35.4c1.2 5.8 2.4-65.4-19.1-65.4S340.1 181 340.1 181z" class="AD"/><path d="M838.2 132.3v225.2c0 12.7-10.3 23-23 23H589.9c-12.7 0-23-10.3-23-23V132.3c0-12.7 10.3-23 23-23h225.2c12.8 0 23.1 10.3 23.1 23z" class="x"/><path d="M677 207.1l-12.4-5.1s-11.6-69.4 36.5-69.4 38.9 67.9 38.9 67.9l-12.9 6.6H677z" class="AD"/><path d="M796.2 380.6h-30.9l-10-38.8-8.8-34-1-.4-27.8-11.4-15-6.1-44.2 17.9-18.5 72.8h-31.1l7.2-93.8c.6-7.9 5.6-14.3 12.5-17.1l1.8-.7 63.8-25.8c5.8-2.4 12.1-2.2 17.5 0l11.7 4.8 53.5 21.8c7.3 3 11.8 9.7 12.4 17.1l3.7 48.5 3.2 45.2z" class="w"/><g fill="#3b3348"><path d="M632.7 273.6h139.6v107H632.7z"/><use xlink:href="#N"/></g><g class="w"><use xlink:href="#O"/><use xlink:href="#P"/></g><path d="M689.5 230.5c2.1 1.7 4.2 3 6.4 3.9 2.2 1 4.4 1.4 6.7 1.4s4.5-.5 6.7-1.4 4.3-2.3 6.4-3.9c-1.1 2.5-3 4.7-5.3 6.2-2.3 1.6-5.1 2.4-7.8 2.4-2.8 0-5.5-.9-7.8-2.4s-4.2-3.7-5.3-6.2zm-19.1-55.8s6.9-10.2 11.1-11.1c14.6-3.2 42 10.3 44.6 27.7l2.1-6s-3.1-13.3-13-19.7c11.2 6 14.5 16.9 14.5 16.9l5.7-8.9S724.8 137 704 138.9c-20.9 1.9-33.6 26.1-33.6 35.8z" class="AD"/><path d="M679.6 190.6c.2-.9 1-1.6 1.8-2.2a8.53 8.53 0 0 1 2.5-1.3c1.8-.6 3.6-.9 5.4-.9h1.4c.5 0 1 .1 1.4.2 1 .2 1.9.5 2.8.9s1.7 1 2.3 1.8c.6.7 1.1 1.7 1.1 2.6-.6-.7-1.3-1.1-2-1.4s-1.5-.5-2.2-.7l-2.3-.3h-2.3l-4.9.2c-.8.1-1.6.1-2.4.3-1 .1-1.8.3-2.6.8zm20.7 20.8c1-.2 1.9-.3 2.9-.4.5-.1 1-.1 1.4-.2.4 0 .7-.2.9-.4a1.08 1.08 0 0 0 .3-.7l-.1-1.3-.2-2.9c-.3-3.8-.4-7.7-.3-11.6 0-.5 0-1 .1-1.5 0-.3 0-.5.1-1 0-.2.1-.3.2-.5s.1-.3.2-.4a6.56 6.56 0 0 1 2.5-2.7c2.1-1.2 4.3-1.4 6.3-1.2 2 .1 3.9.4 5.9 1 1 .3 1.9.6 2.8 1.1s1.7 1.1 2.3 1.9c-.8-.6-1.7-.9-2.6-1.1s-1.8-.4-2.8-.4c-1.9-.2-3.7-.1-5.6-.1-1.8.1-3.5.4-4.7 1.3-.6.4-1.1.9-1.3 1.5-.1.1-.1.3-.1.4v.5c0 .4 0 .9-.1 1.4l-.3 11.5c-.1 1-.1 1.9-.2 2.9l-.1.7c0 .2 0 .4-.1.8-.1.7-.5 1.3-1.1 1.7-.5.4-1.3.5-1.8.4s-1-.1-1.4-.2c-1.2-.2-2.2-.3-3.1-.5zm11.9 7.6c-1.3 1.3-2.9 2-4.5 2.6-1.6.5-3.4.9-5.1.9s-3.5-.1-5.1-.6c-1.7-.4-3.3-1.2-4.7-2.2 1.8-.2 3.4-.2 5-.2l4.7-.1 4.7-.2 5-.2z" class="z"/><path d="M838.2 469.9v225.2c0 12.7-10.3 23-23 23H589.9c-12.7 0-23-10.3-23-23V469.9c0-12.7 10.3-23 23-23h225.2c12.8 0 23.1 10.3 23.1 23z" class="x"/><path d="M683.4 481.8c-6.2.8-12.2 4.9-13.7 11-1.6 6.6 1.6 15.4-4 19.3-2.6 1.8-6.1 1.6-9.2 2.3-6 1.4-10.5 6.6-12.5 12.4s-1.9 12.1-1.4 18.2c.2 2.6.4 5.2-.4 7.6-2.4 6.4-10.7 7.5-17.2 9.6-13 4.2-22.8 16.9-23.5 30.6-.3 6.9 2.1 14.6 8.3 17.6 4.6 2.2 10.7 1.6 14 5.4 1.7 2 2.2 4.8 2.6 7.4 2 11.9 5.9 24.6 15.8 31.5 8.4 5.8 19.2 6.2 29.4 6.4 5.7.1 12.2-.1 16.1-4.4 2.8-3.1 3.5-7.7 5.9-11.1 7.5-10.4 27.2-5 33.6-16.2 2.9-5.1 1.5-11.5 2.6-17.2 2.1-11.1 12.8-18.3 18.1-28.3 5.9-11 4.7-24.4 2-36.6s-6.9-24.3-6.4-36.8c.2-6 1.4-12.5-1.8-17.6-3-4.8-8.5-12.2-14.1-13.1-8.3-1.4-16.5 5.4-24.7 5.2-6.8-.1-12.5-4-19.5-3.2z" class="AE"/><path d="M785.6 718.2h-23.8l-13.2-67.9-32.9-13.4-3.6-1.5-7.4-3-3.1-1.3-2.3 1-44.9 18.2-1.5 9.2-5.8 34.2-4.1 24.5h-23.3v-.2l5.4-80.8c.2-2.8 1.2-5.4 2.7-7.5 1.6-2.2 3.7-3.9 6.2-4.9l.7-.3 61.2-24.7c3.9-1.6 8.1-1.4 11.7 0l13.7 5.6 9.4 3.8 37.6 15.3.6.3c5.1 2.1 8.3 6.8 8.9 11.9l2.8 28.4 5 53.1zm-53-175.2c0 25.6-13.3 50.8-29.6 50.8-16.4 0-29.6-25.1-29.6-50.8 0-25.6 13.3-42 29.6-42 16.3-.1 29.6 16.3 29.6 42z" class="w"/><g fill="#606060"><path d="M766.9 718.2H637.8l.2-50.8.1-16 .1-22.5h127.3l.6 38.7z"/><path d="M652.7 670.4l-34.5-7.1 5.9-28.9a17.51 17.51 0 0 1 10.8-12.8l62.5-24.7c4.1-1.6 8.7-1.6 12.9 0L772 621c5.8 2.3 10 7.4 11 13.5l4.9 29.5-34.7 5.8-3.3-19.6-45.9-17.9-47.2 18.7-4.1 19.4z"/></g><path d="M703 632.5a18.1 18.1 0 0 1-18.1-18.1v-67a18.1 18.1 0 1 1 36.2 0v67c0 9.9-8.1 18.1-18.1 18.1z" class="w"/><path d="M687.5 585.1c2.5 1.8 5 3.2 7.6 4.2s5.2 1.5 7.8 1.5a21.2 21.2 0 0 0 7.8-1.5c2.6-1 5.1-2.4 7.6-4.2-1.2 2.9-3.4 5.3-6.1 7.1s-6 2.7-9.3 2.8c-3.3 0-6.6-1-9.3-2.8s-4.9-4.2-6.1-7.1z" class="z"/><path d="M682.7 495.2c-1.8 1.8-2.7 4.2-4 6.3-2.9 4.7-7.8 8.2-10.7 12.9-3.8 6.2-3.9 13.6-3.9 20.7 0 1.5 0 3.1 1 4.2.8.9 2 1.3 3.2 1.5 5.8.8 10.5-4.2 13.1-9.1 2.6-4.8 4.7-10.5 9.9-13 2.1-1.1 4.7-1.4 7-1.1.9.1 1.9.4 2.5 1 1.1 1 1.1 2.6 1.7 3.9 1.8 4.3 8 5.1 13 4.8 5-.2 11-.4 13.9 3.3 1.4 1.7 1.7 4 3 5.9 1.2 1.8 4.2 3.1 5.9 1.6.8-.7 1-1.9 1.2-2.9 1.3-10.8.1-21.8-3.6-32.1-1-2.8-2.2-5.6-4.7-7.5-3.3-2.6-8-2.8-12.3-2.4s-8.6 1.4-12.9.9c-6.9-.9-17.2-5-23.3 1.1z" class="AE"/><path d="M679.7 545.6c.2-.9.9-1.6 1.7-2.1.7-.6 1.5-.9 2.4-1.3 1.7-.6 3.4-.9 5.1-1 .9 0 1.7-.1 2.6.1.9.1 1.9.4 2.7.8a5.1 5.1 0 0 1 2.2 1.9c.5.8.8 1.8.7 2.6-1.2-1.4-2.4-2-3.8-2.2-1.3-.3-2.7-.1-4.4-.1l-4.7.2c-.8.1-1.5.1-2.3.3-.7.1-1.5.3-2.2.8zm20.7 20.8c.9-.2 1.9-.3 2.8-.4.5-.1.9-.1 1.4-.2.3 0 .4 0 .6-.1.1-.1.3-.1.4-.2a1.08 1.08 0 0 0 .3-.7c0-.1-.1-.8-.1-1.2-.1-1-.1-1.9-.1-2.9 0-3.8.2-7.6.7-11.3l.3-2.1c0-.2.1-.5.2-.9.2-.5.3-1 .6-1.5.2-.5.6-1.1 1-1.5.4-.5 1-.9 1.6-1.1.6-.3 1.1-.4 1.7-.5 1.1-.2 2.2-.1 3.1 0 1.9.1 3.8.4 5.7 1 .9.3 1.8.6 2.7 1.1.8.5 1.7 1 2.2 1.9-.7-.6-1.6-.9-2.5-1.1s-1.8-.4-2.7-.4c-1.8-.2-3.6-.2-5.5-.1-1.8 0-3.5.4-4.1 1.3-.4.4-.6 1.2-.9 1.9l-.1.5-.3 2.1-1.4 11.1-.3 2.8-.1.7c0 .2 0 .6-.1.9-.2.7-.6 1.2-1.2 1.6-.3.2-.6.3-.9.3-.3.1-.6 0-.8 0-.5-.1-.9-.1-1.4-.2-1-.5-1.9-.6-2.8-.8z" class="z"/><use xlink:href="#Q" class="s"/><linearGradient id="x" gradientUnits="userSpaceOnUse" x1="1074.93" y1="180.978" x2="1084.154" y2="180.978"><stop offset="0" stop-color="#fb9a2b"/><stop offset="1" stop-color="#e65925"/></linearGradient><path fill="url(#x)" d="M1082.9 184.8l1.3-2.5c-2.6-1.4-5-3.1-7.3-5.1l-2 2c2.4 2.2 5.1 4.1 8 5.6z"/><path d="M1169.8 132.3v225.2c0 12.7-10.3 23-23 23H921.5c-12.7 0-23-10.3-23-23V132.3c0-12.7 10.3-23 23-23h225.2c12.8 0 23.1 10.3 23.1 23z" class="x"/><path d="M1071.5 142.8c-7 34.2 1.2 78-37.3 72.4-19.7-2.9-34.8-16.9-34.8-37.7 0-8.3-.5-15.5 1.7-21.5 1.4-3.7 5.4-6.8 8.9-6.8 0-5.2 6.2-12 13.5-13.8 19.5-4.6 29.2 6.8 48 7.4z" class="AE"/><path d="M1127.7 380.6h-30.9l-10-38.8-8.8-34-1-.4-27.6-11.3-.2-.1-15.1-6.2-44.1 18-18.5 72.8h-31.1l7.2-93.8c.6-7.9 5.6-14.3 12.5-17.1l1.8-.7 63.8-25.8c5.8-2.4 12.1-2.2 17.5 0l11.7 4.8 53.5 21.8c7.3 3 11.9 9.7 12.4 17.1l3.7 48.5 3.2 45.2z" class="w"/><g fill="#3e5180"><path d="M964.3 273.6h139.6v107H964.3z"/><use xlink:href="#N" x="331.6"/></g><g class="w"><use xlink:href="#O" x="331.5"/><use xlink:href="#P" x="331.5"/></g><path d="M1016.4 228.2c2.8 2.1 5.7 3.8 8.6 5 3 1.2 6 1.8 9.1 1.8s6.2-.6 9.1-1.8c3-1.2 5.8-2.9 8.6-5-1.5 3.2-4 5.9-7.1 7.9s-6.9 3-10.6 3.1c-3.8 0-7.5-1.1-10.6-3.1s-5.6-4.7-7.1-7.9z" class="z"/><path d="M1003.2 176.5s8.1-7.9 10.6-13.9c0 0 43.3 18.9 51.8 8.9 8.4-10-8.6-29.6-31.4-29.8s-33.3 23.2-31 34.8z" class="AE"/><path d="M1011.2 188.6c.2-.9 1-1.6 1.8-2.2a8.53 8.53 0 0 1 2.5-1.3c1.8-.6 3.6-.9 5.4-.9h1.4c.5 0 1 .1 1.4.2 1 .2 1.9.5 2.8.9s1.7 1 2.3 1.8c.6.7 1.1 1.7 1.1 2.6-.6-.7-1.3-1.1-2-1.4s-1.5-.5-2.2-.7l-2.3-.3h-2.3l-4.9.2c-.8.1-1.6.1-2.4.3-1.1.2-1.9.3-2.6.8zm20.6 20.8c1-.2 1.9-.3 2.9-.4.5-.1 1-.1 1.4-.2.4 0 .7-.2.9-.4a1.08 1.08 0 0 0 .3-.7l-.1-1.3-.2-2.9c-.3-3.8-.4-7.7-.3-11.6 0-.5 0-1 .1-1.5 0-.3 0-.5.1-1 0-.2.1-.3.2-.5s.1-.3.2-.4a6.56 6.56 0 0 1 2.5-2.7c2.1-1.2 4.3-1.4 6.3-1.2 2 .1 3.9.4 5.9 1 1 .3 1.9.6 2.8 1.1s1.7 1.1 2.3 1.9c-.8-.6-1.7-.9-2.6-1.1s-1.8-.4-2.8-.4c-1.9-.2-3.7-.1-5.6-.1-1.8.1-3.5.4-4.7 1.3-.6.4-1.1.9-1.3 1.5-.1.1-.1.3-.1.4v.5c0 .4 0 .9-.1 1.4l-.3 11.5c-.1 1-.1 1.9-.2 2.9l-.1.7c0 .2 0 .4-.1.8-.1.7-.5 1.3-1.1 1.7-.5.4-1.3.5-1.8.4s-1-.1-1.4-.2c-1.1-.2-2.1-.3-3.1-.5z" class="z"/><use xlink:href="#Q" x="331.5" y="-356.9" class="s"/><g fill="#404b69"><path d="M1027.5 197.9H1013c-2.6 0-4.7-2.1-4.7-4.7v-11.1h20.6c1.8 0 3.2 1.5 3.2 3.2v7.9c.1 2.6-2 4.7-4.6 4.7zm-17.1-13.8v9.1c0 1.5 1.2 2.6 2.6 2.6h14.5c1.5 0 2.6-1.2 2.6-2.6v-7.9c0-.6-.5-1.2-1.2-1.2h-18.5zm46.9 13.8h-14.5c-2.6 0-4.7-2.1-4.7-4.7v-7.9c0-1.8 1.5-3.2 3.2-3.2h20.6v11.1c.1 2.6-2 4.7-4.6 4.7zm-15.9-13.8c-.6 0-1.2.5-1.2 1.2v7.9c0 1.5 1.2 2.6 2.6 2.6h14.5c1.5 0 2.6-1.2 2.6-2.6v-9.1h-18.5z"/><path d="M1040.2 188.7h-2.1c0-1.7-1.3-3.1-3-3.1-1.6 0-3 1.4-3 3.1h-2.1c0-2.9 2.3-5.2 5-5.2s5.2 2.3 5.2 5.2zm-14.1-4.6h-22.5c-.6 0-1-.5-1-1 0-.6.5-1 1-1h22.5c.6 0 1 .5 1 1 .1.6-.4 1-1 1zm39.2 0h-22.5c-.6 0-1-.5-1-1 0-.6.5-1 1-1h22.5c.6 0 1 .5 1 1a.94.94 0 0 1-1 1z"/></g></svg>