<svg xmlns="http://www.w3.org/2000/svg" xmlns:xlink="http://www.w3.org/1999/xlink" viewBox="0 0 960 560" xmlns:v="https://vecta.io/nano"><style><![CDATA[.U{fill:#fff}.V{fill:#cfdeeb}.W{fill:#fdc4a0}.X{fill:#bb957a}.Y{fill:#f2d0c4}.Z{fill:#e3beb3}.a{fill:#7f3d27}.b{fill:#cba089}.c{fill:#303041}]]></style><path opacity=".57" fill="#40b68c" d="M440.8 375.2h0c-28.5 9.1-65.7 14.6-106.6 14.6-42.4 0-80.8-5.9-109.5-15.6l-.2.1c-28.5-9.2-66-14.7-107.2-14.7-42.4 0-80.8 5.9-109.7 15.6h0c-2.5.8-5 1.6-7.7 2.3L0 560h960V405.6c-41.5-16.4-64.1 14.6-87.6 22.8v-.1c-3.7 1.2-7.5 2.2-11.4 3.2v-.1c-19.8 5.1-13-38.6-68-42.5h0l-5.9.3c-.4 0-.7 0-1.1.1-1.8.1-3.4.1-5.2.2-.7 0-1.4.1-2.1.1-1.4.1-3 .1-4.4.1-1.6 0-3.2.1-4.8.1h-1.8c-42.4 0-80.8-5.9-109.5-15.6l-.2.1c-28.5-9.2-65.9-14.7-107-14.7h-.4c-42.6 0-81.2 5.9-109.8 15.6z"/><circle fill="#4f8b72" cx="802.1" cy="80.2" r="20"/><path d="M796.5 85.4c0-.4.1-.9.6-1.3.3-.3.7-.6 1.3-.6.3 0 .7.1 1.2.4.7.4 1.5.7 2.4.7.6 0 1-.1 1.5-.4.3-.3.6-.6.6-1s-.1-.9-.4-1.3c-.3-.3-.9-.6-1.8-1-1.6-.6-2.7-1.3-3.4-2.2s-1-1.9-1-3.1c0-1 .3-1.9.9-2.7.6-.7 1.3-1.3 2.4-1.6v-.9c0-.4.1-.7.4-1s.6-.4 1-.4.7.1 1 .4.4.6.4 1v.7c.7.1 1.5.4 2.2.7.6.3.9.9.9 1.6 0 .4-.1.9-.4 1.2s-.7.4-1.2.4c-.3 0-.6-.1-1-.3-.4-.3-.9-.3-1.2-.3-.9 0-1.3.3-1.3 1 0 .3.1.7.4.9.3.3 1 .6 1.9 1 2.8 1.2 4.1 2.9 4.1 5.6 0 1.3-.3 2.4-1 3.2-.7.9-1.8 1.5-3.1 1.8v.9c0 .4-.1.7-.4 1s-.6.4-1 .4-.7-.1-1-.4-.4-.6-.4-1v-.7c-1.3-.1-2.5-.7-3.5-1.5-1-.2-1.1-.6-1.1-1.2z" class="U"/><g fill="#4ea980"><path d="M236 114.8c-.1-.1-.2-.4-.2-.7V97.8c0-.3.1-.6.2-.7s.4-.2.7-.2h4.7c2.2 0 3.8.7 4.9 2.2s1.6 3.8 1.6 6.9-.5 5.4-1.6 6.9-2.7 2.2-4.9 2.2h-4.7c-.3 0-.5-.1-.7-.3zm5.4-2.7c1.1 0 1.8-.5 2.4-1.4s.8-2.5.8-4.7-.3-3.8-.8-4.7c-.5-1-1.3-1.4-2.4-1.4h-2v12.4h2z"/><use xlink:href="#A"/><path d="M257.5 114.8c-.8-.3-1.1-.7-1.1-1.2 0-.3.2-.7.5-1.2s.6-.7.8-.7c.1 0 .2.1.4.2.2.2.5.3.8.4s.6.2.9.2c.5 0 .9-.1 1.1-.3.3-.2.4-.5.4-1s-.2-.8-.5-1.1-.8-.6-1.6-1c-.8-.5-1.4-1-1.9-1.5-.5-.6-.7-1.3-.7-2.4 0-1.2.4-2.2 1.1-2.9s1.8-1.1 3-1.1c.8 0 1.5.1 2.2.4.7.2 1 .6 1 1 0 .3-.1.7-.3 1.2s-.4.7-.6.7c-.1 0-.3-.1-.6-.3-.4-.2-.7-.3-1.2-.3-.4 0-.8.1-1.1.3s-.4.5-.4.9.1.7.4.9l1.2.8.5.3c.8.5 1.4 1 1.8 1.6s.6 1.4.6 2.4c0 1.3-.4 2.3-1.2 3.1s-1.8 1.2-3.2 1.2c-.7-.1-1.6-.3-2.3-.6zm9 4.9v-13.9l-.1-2.6c-.1-.5-.1-.9-.1-1 0-.2.3-.4.9-.6l1.5-.2c.3 0 .5.1.7.4.1.3.2.7.3 1.2.3-.6.7-1 1.2-1.4.5-.3 1-.5 1.7-.5.8 0 1.5.3 2.1.8.6.6 1.1 1.4 1.4 2.4.3 1.1.5 2.3.5 3.8 0 2.2-.4 3.9-1.2 5.1s-1.8 1.8-3.2 1.8c-.9 0-1.7-.3-2.3-.9v5.4c0 .5-.5.8-1.4.8h-.6c-1 .1-1.4-.1-1.4-.6zm6.1-8.1c.3-.7.5-1.8.5-3.3 0-2.9-.5-4.3-1.6-4.3-.6 0-1.2.4-1.7 1.3v6.7c.4.4.9.6 1.5.6s1-.4 1.3-1zm7.3 2.8c-.6-.6-.9-1.5-.9-2.8V96.2c0-.5.5-.7 1.4-.7h.5c.9 0 1.4.2 1.4.7v15.3c0 .4.1.7.2.8.1.2.3.2.5.2.1 0 .2 0 .4-.1.1 0 .2-.1.3-.1.2 0 .4.2.5.6s.2.8.2 1.1c0 .4-.2.6-.7.8s-1 .3-1.5.3c-1 .1-1.8-.2-2.3-.7z"/><use xlink:href="#B"/><use xlink:href="#C"/><use xlink:href="#B" x="26.6"/><use xlink:href="#D"/><path d="M339 114.4c-.6-.6-1.1-1.4-1.4-2.4-.3-1.1-.5-2.3-.5-3.8 0-2.2.4-3.9 1.2-5.1s1.8-1.8 3.2-1.8c.9 0 1.7.3 2.4.9v-6c0-.5.5-.7 1.4-.7h.6c.9 0 1.4.2 1.4.7v14.5c0 1.2.1 2 .2 2.6l.2 1c0 .2-.3.4-.9.6l-1.5.2c-.3 0-.5-.1-.6-.4s-.2-.7-.3-1.3c-.3.6-.7 1-1.2 1.4s-1 .5-1.7.5c-1.2-.1-1.9-.3-2.5-.9zm4.1-2.2c.3-.2.5-.5.8-.9v-6.7c-.4-.4-.9-.6-1.5-.6s-1.1.3-1.4 1-.5 1.8-.5 3.3.1 2.5.4 3.2.7 1.1 1.2 1.1c.4-.1.7-.2 1-.4zm17.2-3.2c-.1-.1-.3-.2-.3-.4l-2.3-4.4c-.1-.2-.2-.4-.3-.7s-.2-.5-.3-.7h-.1l.2 1.6v10c0 .3-.1.5-.3.6s-.5.2-1 .2h-.9c-.5 0-.8-.1-1-.2s-.3-.3-.3-.6V97.6c0-.3.1-.5.3-.6s.5-.2 1-.2h.7c.4 0 .6.1.9.2s.4.3.5.5l3.6 6.8c.1.2.3.7.5 1.2.1-.4.2-.8.4-1.2l3.5-6.8c.1-.2.3-.4.5-.5s.5-.2.9-.2h.7c.5 0 .8.1 1 .2s.3.3.3.6v16.8c0 .3-.1.5-.3.6s-.5.2-1 .2h-.7c-.5 0-.8-.1-1-.2s-.3-.3-.3-.6v-10c0-.4.1-.9.2-1.6h-.1c-.2.6-.4 1.1-.6 1.4l-2.3 4.4a.78.78 0 0 1-.4.4c-.1.1-.3.1-.5.1h-.6c-.3 0-.5 0-.6-.1z"/><use xlink:href="#B" x="85.6"/><path d="M384.2 114.4v-8.6l-.1-2.6c-.1-.5-.1-.8-.1-.9 0-.3.3-.5.9-.6s1.1-.2 1.6-.2c.3 0 .5.1.6.3s.2.4.2.7.1.5.1.7c.4-.6.9-1 1.4-1.4.6-.4 1.2-.5 1.9-.5 1 0 1.8.3 2.3 1s.8 1.6.8 2.8v9.3c0 .5-.4.8-1.3.8h-.6c-.9 0-1.4-.3-1.4-.8v-8.7c0-.6-.1-1-.3-1.3s-.5-.4-1-.4c-.3 0-.6.1-.9.3s-.5.5-.7.8v9.2c0 .3-.1.5-.3.6s-.6.2-1 .2h-.7c-1 0-1.4-.2-1.4-.7z"/><use xlink:href="#E"/><path d="M409.8 119.7c-.8-.6-1.2-1.4-1.2-2.6 0-.7.2-1.3.5-1.9.4-.5.9-1 1.5-1.3v-.1c-.3-.2-.6-.5-.7-.8-.2-.3-.2-.7-.2-1.1 0-1 .4-1.8 1.2-2.4-1.3-.7-1.9-1.9-1.9-3.7 0-1.5.4-2.6 1.2-3.4s1.9-1.2 3.4-1.2c.6 0 1.1.1 1.5.2h3.6c.2 0 .4.1.5.2.1.2.1.4.1.8v.4c0 .3 0 .6-.1.8s-.2.2-.4.2c-.5 0-.8 0-1.1-.1l-.1.1a4.34 4.34 0 0 1 .5 2.1c0 1.3-.4 2.3-1.1 3.1-.7.7-1.8 1.1-3 1.2-1 .1-1.5.5-1.5 1.2 0 .5.2.8.5.9.4.2.9.3 1.7.5.2 0 .4.1.8.1 1 .2 1.8.6 2.4 1.1s.9 1.3.9 2.4c0 1.3-.5 2.3-1.4 3.1-.9.7-2.3 1.1-4 1.1-1.5 0-2.7-.3-3.6-.9zm5.6-1.9c.4-.3.6-.6.6-1.1s-.2-.9-.6-1.1-1-.4-1.9-.5c-.5-.1-.8-.1-1-.2-.3.2-.6.4-.8.7a1.69 1.69 0 0 0-.3 1c0 .5.2.9.6 1.1.4.3 1 .4 1.7.4.8.1 1.4-.1 1.7-.3zm-.6-10.4c.3-.3.5-.9.5-1.7s-.2-1.4-.5-1.8c-.3-.3-.7-.5-1.3-.5-.5 0-1 .2-1.3.5s-.5.9-.5 1.8c0 1.4.6 2.1 1.7 2.1.7.1 1.1 0 1.4-.4z"/><use xlink:href="#F"/><use xlink:href="#G"/><path d="M448.1 113.4c-.9-1.2-1.3-2.9-1.3-5.2s.4-4 1.3-5.2 2.2-1.8 3.9-1.8 3 .6 3.9 1.8 1.3 2.9 1.3 5.2-.4 4-1.3 5.2-2.2 1.8-3.9 1.8-3-.6-3.9-1.8zm5.3-1.8c.3-.7.4-1.8.4-3.4s-.1-2.7-.4-3.3c-.3-.7-.8-1-1.4-1-.7 0-1.1.3-1.4 1s-.4 1.8-.4 3.3.1 2.7.4 3.4.8 1 1.4 1 1.1-.3 1.4-1z"/><use xlink:href="#H"/><use xlink:href="#I"/><path d="M487.2 114.4V99.8H484a.55.55 0 0 1-.5-.3c-.1-.2-.2-.5-.2-.8V98c0-.4.1-.7.2-.8a.55.55 0 0 1 .5-.3h9.8a.55.55 0 0 1 .5.3c.1.2.2.5.2.9v.7c0 .4-.1.7-.2.9a.55.55 0 0 1-.5.3h-3.2v14.6c0 .5-.4.8-1.3.8h-.8c-.9-.3-1.3-.5-1.3-1z"/><use xlink:href="#F" x="73.9"/><use xlink:href="#J"/><path d="M534 102.2c.5.6.8 1.6.8 2.9v9.3c0 .5-.4.8-1.3.8h-.7c-.9 0-1.3-.3-1.3-.8v-8.6c0-.6-.1-1-.3-1.3s-.5-.4-.9-.4c-.3 0-.6.1-.9.3s-.5.4-.7.7v9.3c0 .5-.4.8-1.3.8h-.7c-.9 0-1.3-.3-1.3-.8v-8.6c0-.6-.1-1-.3-1.3s-.5-.4-.9-.4-.7.1-1 .4c-.3.2-.5.5-.6.8v9.2c0 .3-.1.5-.3.6s-.6.2-1 .2h-.7c-.9 0-1.3-.3-1.3-.8v-8.6l-.1-2.6c-.1-.5-.1-.8-.1-.9 0-.3.3-.5.9-.6s1.1-.2 1.6-.2c.3 0 .5.1.6.3s.2.4.2.7.1.5.1.7c.4-.6.9-1 1.4-1.4.6-.4 1.2-.5 1.9-.5s1.3.2 1.7.5a2.98 2.98 0 0 1 1 1.4c.4-.6.9-1 1.5-1.4.6-.3 1.3-.5 2-.5.8-.1 1.5.2 2 .8zm8.7 12.7c-.8-.2-1.4-.6-1.8-1-.1-.2-.2-.3-.2-.4-.1-.1-.1-.3-.1-.4 0-.4.1-.8.3-1.3.2-.4.4-.7.7-.7.1 0 .3.1.5.2l.4.2c.8.5 1.6.7 2.4.7.7 0 1.2-.2 1.7-.5s.7-.9.7-1.6-.2-1.3-.6-1.7-1.1-.8-1.9-1.3c-.9-.5-1.6-1-2.2-1.4-.6-.5-1-1-1.3-1.7-.3-.6-.5-1.4-.5-2.4 0-1.1.2-2 .7-2.8s1.1-1.4 1.9-1.8 1.8-.6 2.8-.6c.6 0 1.2.1 1.8.2a11.64 11.64 0 0 1 1.5.6c.2.2.4.4.4.7 0 .4-.1.8-.3 1.3s-.4.7-.6.7c-.1 0-.3-.1-.6-.2-.7-.3-1.3-.4-2-.4s-1.3.2-1.7.6-.6.8-.6 1.4c0 .5.1.9.3 1.2s.5.6.8.8.7.5 1.3.8c.3.1.4.2.5.3 1.2.7 2.1 1.4 2.7 2.2s.9 1.8.9 3.1c0 1-.2 1.9-.6 2.7a4.36 4.36 0 0 1-1.9 1.9c-.8.5-1.9.7-3 .7-.8.2-1.6.1-2.4-.1zm25-12.7c.5.6.8 1.6.8 2.9v9.3c0 .5-.4.8-1.3.8h-.7c-.9 0-1.3-.3-1.3-.8v-8.6c0-.6-.1-1-.3-1.3s-.5-.4-.9-.4c-.3 0-.6.1-.9.3s-.5.4-.7.7v9.3c0 .5-.4.8-1.3.8h-.7c-.9 0-1.3-.3-1.3-.8v-8.6c0-.6-.1-1-.3-1.3s-.5-.4-.9-.4-.7.1-1 .4c-.3.2-.5.5-.6.8v9.2c0 .3-.1.5-.3.6s-.6.2-1 .2h-.7c-.9 0-1.3-.3-1.3-.8v-8.6l-.1-2.6c-.1-.5-.1-.8-.1-.9 0-.3.3-.5.9-.6s1.1-.2 1.6-.2c.3 0 .5.1.6.3s.2.4.2.7.1.5.1.7c.4-.6.9-1 1.4-1.4.6-.4 1.2-.5 1.9-.5s1.3.2 1.7.5a2.98 2.98 0 0 1 1 1.4c.4-.6.9-1 1.5-1.4.6-.3 1.3-.5 2-.5.7-.1 1.5.2 2 .8z"/><use xlink:href="#E" x="174.8"/><use xlink:href="#K"/><path d="M593.6 114.3c-.6-.6-.9-1.5-.9-2.8v-7.4h-.5a.55.55 0 0 1-.5-.3c-.1-.2-.2-.5-.2-.9v-.4c0-.4.1-.7.2-.9a.55.55 0 0 1 .5-.3h.5l.3-2.5c.1-.5.5-.8 1.2-.8h.6c.7 0 1.1.3 1.1.8v2.5h1.2a.55.55 0 0 1 .5.3c.1.2.2.5.2.9v.4c0 .4-.1.7-.2.9a.55.55 0 0 1-.5.3H596v7.4c0 .4.1.7.2.9s.3.3.6.3c.1 0 .3 0 .4-.1.2 0 .3-.1.3-.1.2 0 .4.2.5.6l.2 1c0 .4-.3.7-.8.8-.5.2-1 .3-1.6.3-.9 0-1.6-.3-2.2-.9zm7.5.1c-.6-.6-.9-1.5-.9-2.8V96.2c0-.5.5-.7 1.4-.7h.5c.9 0 1.4.2 1.4.7v15.3c0 .4.1.7.2.8.1.2.3.2.5.2.1 0 .2 0 .4-.1.1 0 .2-.1.3-.1.2 0 .4.2.5.6s.2.8.2 1.1c0 .4-.2.6-.7.8s-1 .3-1.5.3c-1 .1-1.7-.2-2.3-.7zm14.7-12.5s0 .2-.1.5l-4.7 17.5c-.1.4-.6.5-1.3.5h-.5c-.8 0-1.2-.2-1.2-.5 0-.1 0-.2.1-.4l1.3-4.7-3.6-12.3c-.1-.2-.1-.4-.1-.5 0-.4.4-.5 1.2-.5h.9c.3 0 .6 0 .8.1a.78.78 0 0 1 .4.4l1.3 5.9.4 2.6h.1c.1-.2.1-.6.2-1.1 0-.3.1-.8.3-1.5l1.4-5.9c.1-.3.5-.5 1.2-.5h.6c.8-.1 1.3.1 1.3.4z"/><use xlink:href="#L"/><path d="M629.4 113.4c-.9-1.2-1.3-2.9-1.3-5.2s.4-4 1.3-5.2 2.2-1.8 3.9-1.8 3 .6 3.9 1.8 1.3 2.9 1.3 5.2-.4 4-1.3 5.2-2.2 1.8-3.9 1.8c-1.8 0-3-.6-3.9-1.8zm5.3-1.8c.3-.7.4-1.8.4-3.4s-.1-2.7-.4-3.3c-.3-.7-.8-1-1.4-1-.7 0-1.1.3-1.4 1s-.4 1.8-.4 3.3.1 2.7.4 3.4.8 1 1.4 1 1.1-.3 1.4-1zm-398.9 32.8v-16.8c0-.5.4-.8 1.3-.8h.9c.9 0 1.3.3 1.3.8v16.8c0 .5-.4.8-1.3.8h-.9c-.8-.1-1.3-.3-1.3-.8z"/><use xlink:href="#D" x="-82.6" y="30"/><path d="M255.9 143.5c-.9-1.1-1.4-2.9-1.4-5.3s.5-4.2 1.4-5.3 2.3-1.7 4.1-1.7c.9 0 1.7.2 2.5.5s1.1.7 1.1 1.1c0 .3-.1.6-.4 1.1-.2.5-.5.7-.7.7-.1 0-.2-.1-.4-.2-.3-.2-.6-.3-.9-.4s-.6-.1-1-.1c-.8 0-1.4.3-1.8 1s-.6 1.8-.6 3.3c0 1.6.2 2.7.6 3.4s1 1 1.8 1c.4 0 .8-.1 1.1-.2s.6-.2.9-.4c.1 0 .1-.1.2-.1.1-.1.2-.1.2-.1.2 0 .5.2.7.7.2.4.4.8.4 1.1s-.2.5-.6.8-.9.5-1.5.6-1.1.2-1.6.2c-1.8 0-3.2-.5-4.1-1.7zm9.9.9v-8.6c0-1.2-.1-2-.2-2.5l-.2-1c0-.2.3-.4.9-.6l1.5-.2c.3 0 .5.1.6.4.1.2.2.5.3.8a1.76 1.76 0 0 1 .1.6c.3-.6.6-1.1 1-1.4s.8-.5 1.4-.5c.5 0 .8.1 1 .3s.3.5.3.9c0 .3-.1.8-.2 1.3s-.3.8-.4.8-.3 0-.5-.1c-.3-.1-.5-.1-.7-.1-.4 0-.7.1-1 .4s-.5.6-.6 1v8.6c0 .5-.5.8-1.4.8h-.5c-.9-.2-1.4-.4-1.4-.9z"/><use xlink:href="#F" x="-147" y="30"/><use xlink:href="#J" x="-220.9" y="30"/><use xlink:href="#M"/><use xlink:href="#F" x="-113.5" y="30"/><use xlink:href="#G" x="-113.5" y="30"/><path d="M334.6 143.4c-.9-1.2-1.3-2.9-1.3-5.2s.4-4 1.3-5.2 2.2-1.8 3.9-1.8 3 .6 3.9 1.8 1.3 2.9 1.3 5.2-.4 4-1.3 5.2-2.2 1.8-3.9 1.8-3-.6-3.9-1.8zm5.3-1.8c.3-.7.4-1.8.4-3.4s-.1-2.7-.4-3.3c-.3-.7-.8-1-1.4-1s-1.1.3-1.4 1-.4 1.8-.4 3.3.1 2.7.4 3.4.8 1 1.4 1 1.1-.3 1.4-1z"/><use xlink:href="#H" x="-113.5" y="30"/><path d="M358.9 144.4v-8.6c0-1.2-.1-2-.2-2.5l-.2-1c0-.2.3-.4.9-.6l1.5-.2c.3 0 .5.1.6.4.1.2.2.5.3.8a1.76 1.76 0 0 1 .1.6c.3-.6.6-1.1 1-1.4s.8-.5 1.4-.5c.5 0 .8.1 1 .3s.3.5.3.9c0 .3-.1.8-.2 1.3s-.3.8-.4.8-.3 0-.5-.1c-.3-.1-.5-.1-.7-.1-.4 0-.7.1-1 .4s-.5.6-.6 1v8.6c0 .5-.5.8-1.4.8h-.5c-1-.2-1.4-.4-1.4-.9zm12.5.4c-.1-.1-.2-.4-.2-.7v-16.3c0-.3.1-.6.2-.7s.4-.2.7-.2h4.6c1.8 0 3.1.4 4 1.2s1.3 1.9 1.3 3.3c0 1-.2 1.8-.7 2.5s-1 1.3-1.7 1.6v.1c.8.2 1.5.7 2 1.4.6.7.8 1.7.8 2.9 0 1.6-.5 2.9-1.5 3.8s-2.4 1.4-4.3 1.4h-4.7a.55.55 0 0 1-.5-.3zm5.2-10.4c.6 0 1.1-.2 1.5-.7.3-.4.5-1 .5-1.8s-.2-1.4-.5-1.8-.8-.5-1.5-.5h-2.1v4.8h2.1zm.4 7.9c1.4 0 2.1-.9 2.1-2.7 0-.8-.2-1.5-.6-1.9s-.9-.6-1.7-.6h-2.3v5.2h2.5zm8.7 2c-.5-.6-.8-1.5-.8-2.7v-9.4c0-.5.4-.8 1.3-.8h.6c.5 0 .8.1 1 .2s.3.3.3.6v8.8c0 .5.1.9.3 1.2s.5.4 1 .4a1.93 1.93 0 0 0 1-.3c.3-.2.5-.5.7-.8v-9.2c0-.5.4-.8 1.3-.8h.7c.9 0 1.3.3 1.3.8v8.6l.1 2.6c.1.5.1.8.1.9 0 .3-.3.5-.9.6s-1.1.2-1.6.2c-.3 0-.5-.1-.6-.3s-.2-.4-.2-.7-.1-.5-.1-.7a4.67 4.67 0 0 1-1.4 1.4c-.6.4-1.2.5-1.9.5-.9-.1-1.6-.5-2.2-1.1z"/><use xlink:href="#M" x="99.4"/><use xlink:href="#N"/><path d="M413.4 144.4v-8.6l-.1-2.6c-.1-.5-.1-.8-.1-.9 0-.3.3-.5.9-.6s1.1-.2 1.6-.2c.3 0 .5.1.6.3s.2.4.2.7.1.5.1.7c.4-.6.9-1 1.4-1.4.6-.4 1.2-.5 1.9-.5 1 0 1.8.3 2.3 1 .5.6.8 1.6.8 2.8v9.3c0 .5-.4.8-1.3.8h-.7c-.9 0-1.4-.3-1.4-.8v-8.7c0-.6-.1-1-.3-1.3s-.5-.4-1-.4c-.3 0-.6.1-.9.3s-.5.5-.7.8v9.2c0 .3-.1.5-.3.6s-.6.2-1 .2h-.7c-.9 0-1.3-.2-1.3-.7z"/><use xlink:href="#F" x="5" y="30"/><use xlink:href="#O"/><use xlink:href="#O" x="9.2"/><path d="M460.4 143.4c-.9-1.2-1.3-2.9-1.3-5.2s.4-4 1.3-5.2 2.2-1.8 3.9-1.8 3 .6 3.9 1.8 1.3 2.9 1.3 5.2-.4 4-1.3 5.2-2.2 1.8-3.9 1.8-3-.6-3.9-1.8zm5.3-1.8c.3-.7.4-1.8.4-3.4s-.1-2.7-.4-3.3c-.3-.7-.8-1-1.4-1-.7 0-1.1.3-1.4 1s-.4 1.8-.4 3.3.1 2.7.4 3.4.8 1 1.4 1c.7 0 1.1-.3 1.4-1z"/><use xlink:href="#I" x="-.2" y="30"/><path d="M483.9 135.9c0-6.2 2.2-9.3 6.7-9.3s6.7 3.1 6.7 9.3-2.2 9.3-6.7 9.3-6.7-3.1-6.7-9.3zm9.1 5c.5-1 .8-2.6.8-4.9s-.3-3.9-.8-4.9-1.3-1.4-2.4-1.4-1.9.5-2.4 1.4c-.5 1-.8 2.6-.8 4.9s.3 3.9.8 4.9 1.3 1.5 2.4 1.5c1.1-.1 1.9-.6 2.4-1.5zm7.1 3.5v-8.6c0-1.2-.1-2-.2-2.5l-.2-1c0-.2.3-.4.9-.6l1.5-.2c.3 0 .5.1.6.4.1.2.2.5.3.8a1.76 1.76 0 0 1 .1.6c.3-.6.6-1.1 1-1.4s.8-.5 1.4-.5c.5 0 .8.1 1 .3s.3.5.3.9c0 .3-.1.8-.2 1.3s-.3.8-.4.8-.3 0-.5-.1-.5-.1-.7-.1c-.4 0-.7.1-1 .4s-.5.6-.6 1v8.6c0 .5-.5.8-1.4.8h-.5c-1-.2-1.4-.4-1.4-.9zm8.5 5.3c-.8-.6-1.2-1.4-1.2-2.6 0-.7.2-1.3.5-1.9.4-.5.9-1 1.5-1.3v-.1c-.3-.2-.6-.5-.7-.8-.2-.3-.2-.7-.2-1.1 0-1 .4-1.8 1.2-2.4-1.3-.7-1.9-1.9-1.9-3.7 0-1.5.4-2.6 1.2-3.4s1.9-1.2 3.4-1.2c.6 0 1.1.1 1.5.2h3.6c.2 0 .4.1.5.2.1.2.1.4.1.8v.4c0 .3 0 .6-.1.8s-.2.2-.4.2c-.5 0-.8 0-1.1-.1l-.1.1a4.34 4.34 0 0 1 .5 2.1c0 1.3-.4 2.3-1.1 3.1-.7.7-1.8 1.1-3 1.2-1 .1-1.5.5-1.5 1.2 0 .5.2.8.5.9.4.2.9.3 1.7.5.2 0 .4.1.8.1 1 .2 1.8.6 2.4 1.1s.9 1.3.9 2.4c0 1.3-.5 2.3-1.4 3.1-.9.7-2.3 1.1-4 1.1-1.6 0-2.8-.3-3.6-.9zm5.6-1.9c.4-.3.6-.6.6-1.1s-.2-.9-.6-1.1-1-.4-1.9-.5c-.5-.1-.8-.1-1-.2-.3.2-.6.4-.8.7a1.69 1.69 0 0 0-.3 1c0 .5.2.9.6 1.1.4.3 1 .4 1.7.4.7.1 1.3-.1 1.7-.3zm-.7-10.4c.3-.3.5-.9.5-1.7s-.2-1.4-.5-1.8c-.3-.3-.7-.5-1.3-.5-.5 0-1 .2-1.3.5s-.5.9-.5 1.8c0 1.4.6 2.1 1.7 2.1.7.1 1.1 0 1.4-.4z"/><use xlink:href="#B" x="233.6" y="30"/><use xlink:href="#P"/><use xlink:href="#N" x="137.9"/><path d="M550.7 144.4c-.1-.4-.2-.8-.2-1.1 0-.1 0-.2.1-.3l4.9-8.9h-4c-.4 0-.7-.4-.7-1.1v-.4c0-.7.2-1.1.7-1.1h7.4c.1 0 .3.2.4.6s.2.8.2 1.1c0 .1 0 .2-.1.4l-4.9 8.8h4.4a.55.55 0 0 1 .5.3c.1.2.2.5.2.9v.4c0 .7-.2 1.1-.6 1.1h-7.8c-.3 0-.4-.3-.5-.7z"/><use xlink:href="#J" x="55.2" y="30"/><path d="M575.4 144.3c-.6-.6-.9-1.5-.9-2.8v-7.4h-.5a.55.55 0 0 1-.5-.3c-.1-.2-.2-.5-.2-.9v-.4c0-.4.1-.7.2-.9a.55.55 0 0 1 .5-.3h.5l.3-2.5c.1-.5.5-.8 1.2-.8h.6c.7 0 1.1.3 1.1.8v2.5h1.2a.55.55 0 0 1 .5.3c.1.2.2.5.2.9v.4c0 .4-.1.7-.2.9a.55.55 0 0 1-.5.3h-1.2v7.4c0 .4.1.7.2.9s.3.3.6.3c.1 0 .3 0 .4-.1.2 0 .3-.1.3-.1.2 0 .4.2.5.6l.2 1c0 .4-.3.7-.8.8-.5.2-1 .3-1.6.3-.7 0-1.5-.3-2.1-.9z"/><use xlink:href="#A" x="331.4" y="30"/><path d="M589.5 143.4c-.9-1.2-1.3-2.9-1.3-5.2s.4-4 1.3-5.2 2.2-1.8 3.9-1.8 3 .6 3.9 1.8 1.3 2.9 1.3 5.2-.4 4-1.3 5.2-2.2 1.8-3.9 1.8c-1.8 0-3.1-.6-3.9-1.8zm5.3-1.8c.3-.7.4-1.8.4-3.4s-.1-2.7-.4-3.3c-.3-.7-.8-1-1.4-1-.7 0-1.1.3-1.4 1s-.4 1.8-.4 3.3.1 2.7.4 3.4.8 1 1.4 1 1.1-.3 1.4-1z"/><use xlink:href="#P" x="68.9"/><path d="M618.3 143c-1.1-1.5-1.7-3.9-1.7-7.1 0-3.1.6-5.4 1.7-7 1.1-1.5 2.9-2.3 5.3-2.3 1 0 1.8.1 2.4.3.3.1.4.2.5.4s.1.4.1.7c0 .5-.1 1-.3 1.5s-.5.6-.8.5c-.6-.2-1.2-.4-1.9-.4-1.2 0-2.1.5-2.7 1.5s-.9 2.6-.9 4.7.3 3.7.9 4.7 1.5 1.5 2.7 1.5c.4 0 .7 0 1-.1l1-.3c.1 0 .2-.1.2-.1.3 0 .5.2.7.6s.2.9.2 1.4c0 .2 0 .4-.1.6s-.3.3-.6.4-.7.2-1.2.3-1 .1-1.5.1c-2.1.3-3.9-.4-5-1.9z"/><use xlink:href="#K" x="45.1" y="30"/><path d="M638.2 143.5c-.9-1.2-1.4-2.9-1.4-5.2 0-4.7 1.8-7.1 5.3-7.1 3.2 0 4.7 2.3 4.7 6.9 0 .2-.2.5-.5.8-.3.4-.5.5-.7.5h-5.5c.1 1.1.3 1.9.7 2.3.4.5 1 .7 1.7.7.5 0 .8-.1 1.2-.2.3-.1.7-.3 1-.4.3-.2.5-.2.5-.2.2 0 .5.2.8.7s.4.8.4 1.1-.2.6-.6.9-1 .5-1.6.6c-.6.2-1.2.2-1.8.2-1.8.1-3.3-.4-4.2-1.6zm5.6-6.1c0-1.3-.1-2.2-.4-2.8s-.7-.9-1.3-.9-1.1.3-1.4.8c-.3.6-.5 1.5-.6 2.8h3.7zm6.6 7c-.6-.6-1.1-1.4-1.4-2.4-.3-1.1-.5-2.3-.5-3.8 0-2.2.4-3.9 1.2-5.1s1.8-1.8 3.2-1.8c.9 0 1.7.3 2.4.9v-6c0-.5.5-.7 1.4-.7h.6c.9 0 1.4.2 1.4.7v14.5c0 1.2.1 2 .2 2.6l.2 1c0 .2-.3.4-.9.6l-1.5.2c-.3 0-.5-.1-.6-.4s-.2-.7-.3-1.3c-.3.6-.7 1-1.2 1.4-.5.3-1 .5-1.7.5-1.2-.1-1.9-.3-2.5-.9zm4-2.2c.3-.2.5-.5.8-.9v-6.7c-.4-.4-.9-.6-1.5-.6s-1.1.3-1.4 1-.5 1.8-.5 3.3.1 2.5.4 3.2.7 1.1 1.2 1.1c.4-.1.7-.2 1-.4z"/><use xlink:href="#Q"/><path d="M672.4 144.7c-.5-.3-.9-.8-1.3-1.4l-.3 1.1c-.1.3-.2.4-.4.5s-.4.1-.8.1h-.3c-.9 0-1.3-.3-1.3-.8v-18.1c0-.5.5-.7 1.4-.7h.6c.9 0 1.4.2 1.4.7v6a3.31 3.31 0 0 1 2.4-1c1.4 0 2.4.6 3.2 1.8s1.1 2.9 1.1 5.2c0 1.4-.2 2.7-.5 3.7-.3 1.1-.8 1.9-1.4 2.4-.6.6-1.3.8-2.1.8-.6.2-1.2.1-1.7-.3zm1.9-3.2c.3-.7.4-1.8.4-3.3s-.2-2.6-.5-3.3-.8-1-1.4-1-1 .2-1.5.6v6.8c.5.8 1.1 1.2 1.7 1.2s1.1-.3 1.3-1z"/><use xlink:href="#A" x="430" y="30"/><path d="M688.1 144.4c-.6-.6-.9-1.5-.9-2.8v-15.4c0-.5.5-.7 1.4-.7h.5c.9 0 1.4.2 1.4.7v15.3c0 .4.1.7.2.8.1.2.3.2.5.2.1 0 .2 0 .4-.1.1 0 .2-.1.3-.1.2 0 .4.2.5.6s.2.8.2 1.1c0 .4-.2.6-.7.8s-1 .3-1.5.3c-1 .1-1.7-.2-2.3-.7z"/><use xlink:href="#Q" x="32.8"/><use xlink:href="#L" x="79.8" y="30"/><use xlink:href="#C" x="410.1" y="30"/><path d="M167.8 134.7l-.1.3-5.7 1.7c-1.6.5-3.5 5.3-5 12.8 4.9 2.9 10.5 4.4 16.2 4.4.7 0 1.5 0 2.1-.1 5-.3 9.9-1.8 14.2-4.4-1.5-7.4-3.3-12.4-5-12.8l-5.7-1.7-.1-.3c-.1-.3-.3-.5-.6-.7l-.7-.4.4-.5c.5-.5.9-1 1-1.4.7-.9 1.2-2 1.5-3 .2-.4.3-.9.5-1.3l.1-.2.2-.1c.4-.3.6-.8.6-1.3V124a1.93 1.93 0 0 0-.3-1l-.1-.2v-2.6c0-3.8-3.2-7-7-7H172c-3.8 0-7 3.2-7 7v2.6l-.1.2a1.93 1.93 0 0 0-.3 1v1.7c0 .5.3 1 .6 1.3l.2.1.1.2c.1.4.3.9.4 1.2.4 1 .9 2 1.6 3 .3.5.7.9 1 1.4l.4.5-.6.4c-.2.5-.4.6-.5.9z"/><path d="M154.1 147.7l.7-2.9c2.1-8.8 4.4-10.5 6.2-11.1l3.2-.9c-.5-.9-1-1.8-1.4-2.7-.1-.3-.3-.6-.3-.9h0l-3.5-1-.1-.3c-.1-.3-.3-.5-.6-.7l-.6-.5.4-.5c.3-.4.7-.9 1-1.4.7-.9 1.2-2 1.5-2.9.2-.4.3-.9.5-1.3l.1-.2.2-.1c.4-.3.6-.8.6-1.3v-1.7a1.93 1.93 0 0 0-.3-1l-.1-.2v-2.6c0-3.8-3.2-7-7-7h-2.5c-3.8 0-7 3.2-7 7v2.6l-.1.2a1.93 1.93 0 0 0-.3 1v1.7c0 .5.3 1 .6 1.3l.2.1.1.2c.1.4.3.9.5 1.2.4 1 .9 2 1.6 3 .3.5.7.9 1 1.4l.4.5-.6.4c-.3.3-.5.4-.6.7l.1.2-5.7 1.7h-.1c1.8 7.2 6.1 13.5 11.9 18zm40.1-41.2h-2.5c-3.8 0-7 3.2-7 7v2.6l-.1.2a1.93 1.93 0 0 0-.3 1v1.7c0 .5.3 1 .6 1.3l.2.1.1.2c.2.4.3.9.4 1.2.4 1 .9 2 1.6 3 .3.3.6.9 1 1.4l.4.5-.6.4c-.3.3-.5.4-.6.7l-.1.3-3.5 1c-.1.3-.3.6-.3.9-.3.9-.9 1.8-1.4 2.7l3.2.9c1.9.5 4.1 2.3 6.2 10.9.3 1 .5 2 .7 3.1 1.8-1.4 3.5-2.9 5-4.6 3.3-3.8 5.8-8.5 7-13.3h-.1l-5.7-1.7-.1-.3c-.1-.3-.3-.5-.6-.7l-.6-.3.5-.5c.3-.4.7-.9 1-1.4.7-.9 1.2-2 1.5-2.9.2-.4.3-.9.5-1.3l.1-.2.2-.1c.4-.3.6-.8.6-1.3v-1.7a1.93 1.93 0 0 0-.3-1l-.1-.2v-2.6c.1-3.9-3-7-6.9-7zm-20.9 53.9c-21.1 0-38.3-17.2-38.3-38.3s17.2-38.3 38.3-38.3 38.3 17.2 38.3 38.3-17.2 38.3-38.3 38.3zm0-72.4c-18.8 0-34.2 15.3-34.2 34.2 0 18.8 15.3 34.2 34.2 34.2 18.8 0 34.2-15.3 34.2-34.2S192.1 88 173.3 88z"/><path d="M859.8 423.6v.1l-2.4.7c-.7.2-1.5 2.3-2.1 5.5 2.1 1.2 4.5 1.9 6.9 1.9h.9c2.1-.1 4.2-.8 6-1.9-.6-3.2-1.4-5.3-2.1-5.5l-2.4-.7v-.1c0-.1-.1-.2-.3-.3l-.3-.2.2-.2c.2-.2.4-.4.4-.6.3-.4.5-.8.7-1.3.1-.2.1-.4.2-.5v-.1h.1a.55.55 0 0 0 .3-.5v-.7c0-.1 0-.3-.1-.4v-1.2a3.01 3.01 0 0 0-3-3h-1.1a3.01 3.01 0 0 0-3 3v1.2c-.1.1-.1.3-.1.4v.7a.55.55 0 0 0 .3.5h.1v.1c0 .2.1.4.2.5.2.4.4.9.7 1.3.1.2.3.4.4.6l.2.2-.3.2c-.2.1-.4.2-.4.3zm-5.8 5.5l.3-1.2c.9-3.7 1.9-4.5 2.7-4.7l1.4-.4-.6-1.2c0-.1-.1-.3-.1-.4h0l-1.5-.4v-.1c0-.1-.1-.2-.3-.3l-.3-.2.2-.2c.1-.2.3-.4.4-.6.3-.4.5-.8.7-1.2.1-.2.1-.4.2-.5v-.1h.1a.55.55 0 0 0 .3-.5v-.7c0-.1 0-.3-.1-.4v-1.2a3.01 3.01 0 0 0-3-3h-1.1a3.01 3.01 0 0 0-3 3v1.2c-.1.1-.1.3-.1.4v.7a.55.55 0 0 0 .3.5h.1v.1c0 .2.1.4.2.5.2.4.4.9.7 1.3.1.2.3.4.4.6l.2.2-.3.2-.3.3v.1l-2.4.7c.6 2.9 2.4 5.6 4.9 7.5zm17-17.5h-1a3.01 3.01 0 0 0-3 3v1.2c-.1.1-.1.3-.1.4v.7a.55.55 0 0 0 .3.5h.1v.1c.1.2.1.4.2.5.2.4.4.9.7 1.3.1.1.3.4.4.6l.2.2-.3.2-.3.3v.1l-1.5.4c0 .1-.1.3-.1.4-.1.4-.4.8-.6 1.2l1.4.4c.8.2 1.7 1 2.7 4.7l.3 1.3c.8-.6 1.5-1.2 2.1-2 1.4-1.6 2.5-3.6 3-5.7h0l-2.4-.7v-.1c0-.1-.1-.2-.3-.3l-.3-.1.2-.2c.1-.2.3-.4.4-.6.3-.4.5-.8.7-1.2.1-.2.1-.4.2-.5v-.1h.1a.55.55 0 0 0 .3-.5v-.7c0-.1 0-.3-.1-.4v-1.2c-.3-1.9-1.6-3.2-3.3-3.2zm-6.7 22.8a16.26 16.26 0 0 1-18.3-18.3c.9-7.3 6.8-13.1 14-14a16.26 16.26 0 0 1 18.3 18.3c-.9 7.2-6.8 13.1-14 14zm-.3-30.6c-9.5-1.2-17.5 6.8-16.3 16.3.8 6.5 6.1 11.7 12.5 12.5 9.5 1.2 17.5-6.8 16.3-16.3-.7-6.4-6-11.7-12.5-12.5z" opacity=".75"/></g><ellipse fill="#235e64" cx="473.8" cy="463.2" rx="111.4" ry="12" opacity=".5"/><path fill="#010b15" d="M624.6 403.8H325.8V234.4a7.85 7.85 0 0 1 7.9-7.9h283a7.85 7.85 0 0 1 7.9 7.9v169.4z"/><path fill="#143544" d="M325.8,403.8V234.2c0-4.3,3.5-7.8,7.8-7.8h283.2c4.3,0,7.8,3.5,7.8,7.8L325.8,403.8z" opacity=".5"/><path fill="#fce8e1" d="M325.8 403.8h298.8v19.7a7.85 7.85 0 0 1-7.9 7.9h-283a7.85 7.85 0 0 1-7.9-7.9v-19.7z"/><path d="M337.3 237.8h276.1v155.1H337.3z" class="U"/><path fill="#f7f7f8" d="M337.3 392.8v-155h276v2.8L344.4 392.8z"/><circle cx="475.3" cy="231.9" r="1.8" class="U"/><path fill="#fce8e1" d="M520.6 464.4l-11.1-3.3c-1.1-.4-1.7-2.8-1.8-3.8l-2.8-25.8h-59.8l-2.8 25.8c-.1 1-.5 3.3-1.8 3.8-2.2.8-11.1 3.3-11.1 3.3a.68.68 0 1 0 0 1.4h91.1a.68.68 0 0 0 .7-.7c.2-.3-.1-.7-.6-.7z"/><path fill="#fcd9d0" d="M505.7 436.9l-61.8 9 1.5-14.4H505z"/><use xlink:href="#R" fill="#225e64"/><use xlink:href="#R" x="338.1" y="20.5" fill="#c8417d"/><path d="M287.1 293.5a6.6 6.6 0 0 0 5.3-5.3c0-.1.2-.1.2 0a6.6 6.6 0 0 0 5.3 5.3c.1 0 .1.2 0 .2a6.6 6.6 0 0 0-5.3 5.3c0 .1-.2.1-.2 0a6.6 6.6 0 0 0-5.3-5.3c-.1-.1-.1-.2 0-.2zm-68.5-67.3c4.5-.9 8-4.4 8.9-8.9 0-.2.3-.2.3 0 .9 4.5 4.4 8 8.9 8.9.2 0 .2.3 0 .3-4.5.9-8 4.4-8.9 8.9 0 .2-.3.2-.3 0-.9-4.5-4.4-8-8.9-8.9-.2-.1-.2-.3 0-.3z" fill="#ff6d53"/><path fill="#02c7a8" d="M652.6 296.8a6.6 6.6 0 0 0 5.3-5.3c0-.1.2-.1.2 0a6.6 6.6 0 0 0 5.3 5.3c.1 0 .1.2 0 .2a6.6 6.6 0 0 0-5.3 5.3c0 .1-.2.1-.2 0a6.6 6.6 0 0 0-5.3-5.3c-.1 0-.1-.2 0-.2z"/><g fill="#f5a31e"><path d="M632.3 265.3a6.6 6.6 0 0 0 5.3-5.3c0-.1.2-.1.2 0a6.6 6.6 0 0 0 5.3 5.3c.1 0 .1.2 0 .2a6.6 6.6 0 0 0-5.3 5.3c0 .1-.2.1-.2 0a6.6 6.6 0 0 0-5.3-5.3c-.2 0-.2-.2 0-.2z"/><circle cx="282.4" cy="331.6" r="1.5"/></g><g fill="#ff6d53"><circle cx="318.1" cy="352.5" r="1.5"/><circle cx="635.3" cy="302.4" r="1.5"/></g><g fill="#02c7a8"><circle cx="677.6" cy="360.1" r="1.5"/><circle cx="292.8" cy="243.7" r="1.5"/></g><path d="M459.2 251.7c0-1.2.6-1.9 1.8-1.9s1.8.7 1.8 1.9v4c0 1.2-.6 1.9-1.8 1.9s-1.8-.7-1.8-1.9v-4zm1.2 4c0 .5.2.7.6.7s.6-.2.6-.7v-4.1c0-.5-.2-.7-.6-.7s-.6.2-.6.7v4.1zm4.3-5.8v5.9c0 .5.2.7.6.7s.6-.2.6-.7v-5.9h1.1v5.8c0 1.2-.6 1.9-1.8 1.9s-1.8-.7-1.8-1.9v-5.8h1.3zm5.7 7.6c-.1-.2-.1-.3-.1-.9v-1.2c0-.7-.2-1-.8-1h-.4v3.1h-1.2v-7.6h1.8c1.2 0 1.8.6 1.8 1.7v.6c0 .8-.2 1.3-.8 1.5h0c.6.2.8.8.8 1.6v1.2c0 .4 0 .6.1.9h-1.2zm-1.3-6.6v2.3h.5c.4 0 .7-.2.7-.8v-.7c0-.5-.2-.8-.6-.8h-.6zm4.5-1h3.7v1.1H476v6.5h-1.2V251h-1.2v-1.1zm5.4 3.2h1.6v1.1H479v2.2h2.1v1.1h-3.3v-7.6h3.3v1.1H479v2.1zm6.7 4.4h-1.2l-.2-1.4h-1.5l-.2 1.4h-1.1l1.2-7.6h1.7l1.3 7.6zm-2.8-2.5h1.2l-.6-3.8-.6 3.8zm5.8.3h0l.8-5.4h1.7v7.6h-1.1V252l-.8 5.5h-1.1l-.9-5.4v5.4h-1v-7.6h1.7l.7 5.4z" fill="#1a2e35"/><path d="M547.7 249.1v-1.6l-1.2-.1c-.1-.3-.2-.5-.3-.7l.8-.9-1.1-1.1-.9.8c-.2-.1-.5-.2-.7-.3l-.1-1.2h-1.6l-.1 1.2c-.3.1-.5.2-.7.3l-.9-.8-1.1 1.1.8.9c-.1.2-.2.5-.3.7l-1.2.1v1.6l1.2.1c.1.3.2.5.3.7l-.8.9 1.1 1.1.9-.8c.2.1.5.2.7.3l.1 1.2h1.6l.1-1.2c.3-.1.5-.2.7-.3l.9.8 1.1-1.1-.8-.9c.1-.2.2-.5.3-.7l1.2-.1zm-4.5 1.1c-1 0-1.9-.8-1.9-1.9s.8-1.9 1.9-1.9 1.9.8 1.9 1.9-.8 1.9-1.9 1.9z" fill="#4ea980"/><path d="M440.3 273v40.2c0 2.3-1.8 4.1-4.1 4.1H396c-2.3 0-4.1-1.8-4.1-4.1V273c0-2.3 1.8-4.1 4.1-4.1h40.2c2.3 0 4.1 1.9 4.1 4.1z" class="V"/><path d="M423.1 282.5c-.6-2.3-2.4-6.9-6.9-6.9-4.6 0-6.2 4.5-6.9 6.9-1.3 4.6-2.2 19-2.2 19h.6l1.4-13.7-.4 13.7h16.5s-.8-14.4-2.1-19z" class="X"/><g class="Y"><path d="M431 317.3h-4.2l-2.4-12.4-6.5-2.6-1.3-.5-.6-.2-.4.2-8 3.2-.6 3.5-.7 4.2-.8 4.7h-4.1v-.3l.9-14.4c.1-1 .7-1.8 1.6-2.2h.1l3.3-1.3 1.4-.6 4.3-1.7 1.9-.8a2.56 2.56 0 0 1 2.1 0l2.4 1 5.6 2.3 2.8 1.1h.1c.9.4 1.5 1.2 1.6 2.1l.5 5.1 1 9.6z"/><use xlink:href="#S"/></g><g fill="#e45e4c"><path d="M427.6 317.3h-23l.1-9.3v-6.9h22.7l.1 6.9z"/><path d="M407.3 308.5l-6.1-1.3 1.1-5.1c.2-1 .9-1.9 1.9-2.3l11.1-4.4c.7-.3 1.6-.3 2.3 0l11 4.3c1 .4 1.8 1.3 2 2.4l.9 5.3-6.2 1-.6-3.5-8.2-3.2-8.5 3.3-.7 3.5z"/></g><path d="M416.2 301.7c-1.8 0-3.2-1.4-3.2-3.2v-11.9c0-1.8 1.4-3.2 3.2-3.2s3.2 1.4 3.2 3.2v11.9c.1 1.8-1.4 3.2-3.2 3.2z" class="Y"/><use xlink:href="#T" class="Z"/><path d="M410.6 280.5s1.6 4.3 11.3 5c0 0 .1-7.6-5.1-7.9-5.1-.3-6.2 2.9-6.2 2.9z" class="X"/><path d="M412.2 286.7c0-.2.2-.3.3-.4a.76.76 0 0 1 .4-.2c.3-.1.6-.2 1-.2h.5c.2 0 .3.1.5.2a1.38 1.38 0 0 1 .4.3c.1.1.2.3.2.5-.1-.1-.2-.2-.4-.3-.1-.1-.3-.1-.4-.1h-2.1c-.1.1-.2.1-.4.2zm3.7 3.3c.2 0 .3-.1.5-.1h.2c.1 0 .1 0 .2-.1l.1-.1v-.7c-.1-.7-.1-1.3 0-2v-.3c0-.1.1-.2.2-.3a.55.55 0 0 1 .5-.3c.4-.1.7-.1 1.1-.1.3 0 .7.1 1 .2.2.1.3.1.5.2.1.1.3.2.4.3a.76.76 0 0 0-.4-.2c-.2 0-.3-.1-.5-.1h-1.3c-.1 0-.3.1-.4.1-.2.1-.4.3-.4.5 0 .6 0 1.3-.1 1.9v.8c0 .1-.1.2-.2.2-.1.1-.2 0-.3 0h-.2c-.6.1-.7.1-.9.1z" class="Z"/><path fill="#e45e4c" d="M418 291.6c-.2.3-.5.4-.8.6-.3.1-.6.2-1 .2-.3 0-.6-.1-.9-.2-.2-.1-.3-.1-.4-.2s-.3-.2-.4-.3c.2 0 .3 0 .5.1.2 0 .3 0 .4.1.3 0 .6 0 .8.1h.8c.4-.3.7-.3 1-.4z"/><path d="M440.3 331.7v40.2c0 2.3-1.8 4.1-4.1 4.1H396c-2.3 0-4.1-1.8-4.1-4.1v-40.2c0-2.3 1.8-4.1 4.1-4.1h40.2c2.3 0 4.1 1.8 4.1 4.1z" class="V"/><path d="M412.6 336c-2 1.2-3.7 3.3-4.1 5.3-.6 2.6-.3 5.3-1 7.9-.5 2-1.6 3.6-2.6 5.1-.8 1.1-1.6 2.1-2 3.5-.5 1.8-.2 3.7 0 5.5l.4 5.3c.4 3.2 1.8 6.2 4.3 6.6 2.4.4 4.8-1.6 7.2-1.5 1 0 2 .5 3.1.6.4 0 .9 0 1.3-.4.3-.3.4-.7.6-1.1 1-2.7 2.2-5.6 4.1-7.3.6-.6 1.3-1.1 1.8-1.9.4-.6.5-1.4.6-2.2l.8-6c.3-3.2.3-6.6-.7-9.7-.8-2.4-2.3-4.3-4-6.1-1.4-1.5-2.5-3.6-4.5-4.4-1.8-.5-3.7-.1-5.3.8z" class="a"/><g class="W"><path d="M430.8 375.9h-4.4l-2-10.5-.2-.1-6.3-2.6-1.3-.5-.6-.2-.4.2-8 3.2-.6 3.5-.7 4.2-.2 1.5-.2 1.3h-4.3l.2-3.3.6-9.6c0-.4.1-.8.3-1.1.3-.5.7-.9 1.2-1.1h.1l9-3.6 1.9-.8a2.56 2.56 0 0 1 2.1 0l2.4 1 7.1 2.9 1.3.5h.1c.9.4 1.5 1.2 1.6 2.1l.5 5.1.8 7.9z"/><use xlink:href="#S" y="60.5"/></g><g fill="#e3e6ed"><path d="M427.6 375.9h-23V373l.1-4.5v-6.9h22.7l.1 6.9z"/><use xlink:href="#U"/></g><path d="M416.2 362.2c-1.8 0-3.2-1.4-3.2-3.2v-12c0-1.8 1.4-3.2 3.2-3.2s3.2 1.4 3.2 3.2v12c.1 1.8-1.4 3.2-3.2 3.2z" class="W"/><g class="b"><use xlink:href="#T" y="60.5"/><path d="M412.2 346.7c.1-.2.2-.3.3-.4s.3-.1.4-.2c.3-.1.6-.1.9-.1s.7 0 1 .1c.2.1.3.1.4.3.1.1.2.3.2.5-.1-.1-.2-.2-.4-.2-.1 0-.3-.1-.4-.1h-2.1s-.1 0-.3.1zm3.7 4c.2 0 .4-.1.5-.1h.3c.1 0 .1 0 .1-.1v-.9c-.1-.7-.1-1.4-.1-2.1v-.6c0-.1.1-.3.1-.4l.3-.3c.2-.1.4-.2.6-.2h1.1c.2 0 .4.1.5.1.2 0 .4.1.5.2a1.38 1.38 0 0 1 .4.3c-.2-.1-.3-.1-.5-.2h-1.5a2.39 2.39 0 0 0-.9.2l-.1.1v.6l-.1 2.1v.8c0 .1-.1.3-.2.3-.1.1-.2.1-.3.1h-.3c0 .2-.2.2-.4.1z"/></g><path d="M418 351.9c-.2.3-.5.5-.8.6s-.6.2-.9.2-.6-.1-.9-.2-.6-.3-.8-.6v-.1c.3.1.6.1.9.2s.6.1.9.1.6 0 .9-.1c.2 0 .4-.1.7-.1h0z" class="U"/><g fill="#404b69"><path d="M414.1 348.2h-.6a1.79 1.79 0 0 1-1.8-1.8c0-.5.4-.9.9-.9h2.3c.5 0 .9.4.9.9-.1 1-.8 1.8-1.7 1.8zm-1.6-2.4a.68.68 0 0 0-.7.7 1.58 1.58 0 0 0 1.6 1.6h.6a1.54 1.54 0 0 0 1.5-1.5c0-.4-.3-.8-.8-.8h-2.2zm6.8 2.4h-.6c-.9 0-1.7-.8-1.7-1.7 0-.5.4-.9.9-.9h2.3c.5 0 .9.4.9.9 0 .9-.8 1.7-1.8 1.7zm-1.4-2.4c-.4 0-.8.3-.8.8a1.54 1.54 0 0 0 1.5 1.5h.6a1.58 1.58 0 0 0 1.6-1.6.68.68 0 0 0-.7-.7h-2.2z"/><path d="M417.2 346.7h-.2c0-.4-.3-.7-.6-.7s-.6.3-.6.7h-.2c0-.5.4-.8.8-.8.4-.1.8.3.8.8zm-5.4-.3c-.1 0-.1 0 0 0l-.9-.5s-.1-.1 0-.1c0 0 .1-.1.1 0l.8.5c.1-.1.1 0 0 .1zm9.9-.6h-3c-.1 0-.1 0-.1-.1s0-.1.1-.1h3c.1 0 .1 0 0 .2.1-.1.1 0 0 0z"/></g><path d="M410.6 340.2v4.5s1-2.1 3.6-2.3c2.7-.2 7.9 5.3 8.1 6.3s.4-11.7-3.4-11.7c-3.8.1-8.3 3.2-8.3 3.2z" class="a"/><path d="M558.6 273v40.2c0 2.3-1.8 4.1-4.1 4.1h-40.2c-2.3 0-4.1-1.8-4.1-4.1V273c0-2.3 1.8-4.1 4.1-4.1h40.2c2.3 0 4.1 1.9 4.1 4.1z" class="V"/><path d="M529.8 286.4l-2.2-.9s-2.1-12.4 6.5-12.4 6.9 12.1 6.9 12.1l-2.3 1.2h-8.9z" class="a"/><path d="M551.1 317.3h-5.5l-1.8-6.9-1.6-6.1-.2-.1-7.6-3.1-7.9 3.2-3.4 13h-5.5l.6-8.1.7-8.6c.1-1.4 1-2.6 2.2-3.1l.3-.1 9.2-3.7 2.2-.9c1-.4 2.2-.4 3.1 0l2.1.9 9.2 3.8.3.1c1.3.5 2.1 1.7 2.2 3l.7 8.6.7 8.1z" class="W"/><g fill="#3a3348"><path d="M522 298.2h24.9v19.1H522z"/><use xlink:href="#V"/></g><g class="W"><path d="M534.4 297.1a3.76 3.76 0 0 1-3.7-3.7v-9.9a3.76 3.76 0 0 1 3.7-3.7 3.76 3.76 0 0 1 3.7 3.7v9.9c0 2.1-1.7 3.7-3.7 3.7z"/><path d="M539.9 282.7c0 4.8-2.5 9.5-5.5 9.5s-5.5-4.7-5.5-9.5 2.5-7.8 5.5-7.8 5.5 3.1 5.5 7.8z"/></g><path d="M532.1 290.5c.4.3.7.5 1.1.7s.8.3 1.2.3.8-.1 1.2-.3.8-.4 1.1-.7c-.2.5-.5.8-.9 1.1s-.9.4-1.4.4-1-.2-1.4-.4-.7-.6-.9-1.1zm-3.4-9.9s1.2-1.8 2-2c2.6-.6 7.5 1.8 8 4.9l.4-1.1s-.6-2.4-2.3-3.5c2 1.1 2.6 3 2.6 3l1-1.6s-1.9-6.5-5.6-6.2c-3.9.5-6.1 4.8-6.1 6.5z" class="a"/><path d="M530.3 283.4c0-.2.2-.3.3-.4a.76.76 0 0 1 .4-.2c.3-.1.6-.2 1-.2h.5c.2 0 .3.1.5.2s.3.2.4.3.2.3.2.5a1.38 1.38 0 0 0-.4-.3c-.1-.1-.3-.1-.4-.1h-2.1c-.1.1-.3.1-.4.2zm3.7 3.7c.2 0 .3-.1.5-.1h.3c.1 0 .1 0 .2-.1 0 0 .1-.1 0-.1v-.7c-.1-.7-.1-1.4-.1-2.1v-.7c.1-.2.3-.4.4-.5.4-.2.8-.2 1.1-.2.4 0 .7.1 1 .2.2.1.3.1.5.2s.3.2.4.3c-.1-.1-.3-.2-.5-.2s-.3-.1-.5-.1h-1c-.3 0-.6.1-.8.2-.1.1-.2.2-.2.3v.4c0 .7 0 1.4-.1 2v.8c0 .1-.1.2-.2.3s-.2.1-.3.1h-.3c-.1.1-.2.1-.4 0zm2.1 1.4c-.2.2-.5.4-.8.5s-.6.2-.9.2-.6 0-.9-.1-.6-.2-.8-.4h2.5l.9-.2z" class="b"/><path d="M558.6 333.2v40.2c0 2.3-1.8 4.1-4.1 4.1h-40.2c-2.3 0-4.1-1.8-4.1-4.1v-40.2c0-2.3 1.8-4.1 4.1-4.1h40.2c2.3 0 4.1 1.9 4.1 4.1z" class="V"/><path d="M531 335.4c-1.1.1-2.2.9-2.4 2-.3 1.2.3 2.7-.7 3.4-.5.3-1.1.3-1.6.4-1.1.2-1.9 1.2-2.2 2.2-.4 1-.3 2.2-.3 3.2 0 .5.1.9-.1 1.4-.4 1.1-1.9 1.3-3.1 1.7-2.3.7-4.1 3-4.2 5.5-.1 1.2.4 2.6 1.5 3.1.8.4 1.9.3 2.5 1 .3.4.4.9.5 1.3.4 2.1 1 4.4 2.8 5.6 1.5 1 3.4 1.1 5.2 1.1 1 0 2.2 0 2.9-.8.5-.6.6-1.4 1.1-2 1.3-1.8 4.9-.9 6-2.9.5-.9.3-2 .5-3.1.4-2 2.3-3.3 3.2-5 1.1-2 .8-4.4.3-6.5-.5-2.2-1.2-4.3-1.1-6.6 0-1.1.2-2.2-.3-3.1s-1.5-2.2-2.5-2.3c-1.5-.2-2.9 1-4.4.9-1.3 0-2.4-.7-3.6-.5z" class="c"/><g class="W"><path d="M549.2 377.5H545l-2.4-12.1-5.9-2.4-.6-.3-1.3-.5-.6-.2-.4.2-8 3.2-.3 1.6-.3 1.9-.7 4.2-.7 4.4h-4.2l.9-14.4c0-.5.2-1 .5-1.3.3-.4.7-.7 1.1-.9h.1l9-3.6 1.9-.8a2.56 2.56 0 0 1 2.1 0l2.4 1 1.7.7 6.7 2.7h.1c.9.4 1.5 1.2 1.6 2.1l.5 5.1 1 9.4z"/><use xlink:href="#S" x="118.3" y="60.5"/></g><g fill="#fbcd8a"><path d="M545.9 377.5h-23v-15.9h22.7l.1 6.9z"/><use xlink:href="#U" x="118.2"/></g><path d="M534.5 362.2c-1.8 0-3.2-1.4-3.2-3.2v-12c0-1.8 1.4-3.2 3.2-3.2s3.2 1.4 3.2 3.2v12c0 1.8-1.4 3.2-3.2 3.2z" class="W"/><use xlink:href="#T" x="118.2" y="60.5" class="b"/><path d="M530.9 337.7c-.3.3-.5.7-.7 1.1-.5.8-1.4 1.5-1.9 2.3-.7 1.1-.7 2.4-.7 3.7 0 .3 0 .5.2.7.1.2.4.2.6.3 1 .1 1.9-.8 2.3-1.6.5-.9.8-1.9 1.8-2.3.4-.2.8-.3 1.3-.2.2 0 .3.1.4.2.2.2.2.5.3.7.3.8 1.4.9 2.3.9s2-.1 2.5.6c.2.3.3.7.5 1s.7.6 1 .3c.1-.1.2-.3.2-.5.2-1.9 0-3.9-.6-5.7-.2-.5-.4-1-.8-1.3-.6-.5-1.4-.5-2.2-.4s-1.5.3-2.3.2c-1.3-.3-3.2-1-4.2 0z" class="c"/><path d="M530.3 346.7c0-.2.2-.3.3-.4a.76.76 0 0 1 .4-.2c.3-.1.6-.2.9-.2h.5c.2 0 .3.1.5.1a1.38 1.38 0 0 1 .4.3c.1.1.1.3.1.5-.2-.2-.4-.3-.7-.4h-2c-.1.2-.2.2-.4.3zm3.7 3.7c.2 0 .3-.1.5-.1h.5l.1-.1v-.7c0-.7 0-1.3.1-2v-.6c0-.1.1-.2.1-.3s.1-.2.2-.3.2-.2.3-.2.2-.1.3-.1h.6c.3 0 .7.1 1 .2.2.1.3.1.5.2.1.1.3.2.4.3a.76.76 0 0 0-.4-.2c-.2 0-.3-.1-.5-.1h-1c-.3 0-.6.1-.7.2s-.1.2-.2.3v.4l-.2 2-.1.5v.3c0 .1-.1.2-.2.3-.1 0-.1 0-.2.1h-.5c-.3 0-.4 0-.6-.1z" class="b"/><path d="M536.1 351.9c-.2.2-.5.3-.8.4s-.6.1-.9.1-.6 0-.9-.1-.6-.2-.8-.4h3.4z" class="U"/><path d="M499.5 331.7v40.2c0 2.3-1.8 4.1-4.1 4.1h-40.2c-2.3 0-4.1-1.8-4.1-4.1v-40.2c0-2.3 1.8-4.1 4.1-4.1h40.2c2.2 0 4.1 1.8 4.1 4.1z" class="V"/><path d="M480.7 334.6c3.7 5.2.2 14.9-6.4 13.9-3.4-.5-6-3.2-6-7.2 0-1.6-.1-3 .3-4.1.2-.7.9-1.3 1.5-1.3 0-1 1.1-2.3 2.3-2.6 3.4-1 6.3-1.5 8.3 1.3z" class="X"/><path d="M491.8 375.9H486l-1.3-5.1-1.6-6.1-.2-.1-5-2-2.7-1.1-7.9 3.2-1.6 6.1-1.3 5h-5.9l.5-6.3.7-8.6c.1-1.4 1-2.6 2.2-3l.3-.1 9.2-3.7 2.2-.9c1-.4 2.2-.4 3.1 0l2.1.9 9.2 3.8.3.1c1.3.5 2.1 1.7 2.2 3l.7 8.6.6 6.3z" class="Y"/><g fill="#a75954"><path d="M462.8 358.7h24.9v17.2h-24.9z"/><use xlink:href="#V" x="-59.1" y="60.5"/></g><g class="Y"><path d="M475.3 357.6a3.76 3.76 0 0 1-3.7-3.7V344a3.76 3.76 0 0 1 3.7-3.7 3.76 3.76 0 0 1 3.7 3.7v9.9c0 2.1-1.7 3.7-3.7 3.7z"/><path d="M480.8 343.2c0 4.8-2.5 9.5-5.5 9.5s-5.5-4.7-5.5-9.5 2.5-7.8 5.5-7.8 5.5 3 5.5 7.8z"/></g><path d="M472.1 350.6c.5.4 1 .7 1.5.9a4.53 4.53 0 0 0 1.6.3 4.53 4.53 0 0 0 1.6-.3c.5-.2 1-.5 1.5-.9-.3.6-.7 1.1-1.3 1.4-.5.4-1.2.5-1.9.5s-1.3-.2-1.9-.6c-.4-.2-.8-.7-1.1-1.3z" class="Z"/><path d="M469.8 341.4s1.4-1.4 1.9-2.5c0 0 7.7 3.4 9.2 1.6s-1.5-5.3-5.6-5.3-5.9 4.1-5.5 6.2zm10.9 3.4c0 1.1-.6 2.9-1.2 4-.2.3-.6.4-.8.1-.9-.9-2.1-1.4-3.5-1.4-1.3 0-2.5.5-3.5 1.4-.3.2-.7.2-.8-.1-.6-1.2-1.2-3.1-1.2-4.1-.2.5.5 8.6 5.4 8.6 4.8-.1 5.8-8 5.6-8.5z" class="X"/><path d="M471.2 343.4c0-.2.2-.3.3-.4a.76.76 0 0 1 .4-.2c.3-.1.6-.2 1-.2h.5c.2 0 .3.1.5.2a1.38 1.38 0 0 1 .4.3c.1.1.2.3.2.5-.1-.1-.2-.2-.4-.3-.1-.1-.3-.1-.4-.1h-2.1c-.1.1-.3.1-.4.2zm3.7 3.7c.3-.1.7-.1 1-.1h.2l.1-.1v-.5c-.1-.7-.1-1.4-.1-2.1v-.9c0-.1.1-.2.1-.3.1-.1.1-.2.2-.3s.2-.1.3-.1c.2-.1.4-.1.6 0 .4 0 .7.1 1.1.2.2.1.3.1.5.2a1.38 1.38 0 0 1 .4.3c-.1-.1-.3-.2-.5-.2s-.3-.1-.5-.1h-1c-.2 0-.3 0-.4.1-.1 0-.2.1-.2.2s-.1.1-.1.2v.7l-.1 2.1v.6c0 .1-.1.2-.2.3-.1 0-.1.1-.2.1h-.2c-.3-.2-.7-.2-1-.3zm2.5 1.7c-.3.2-.6.3-1 .4-.3.1-.7.1-1 .1s-.7-.1-1-.2-.7-.3-.9-.5h1c.3 0 .7 0 1 .1h1l.9.1z" class="Z"/><path d="M499.5 273v40.2c0 2.3-1.8 4.1-4.1 4.1h-40.2c-2.3 0-4.1-1.8-4.1-4.1V273c0-2.3 1.8-4.1 4.1-4.1h40.2c2.2 0 4.1 1.9 4.1 4.1z" class="V"/><circle cx="475.4" cy="283.4" r="10.9" class="c"/><g fill="#8a715d"><path d="M490.1 317.3h-4.2l-2.4-12.4-6.5-2.7-1.3-.5-.6-.2-.4.2-8 3.2-.6 3.5-.7 4.2-.8 4.7h-4.1v-.3l.9-14.4c.1-1 .7-1.8 1.6-2.2h.1l9-3.6 1.9-.8a2.56 2.56 0 0 1 2.1 0l2.4 1 8.4 3.4h.1c.9.4 1.5 1.2 1.6 2.1l.5 5.1 1 9.7z"/><use xlink:href="#S" x="59.1"/></g><g fill="#fbcd8a"><path d="M486.8 317.3h-23.1l.1-9.3v-6.9h22.7l.1 6.9z"/><use xlink:href="#U" x="59.1" y="-60.5"/></g><path fill="#8a715d" d="M475.4 301.7c-1.8 0-3.2-1.4-3.2-3.2v-11.9c0-1.8 1.4-3.2 3.2-3.2s3.2 1.4 3.2 3.2v11.9c0 1.8-1.5 3.2-3.2 3.2z"/><use xlink:href="#T" x="59.1" fill="#72594b"/><path d="M471.7 277.3c-.3.3-.5.7-.7 1.1-.5.8-1.4 1.5-1.9 2.3-.7 1.1-.7 2.4-.7 3.7 0 .3 0 .5.2.7.1.2.4.2.6.3 1 .1 1.9-.8 2.3-1.6s.8-1.9 1.8-2.3c.4-.2.8-.3 1.3-.2.2 0 .3.1.4.2.2.2.2.5.3.7.3.8 1.4.9 2.3.9s2-.1 2.5.6c.2.3.3.7.5 1s.7.6 1 .3c.1-.1.2-.3.2-.5.2-1.9 0-3.9-.6-5.7-.2-.5-.4-1-.8-1.3-.6-.5-1.4-.5-2.2-.4s-1.5.3-2.3.2c-1.2-.4-3.1-1.1-4.2 0z" class="c"/><path d="M471.3 285.9c0-.2.2-.3.3-.4a.76.76 0 0 1 .4-.2c.3-.1.6-.2 1-.2h.5c.2 0 .3.1.5.2a1.38 1.38 0 0 1 .4.3c.1.1.2.3.2.5-.1-.1-.2-.2-.4-.3-.1-.1-.3-.1-.4-.1h-2.1a.76.76 0 0 1-.4.2zm3.7 3.8c.2 0 .3-.1.5-.1h.3c.1 0 .1 0 .2-.1 0 0 .1-.1 0-.1v-.7c-.1-.7-.1-1.4-.1-2.1v-.7c.1-.2.3-.4.4-.5.4-.2.8-.2 1.1-.2.4 0 .7.1 1 .2.2.1.3.1.5.2a1.38 1.38 0 0 1 .4.3c-.1-.1-.3-.2-.5-.2s-.3-.1-.5-.1h-1c-.3 0-.6.1-.8.2-.1.1-.2.2-.2.3v.4c0 .7 0 1.4-.1 2v.8c0 .1-.1.2-.2.3s-.2.1-.3.1h-.7z" fill="#72594b"/><path d="M477.1 291.1c-.2.3-.5.5-.8.6s-.6.2-.9.2-.6-.1-.9-.2-.6-.3-.8-.6c.3-.1.6-.1.9-.1h1.6c.3 0 .6 0 .9.1z" class="U"/><defs><path id="A" d="M250.8 99.2v-1.9c0-.5.6-.7 1.7-.7s1.6.2 1.6.7v1.9c0 .5-.5.8-1.6.8-1.2 0-1.7-.3-1.7-.8zm0 15.2v-12.2c0-.5.5-.8 1.4-.8h.5c.9 0 1.4.3 1.4.8v12.2c0 .5-.5.8-1.4.8h-.5c-1-.1-1.4-.3-1.4-.8z"/><path id="B" d="M286.6 114.2c-.6-.7-.9-1.7-.9-3 0-1.5.5-2.6 1.5-3.5s2.6-1.3 4.8-1.3v-.7c0-1.2-.6-1.8-1.8-1.8a3.73 3.73 0 0 0-1.2.2c-.3.1-.7.3-1.1.5-.2.1-.4.2-.5.2-.2 0-.5-.2-.8-.7s-.4-.8-.4-1.1.2-.5.6-.8.9-.5 1.6-.6c.7-.2 1.3-.2 2-.2 1.7 0 2.9.4 3.7 1.1.8.8 1.2 1.8 1.2 3.1v5.2c0 1.2.1 2 .2 2.6l.2 1c0 .2-.3.4-.9.6l-1.5.2c-.3 0-.5-.1-.6-.3s-.2-.6-.4-1.1c-.3.4-.7.8-1.2 1.1s-1.1.5-1.8.5c-1.2-.2-2.1-.5-2.7-1.2zm4.6-1.8c.3-.2.6-.5.8-.8v-3.1c-2.2 0-3.3.8-3.3 2.5 0 .6.1 1 .4 1.3s.6.5 1.1.5c.3-.1.7-.2 1-.4z"/><path id="C" d="M307.3 101.9s0 .2-.1.5l-4.7 17.5c-.1.4-.6.5-1.3.5h-.5c-.8 0-1.2-.2-1.2-.5 0-.1 0-.2.1-.4l1.3-4.7-3.6-12.3c-.1-.2-.1-.4-.1-.5 0-.4.4-.5 1.2-.5h.9c.3 0 .6 0 .8.1a.78.78 0 0 1 .4.4l1.3 5.9.4 2.6h.1c.1-.2.1-.6.2-1.1 0-.3.1-.8.3-1.5l1.4-5.9c.1-.3.5-.5 1.2-.5h.6c.9-.1 1.3.1 1.3.4z"/><path id="D" d="M325.1 114.4v-8.6l-.1-2.6c-.1-.5-.1-.8-.1-.9 0-.3.3-.5.9-.6s1.1-.2 1.6-.2c.3 0 .5.1.6.3s.2.4.2.7.1.5.1.7c.4-.6.9-1 1.4-1.4.6-.4 1.2-.5 1.9-.5 1 0 1.8.3 2.3 1s.8 1.6.8 2.8v9.3c0 .5-.4.8-1.3.8h-.6c-.9 0-1.4-.3-1.4-.8v-8.7c0-.6-.1-1-.3-1.3s-.5-.4-1-.4c-.3 0-.6.1-.9.3s-.5.5-.7.8v9.2c0 .3-.1.5-.3.6s-.6.2-1 .2h-.7c-.9 0-1.4-.2-1.4-.7z"/><path id="E" d="M397.2 114.2c-.6-.7-.9-1.7-.9-3 0-1.5.5-2.6 1.5-3.5s2.6-1.3 4.8-1.3v-.7c0-1.2-.6-1.8-1.8-1.8a3.73 3.73 0 0 0-1.2.2c-.3.1-.7.3-1.1.5-.2.1-.4.2-.5.2-.2 0-.5-.2-.8-.7s-.4-.8-.4-1.1.2-.5.6-.8.9-.5 1.6-.6c.7-.2 1.3-.2 2-.2 1.7 0 2.9.4 3.7 1.1.8.8 1.2 1.8 1.2 3.1v5.2c0 1.2.1 2 .2 2.6l.2 1c0 .2-.3.4-.9.6l-1.5.2c-.3 0-.5-.1-.6-.3s-.2-.6-.4-1.1c-.3.4-.7.8-1.2 1.1s-1.1.5-1.8.5c-1.2-.2-2.1-.5-2.7-1.2zm4.6-1.8c.3-.2.6-.5.8-.8v-3.1c-2.2 0-3.3.8-3.3 2.5 0 .6.1 1 .4 1.3s.6.5 1.1.5c.4-.1.7-.2 1-.4z"/><path id="F" d="M421.8 113.5c-.9-1.2-1.4-2.9-1.4-5.2 0-4.7 1.8-7.1 5.3-7.1 3.2 0 4.7 2.3 4.7 6.9 0 .2-.2.5-.5.8-.3.4-.5.5-.7.5h-5.5c.1 1.1.3 1.9.7 2.3.4.5 1 .7 1.7.7.5 0 .8-.1 1.2-.2.3-.1.7-.3 1-.4.3-.2.5-.2.5-.2.2 0 .5.2.8.7s.4.8.4 1.1-.2.6-.6.9-1 .5-1.6.6c-.6.2-1.2.2-1.8.2-1.9.1-3.3-.4-4.2-1.6zm5.5-6.1c0-1.3-.1-2.2-.4-2.8s-.7-.9-1.3-.9-1.1.3-1.4.8c-.3.6-.5 1.5-.6 2.8h3.7z"/><path id="G" d="M439.3 114.4v-7.3l-4.1-9.2c0-.1-.1-.2-.1-.3s-.1-.2-.1-.3c0-.3.5-.5 1.4-.5h1c.4 0 .7 0 .9.1s.4.2.4.4l2.5 6.7 2.4-6.7a.78.78 0 0 1 .4-.4c.2-.1.5-.1.9-.1h.8c.9 0 1.4.2 1.4.5 0 .1-.1.3-.2.6l-4.2 9.3v7.2c0 .5-.5.8-1.4.8h-.8c-.7-.1-1.2-.3-1.2-.8z"/><path id="H" d="M460.4 114.3c-.5-.6-.8-1.5-.8-2.7v-9.4c0-.5.4-.8 1.3-.8h.6c.5 0 .8.1 1 .2s.3.3.3.6v8.8c0 .5.1.9.3 1.2s.5.4 1 .4a1.93 1.93 0 0 0 1-.3c.3-.2.5-.5.7-.8v-9.2c0-.5.4-.8 1.3-.8h.7c.9 0 1.3.3 1.3.8v8.6l.1 2.6c.1.5.1.8.1.9 0 .3-.3.5-.9.6s-1.1.2-1.6.2c-.3 0-.5-.1-.6-.3s-.2-.4-.2-.7-.1-.5-.1-.7a4.67 4.67 0 0 1-1.4 1.4c-.6.4-1.2.5-1.9.5-.9-.1-1.7-.5-2.2-1.1z"/><path id="I" d="M472.4 114.4v-8.6c0-1.2-.1-2-.2-2.5l-.2-1c0-.2.3-.4.9-.6l1.5-.2c.3 0 .5.1.6.4.1.2.2.5.3.8s.1.5.1.6c.3-.6.6-1.1 1-1.4s.8-.5 1.4-.5c.5 0 .8.1 1 .3s.3.5.3.9c0 .3-.1.8-.2 1.3s-.3.8-.4.8-.3 0-.5-.1-.5-.1-.7-.1c-.4 0-.7.1-1 .4s-.5.6-.6 1v8.6c0 .5-.5.8-1.4.8h-.5c-1-.2-1.4-.4-1.4-.9z"/><path id="J" d="M507.1 114.2c-.6-.7-.9-1.7-.9-3 0-1.5.5-2.6 1.5-3.5s2.6-1.3 4.8-1.3v-.7c0-1.2-.6-1.8-1.8-1.8a3.73 3.73 0 0 0-1.2.2c-.3.1-.7.3-1.1.5-.2.1-.4.2-.5.2-.2 0-.5-.2-.8-.7s-.4-.8-.4-1.1.2-.5.6-.8.9-.5 1.6-.6c.7-.2 1.3-.2 2-.2 1.7 0 2.9.4 3.7 1.1.8.8 1.2 1.8 1.2 3.1v5.2c0 1.2.1 2 .2 2.6l.2 1c0 .2-.3.4-.9.6l-1.5.2c-.3 0-.5-.1-.6-.3s-.2-.6-.4-1.1c-.3.4-.7.8-1.2 1.1s-1.1.5-1.8.5c-1.1-.2-2-.5-2.7-1.2zm4.7-1.8c.3-.2.6-.5.8-.8v-3.1c-2.2 0-3.3.8-3.3 2.5 0 .6.1 1 .4 1.3s.6.5 1.1.5c.3-.1.6-.2 1-.4z"/><path id="K" d="M584.1 114.4v-8.6c0-1.2-.1-2-.2-2.5l-.2-1c0-.2.3-.4.9-.6l1.5-.2c.3 0 .5.1.6.4.1.2.2.5.3.8a1.76 1.76 0 0 1 .1.6c.3-.6.6-1.1 1-1.4s.8-.5 1.4-.5c.5 0 .8.1 1 .3s.3.5.3.9c0 .3-.1.8-.2 1.3s-.3.8-.4.8-.3 0-.5-.1-.5-.1-.7-.1c-.4 0-.7.1-1 .4s-.5.6-.6 1v8.6c0 .5-.5.8-1.4.8h-.5c-.9-.2-1.4-.4-1.4-.9z"/><path id="L" d="M622.2 114.3c-.6-.6-.9-1.5-.9-2.8v-7.4h-.5a.55.55 0 0 1-.5-.3c-.1-.2-.2-.5-.2-.9v-.4c0-.4.1-.7.2-.9a.55.55 0 0 1 .5-.3h.5l.3-2.5c.1-.5.5-.8 1.2-.8h.6c.7 0 1.1.3 1.1.8v2.5h1.2a.55.55 0 0 1 .5.3c.1.2.2.5.2.9v.4c0 .4-.1.7-.2.9a.55.55 0 0 1-.5.3h-1.2v7.4c0 .4.1.7.2.9s.3.3.6.3c.1 0 .3 0 .4-.1.2 0 .3-.1.3-.1.2 0 .4.2.5.6l.2 1c0 .4-.3.7-.8.8-.5.2-1 .3-1.6.3-.8 0-1.5-.3-2.1-.9z"/><path id="M" d="M298.4 144.8c-.8-.3-1.1-.7-1.1-1.2 0-.3.2-.7.5-1.2s.6-.7.8-.7c.1 0 .2.1.4.2.2.2.5.3.8.4s.6.2.9.2c.5 0 .9-.1 1.1-.3.3-.2.4-.5.4-1s-.2-.8-.5-1.1-.8-.6-1.6-1c-.8-.5-1.4-1-1.9-1.5-.5-.6-.7-1.3-.7-2.4 0-1.2.4-2.2 1.1-2.9s1.8-1.1 3-1.1c.8 0 1.5.1 2.2.4.7.2 1 .6 1 1 0 .3-.1.7-.3 1.2s-.4.7-.6.7c-.1 0-.3-.1-.6-.3-.4-.2-.7-.3-1.2-.3-.4 0-.8.1-1.1.3s-.4.5-.4.9.1.7.4.9l1.2.8.5.3c.8.5 1.4 1 1.8 1.6s.6 1.4.6 2.4c0 1.3-.4 2.3-1.2 3.1s-1.8 1.2-3.2 1.2a11.2 11.2 0 0 1-2.3-.6z"/><path id="N" d="M406.9 129.2v-1.9c0-.5.6-.7 1.7-.7s1.6.2 1.6.7v1.9c0 .5-.5.8-1.6.8-1.2 0-1.7-.3-1.7-.8zm0 15.2v-12.2c0-.5.5-.8 1.4-.8h.5c.9 0 1.4.3 1.4.8v12.2c0 .5-.5.8-1.4.8h-.5c-.9-.1-1.4-.3-1.4-.8z"/><path id="O" d="M437.9 144.8c-.8-.3-1.1-.7-1.1-1.2 0-.3.2-.7.5-1.2s.6-.7.8-.7c.1 0 .2.1.4.2.2.2.5.3.8.4s.6.2.9.2c.5 0 .9-.1 1.1-.3.3-.2.4-.5.4-1s-.2-.8-.5-1.1-.8-.6-1.6-1c-.8-.5-1.4-1-1.9-1.5-.5-.6-.7-1.3-.7-2.4 0-1.2.4-2.2 1.1-2.9s1.8-1.1 3-1.1c.8 0 1.5.1 2.2.4s1 .6 1 1c0 .3-.1.7-.3 1.2s-.4.7-.6.7c-.1 0-.3-.1-.6-.3-.4-.2-.7-.3-1.2-.3-.4 0-.8.1-1.1.3s-.4.5-.4.9.1.7.4.9l1.2.8.5.3c.8.5 1.4 1 1.8 1.6s.7 1.4.7 2.4c0 1.3-.4 2.3-1.2 3.1s-1.8 1.2-3.2 1.2c-.8-.1-1.6-.3-2.4-.6z"/><path id="P" d="M532.2 144.4v-8.6l-.1-2.6c-.1-.5-.1-.8-.1-.9 0-.3.3-.5.9-.6s1.1-.2 1.6-.2c.3 0 .5.1.6.3s.2.4.2.7.1.5.1.7c.4-.6.9-1 1.4-1.4.6-.4 1.2-.5 1.9-.5 1 0 1.8.3 2.3 1 .5.6.8 1.6.8 2.8v9.3c0 .5-.4.8-1.3.8h-.6c-.9 0-1.4-.3-1.4-.8v-8.7c0-.6-.1-1-.3-1.3s-.5-.4-1-.4c-.3 0-.6.1-.9.3s-.5.5-.7.8v9.2c0 .3-.1.5-.3.6s-.6.2-1 .2h-.7c-1 0-1.4-.2-1.4-.7z"/><path id="Q" d="M661.6 129.2v-1.9c0-.5.6-.7 1.7-.7s1.6.2 1.6.7v1.9c0 .5-.5.8-1.6.8s-1.7-.3-1.7-.8zm0 15.2v-12.2c0-.5.5-.8 1.4-.8h.5c.9 0 1.4.3 1.4.8v12.2c0 .5-.5.8-1.4.8h-.5c-.9-.1-1.4-.3-1.4-.8z"/><path id="R" d="M297.3 309c4.7-.8 8.4-4.6 9.2-9.2 0-.2.3-.2.4 0 .8 4.7 4.6 8.4 9.2 9.2.2 0 .2.3 0 .4-4.7.8-8.4 4.6-9.2 9.2 0 .2-.3.2-.4 0-.8-4.7-4.6-8.4-9.2-9.2-.2-.1-.2-.4 0-.4z"/><path id="S" d="M421.5 285.8c0 4.6-2.4 9.1-5.3 9.1s-5.3-4.5-5.3-9.1 2.4-7.5 5.3-7.5 5.3 2.9 5.3 7.5z"/><path id="T" d="M413.5 293.3c.4.3.9.6 1.4.7.5.2.9.3 1.4.3s.9-.1 1.4-.3.9-.4 1.4-.7c-.2.5-.6.9-1.1 1.3-.5.3-1.1.5-1.7.5s-1.2-.2-1.7-.5c-.5-.4-.9-.8-1.1-1.3z"/><path id="U" d="M407.3 369l-6.1-1.3 1.1-5.1c.2-1 .9-1.9 1.9-2.3l11.1-4.4c.7-.3 1.6-.3 2.3 0l11 4.3c1 .4 1.8 1.3 2 2.4l.9 5.3-6.2 1-.6-3.5-8.2-3.2-8.4 3.3-.8 3.5z"/><path id="V" d="M525.6 310.5l-8.7-1.6 1.6-8.7c.3-1.5 1.3-2.7 2.7-3.3l11.6-4.6a4.42 4.42 0 0 1 3.2 0l11.5 4.5c1.4.6 2.5 1.8 2.8 3.4l1.5 8.8-8.7 1.5-1.1-6.3-7.5-2.9-7.7 3.1-1.2 6.1z"/></defs></svg>